<svg width="1116" height="528" viewBox="0 0 1116 528" fill="none" xmlns="http://www.w3.org/2000/svg">
<path d="M551.989 0C644.734 4.646e-05 729.574 23.2098 794.819 61.6221L796.357 62.5322C821.149 49.853 849.151 43.2041 877.63 43.2344C970.083 43.2345 1045.06 112.014 1045.06 196.857C1045.04 202.226 1044.73 207.59 1044.11 212.93C1066.4 227.203 1084.56 246.115 1097.07 268.072C1109.59 290.029 1116.08 314.387 1116 339.09C1116.06 367.413 1107.51 395.206 1091.29 419.432C1091.29 449.059 1076.03 475.914 1051.26 495.486C1045.06 500.387 1038.39 504.772 1031.32 508.588C1031.04 508.75 1030.75 508.905 1030.45 509.059C1029.92 509.341 1029.39 509.624 1028.85 509.915L1028.35 510.18C1004.91 521.999 978.492 528.137 951.657 527.998H239.299L236.999 527.986C196.252 527.585 158.808 516.537 129.044 498.264C136.136 500.61 143.487 502.644 151.06 504.337C176.856 516.168 207.011 522.998 239.299 522.998H951.683C977.731 523.133 1003.35 517.177 1026.06 505.734L1026.51 505.495C1027.05 505.204 1027.58 504.922 1028.1 504.646L1028.13 504.633C1028.43 504.472 1028.64 504.359 1028.84 504.25L1028.89 504.219L1028.95 504.188C1035.76 500.508 1042.19 496.282 1048.16 491.564L1048.16 491.563C1071.98 472.738 1086.29 447.232 1086.29 419.432V417.913L1087.14 416.65C1102.82 393.225 1111.06 366.399 1111 339.101V339.075C1111.07 315.266 1104.82 291.764 1092.73 270.548C1080.64 249.327 1063.05 230.997 1041.41 217.14L1038.79 215.457L1039.14 212.356C1039.74 207.207 1040.04 202.034 1040.06 196.857C1040.06 115.172 967.736 48.2345 877.63 48.2344H877.625C849.92 48.2049 822.703 54.6746 798.634 66.9844L796.174 68.2422L793.8 66.8291C729.201 28.3791 644.656 5.00005 551.989 5C431.804 5.00005 325.527 44.3065 258.524 104.587C251.288 108.887 244.338 113.364 237.691 118.007C303.965 47.039 420.001 5.92935e-05 551.989 0ZM519.869 39.7988C613.66 39.7989 699.394 60.8092 765.063 95.5234C789.939 84.2245 818.036 78.2991 846.611 78.3262C939.378 78.3262 1014.6 139.618 1014.6 215.224C1014.59 220.007 1014.27 224.787 1013.66 229.545C1036.02 242.264 1054.24 259.118 1066.8 278.685C1079.35 298.251 1085.86 319.956 1085.79 341.97C1085.85 367.209 1077.27 391.976 1061 413.564C1061 439.966 1045.68 463.897 1020.83 481.338C1014.61 485.705 1007.92 489.613 1000.82 493.014C1000.54 493.158 1000.24 493.295 999.95 493.433C999.419 493.684 998.887 493.936 998.347 494.195L997.844 494.432C974.324 504.964 947.814 510.434 920.889 510.31H206.12C186.907 510.31 168.403 508.214 151.06 504.337C138.427 498.542 126.838 491.548 116.557 483.568C85.3015 459.309 66.4189 426.059 66.4188 389.736V388.127L65.4813 386.82C48.0313 362.51 38.8098 334.189 38.8739 305.306V305.295C38.8739 255.552 65.6851 211.278 107.006 184.259C125.911 178.254 146.48 174.957 167.994 174.957C171.278 174.957 174.533 175.048 177.769 175.193C182.339 168.932 187.36 162.82 192.806 156.871C195.618 156.739 198.451 156.672 201.301 156.672C204.47 156.672 207.628 156.771 210.792 156.931L213.672 157.076L215.24 154.657C226.815 136.799 241.385 120.007 258.524 104.587C325.977 64.5011 418.206 39.7988 519.869 39.7988ZM89.8876 190.621C55.5157 218.756 33.8739 259.706 33.8739 305.295C33.8074 335.263 43.3778 364.603 61.4188 389.736L61.4334 391.522C62.0424 428.983 81.7776 462.903 113.492 487.519L115.011 488.684C119.468 492.062 124.152 495.26 129.044 498.264C110.712 492.199 94.1101 484.041 79.8876 474.237C47.5608 451.954 27.6386 421.114 27.6385 387.102C9.53654 364.704 -0.0667386 338.56 -0.000144268 311.854C-0.000144268 259.226 36.4421 213.533 89.8876 190.621ZM197.676 151.709C196.016 153.415 194.393 155.137 192.806 156.871C160.837 158.374 131.394 168.311 107.006 184.259C101.132 186.124 95.4185 188.25 89.8876 190.621C118.645 167.082 156.314 152.515 197.676 151.709ZM237.691 118.007C227.62 128.791 218.698 140.129 211.044 151.938L208.621 151.827C206.194 151.73 203.755 151.672 201.301 151.672C200.089 151.672 198.881 151.685 197.676 151.709C209.332 139.724 222.744 128.448 237.691 118.007Z" fill="#2B426D"/>
<path d="M337.925 339.711C337.939 337.474 338.745 335.315 340.2 333.616C341.654 331.917 343.663 330.788 345.871 330.429L481.685 308.127C482.987 307.911 484.32 307.971 485.599 308.301L517.428 316.531L535.69 321.259L569.393 329.971C571.427 330.499 573.229 331.688 574.515 333.351C575.801 335.013 576.499 337.055 576.5 339.158V481.472C576.49 483.641 575.74 485.743 574.375 487.429C573.009 489.115 571.11 490.285 568.989 490.745L430.653 489.179C430.003 489.318 429.341 489.387 428.676 489.384C427.708 489.386 426.746 489.24 425.822 488.95L343.633 490.995C341.694 490.389 340.001 489.175 338.806 487.531C337.611 485.888 336.978 483.903 337 481.871L337.925 339.711Z" fill="white"/>
<path d="M337.925 339.711C337.939 337.474 338.745 335.315 340.2 333.616C341.654 331.917 343.663 330.788 345.871 330.429L481.685 308.127C482.987 307.911 484.32 307.971 485.599 308.301L517.428 316.531L535.69 321.259L569.393 329.971C571.427 330.499 573.229 331.688 574.515 333.351C575.801 335.013 576.499 337.055 576.5 339.158V481.472C576.49 483.641 575.74 485.743 574.375 487.429C573.009 489.115 571.11 490.285 568.989 490.745L430.653 489.179C430.003 489.318 429.341 489.387 428.676 489.384C427.708 489.386 426.746 489.24 425.822 488.95L343.633 490.995C341.694 490.389 340.001 489.175 338.806 487.531C337.611 485.888 336.978 483.903 337 481.871L337.925 339.711ZM344.345 488.734L426.534 490.689C427.706 491.054 428.953 491.114 430.155 490.862L568.499 488.429C570.089 488.082 571.513 487.204 572.536 485.939C573.559 484.675 574.121 483.099 574.128 481.472V339.158C574.127 337.701 573.679 336.279 572.845 335.085C572.011 333.89 570.831 332.98 569.464 332.477C569.247 332.396 569.025 332.327 568.8 332.271L533.144 323.053L512.059 317.598L485.006 310.602C484.425 310.447 483.827 310.37 483.227 310.372C482.84 310.372 482.454 310.404 482.073 310.467L346.258 332.77C345.165 332.949 344.129 333.38 343.232 334.029C342.334 334.678 341.6 335.527 341.088 336.509C340.575 337.504 340.304 338.607 340.297 339.727L339.372 481.887C339.355 483.411 339.829 484.9 340.725 486.134C341.621 487.367 342.89 488.278 344.345 488.734Z" fill="#CCCCCC"/>
<path d="M341.088 336.509C341.18 336.569 341.281 336.615 341.388 336.643L381.336 347.442L393.772 350.802L429.143 360.36C429.244 360.385 429.347 360.399 429.451 360.4C429.523 360.399 429.594 360.393 429.665 360.384L572.286 334.382L572.761 334.295C573.07 334.237 573.343 334.059 573.521 333.8C573.699 333.541 573.768 333.222 573.711 332.912C573.655 332.603 573.478 332.329 573.22 332.149C572.962 331.97 572.643 331.9 572.334 331.955L569.464 332.476L429.499 357.997L399.014 349.759L381.961 345.15L342.629 334.516L342.005 334.35C341.735 334.279 341.448 334.305 341.195 334.423C340.943 334.542 340.739 334.745 340.621 334.999C340.591 335.059 340.567 335.123 340.55 335.188C340.485 335.437 340.502 335.7 340.599 335.938C340.696 336.176 340.867 336.376 341.088 336.509Z" fill="#CCCCCC"/>
<path d="M428.266 489.661C428.916 489.661 429.446 489.137 429.452 492.486L430.638 363.225C430.644 358.57 430.117 358.034 429.463 358.028H429.452C428.802 358.028 428.272 358.552 428.266 363.203L427.08 492.464C427.074 489.119 427.6 489.654 428.255 489.661H428.266Z" fill="#CCCCCC"/>
<path d="M381 491.161L393.773 491.297L399.014 349.76L532.757 323.148C532.888 323.125 533.018 323.094 533.145 323.054C534.172 322.761 535.07 322.128 535.69 321.259L517.428 316.531L512.06 317.599L385.155 342.842C384.488 342.974 383.857 343.248 383.306 343.647C382.754 344.045 382.296 344.558 381.961 345.15C381.566 345.838 381.008 490.339 381 491.161Z" fill="#CCCCCC"/>
<path d="M535.306 421.397C535.415 421.42 535.526 421.431 535.638 421.429L567.414 420.894C567.811 420.886 568.189 420.721 568.465 420.436C568.741 420.15 568.892 419.766 568.886 419.369C568.879 418.971 568.715 418.593 568.43 418.317C568.144 418.04 567.761 417.888 567.364 417.894L535.588 418.429C535.219 418.435 534.865 418.577 534.594 418.828C534.324 419.078 534.155 419.42 534.12 419.787C534.085 420.154 534.186 420.522 534.405 420.819C534.624 421.116 534.945 421.322 535.306 421.397Z" fill="#E6E6E6"/>
<path d="M524.306 438.397C524.415 438.42 524.526 438.431 524.638 438.429L556.414 437.894C556.811 437.886 557.189 437.721 557.465 437.436C557.741 437.15 557.892 436.766 557.886 436.369C557.879 435.971 557.715 435.593 557.43 435.317C557.144 435.04 556.761 434.888 556.364 434.894L524.588 435.429C524.219 435.435 523.865 435.577 523.594 435.828C523.324 436.078 523.155 436.42 523.12 436.787C523.085 437.154 523.186 437.522 523.405 437.819C523.624 438.116 523.945 438.322 524.306 438.397Z" fill="#E6E6E6"/>
<path d="M407.575 340.711C407.561 338.474 406.755 336.315 405.3 334.616C403.846 332.917 401.837 331.788 399.629 331.429L263.815 309.127C262.513 308.911 261.18 308.971 259.901 309.301L228.072 317.531L209.81 322.259L176.107 330.971C174.073 331.499 172.271 332.688 170.985 334.351C169.699 336.013 169.001 338.055 169 340.158V482.472C169.01 484.641 169.76 486.743 171.125 488.429C172.491 490.115 174.39 491.285 176.511 491.745L314.847 490.179C315.497 490.318 316.159 490.387 316.824 490.384C317.792 490.386 318.754 490.24 319.678 489.95L401.867 491.995C403.806 491.389 405.499 490.175 406.694 488.531C407.889 486.888 408.522 484.903 408.5 482.871L407.575 340.711Z" fill="white"/>
<path d="M407.575 340.711C407.561 338.474 406.755 336.315 405.3 334.616C403.846 332.917 401.837 331.788 399.629 331.429L263.815 309.127C262.513 308.911 261.18 308.971 259.901 309.301L228.072 317.531L209.81 322.259L176.107 330.971C174.073 331.499 172.271 332.688 170.985 334.351C169.699 336.013 169.001 338.055 169 340.158V482.472C169.01 484.641 169.76 486.743 171.125 488.429C172.491 490.115 174.39 491.285 176.511 491.745L314.847 490.179C315.497 490.318 316.159 490.387 316.824 490.384C317.792 490.386 318.754 490.24 319.678 489.95L401.867 491.995C403.806 491.389 405.499 490.175 406.694 488.531C407.889 486.888 408.522 484.903 408.5 482.871L407.575 340.711ZM401.155 489.734L318.966 491.689C317.794 492.054 316.547 492.114 315.345 491.862L177.001 489.429C175.411 489.082 173.987 488.204 172.964 486.939C171.941 485.675 171.379 484.099 171.372 482.472V340.158C171.373 338.701 171.821 337.279 172.655 336.085C173.489 334.89 174.669 333.98 176.036 333.477C176.253 333.396 176.475 333.327 176.7 333.271L212.356 324.053L233.441 318.598L260.494 311.602C261.075 311.447 261.673 311.37 262.273 311.372C262.66 311.372 263.046 311.404 263.427 311.467L399.242 333.77C400.335 333.949 401.371 334.38 402.268 335.029C403.166 335.678 403.9 336.527 404.412 337.509C404.925 338.504 405.196 339.607 405.203 340.727L406.128 482.887C406.145 484.411 405.671 485.9 404.775 487.134C403.879 488.367 402.61 489.278 401.155 489.734Z" fill="#CCCCCC"/>
<path d="M404.412 337.509C404.32 337.569 404.219 337.615 404.112 337.643L364.164 348.442L351.728 351.802L316.357 361.36C316.256 361.385 316.153 361.399 316.049 361.4C315.977 361.399 315.906 361.393 315.835 361.384L173.214 335.382L172.739 335.295C172.43 335.237 172.157 335.059 171.979 334.8C171.801 334.541 171.732 334.222 171.789 333.912C171.845 333.603 172.022 333.329 172.28 333.149C172.538 332.97 172.857 332.9 173.166 332.955L176.036 333.476L316.001 358.997L346.486 350.759L363.539 346.15L402.871 335.516L403.495 335.35C403.765 335.279 404.052 335.305 404.305 335.423C404.557 335.542 404.761 335.745 404.879 335.999C404.909 336.059 404.933 336.123 404.95 336.188C405.015 336.437 404.998 336.7 404.901 336.938C404.804 337.176 404.633 337.376 404.412 337.509Z" fill="#CCCCCC"/>
<path d="M317.235 490.661C316.585 490.661 316.055 490.137 316.049 493.486L314.863 364.225C314.857 359.57 315.383 359.034 316.038 359.028H316.049C316.699 359.028 317.228 359.552 317.235 364.203L318.42 493.464C318.427 490.119 317.9 490.654 317.245 490.661H317.235Z" fill="#CCCCCC"/>
<path d="M364.5 492.161L351.728 492.297L346.486 350.76L212.743 324.148C212.612 324.125 212.483 324.094 212.356 324.054C211.328 323.761 210.431 323.128 209.81 322.259L228.073 317.531L233.441 318.599L360.345 343.842C361.013 343.974 361.644 344.248 362.195 344.647C362.746 345.045 363.205 345.558 363.539 346.15C363.935 346.838 364.492 491.339 364.5 492.161Z" fill="#CCCCCC"/>
<path d="M210.195 422.397C210.085 422.42 209.974 422.431 209.863 422.429L178.087 421.894C177.69 421.886 177.312 421.721 177.036 421.436C176.76 421.15 176.608 420.766 176.615 420.369C176.622 419.971 176.785 419.593 177.071 419.317C177.356 419.04 177.739 418.888 178.137 418.894L209.913 419.429C210.282 419.435 210.635 419.577 210.906 419.828C211.177 420.078 211.346 420.42 211.381 420.787C211.416 421.154 211.314 421.522 211.095 421.819C210.876 422.116 210.556 422.322 210.195 422.397Z" fill="#E6E6E6"/>
<path d="M221.195 439.397C221.085 439.42 220.974 439.431 220.863 439.429L189.087 438.894C188.69 438.886 188.312 438.721 188.036 438.436C187.76 438.15 187.608 437.766 187.615 437.369C187.622 436.971 187.785 436.593 188.071 436.317C188.356 436.04 188.739 435.888 189.137 435.894L220.913 436.429C221.282 436.435 221.635 436.577 221.906 436.828C222.177 437.078 222.346 437.42 222.381 437.787C222.416 438.154 222.314 438.522 222.095 438.819C221.876 439.116 221.556 439.322 221.195 439.397Z" fill="#E6E6E6"/>
<path d="M307.838 231.492C307.978 232.107 308.069 232.733 308.111 233.362L357.075 261.609L368.977 254.758L381.664 271.368L361.774 285.544C360.167 286.69 358.232 287.283 356.259 287.235C354.287 287.187 352.383 286.5 350.834 285.278L300.343 245.446C298.064 246.289 295.583 246.419 293.229 245.818C290.875 245.216 288.759 243.913 287.164 242.08C285.569 240.247 284.57 237.972 284.299 235.557C284.028 233.143 284.499 230.703 285.649 228.563C286.799 226.422 288.573 224.683 290.736 223.575C292.898 222.468 295.347 222.045 297.756 222.363C300.165 222.681 302.42 223.725 304.221 225.356C306.022 226.986 307.284 229.127 307.838 231.492Z" fill="#FFB6B6"/>
<path d="M390.803 237.899C390.792 236.213 390.185 234.586 389.089 233.306C387.992 232.025 386.478 231.174 384.815 230.904L282.458 214.096C281.476 213.933 280.471 213.978 279.508 214.227L255.52 220.429L241.757 223.992L216.356 230.558C214.823 230.957 213.465 231.852 212.496 233.105C211.527 234.358 211 235.898 211 237.482V321.374C211.008 323.009 211.573 324.593 212.602 325.864C213.631 327.134 215.063 328.016 216.66 328.363L320.918 350.546C321.408 350.651 321.907 350.703 322.408 350.701C323.137 350.702 323.863 350.592 324.559 350.373L386.501 330.812C387.963 330.356 389.238 329.441 390.139 328.202C391.039 326.964 391.517 325.468 391.5 323.936L390.803 237.899Z" fill="white"/>
<path d="M281.298 220.256C281.223 220.256 281.149 220.265 281.077 220.284L217.925 236.616C217.733 236.666 217.564 236.777 217.443 236.934C217.322 237.09 217.256 237.282 217.256 237.48V321.371C217.257 321.576 217.327 321.773 217.456 321.932C217.584 322.091 217.763 322.201 217.963 322.245L322.22 344.427C322.371 344.459 322.528 344.451 322.675 344.405L384.619 324.844C384.801 324.787 384.96 324.673 385.073 324.518C385.185 324.364 385.244 324.177 385.242 323.986L384.548 237.949C384.546 237.738 384.47 237.535 384.333 237.375C384.196 237.215 384.007 237.109 383.799 237.075L281.443 220.267C281.395 220.26 281.347 220.256 281.298 220.256Z" fill="#A3A3A3"/>
<path d="M390.803 237.899C390.792 236.213 390.185 234.586 389.089 233.306C387.992 232.025 386.478 231.174 384.815 230.904L282.458 214.096C281.476 213.933 280.471 213.978 279.508 214.227L255.52 220.429L241.757 223.992L216.356 230.558C214.823 230.957 213.465 231.852 212.496 233.105C211.527 234.358 211 235.898 211 237.482V321.374C211.008 323.009 211.573 324.593 212.602 325.864C213.631 327.134 215.063 328.016 216.66 328.363L320.918 350.546C321.408 350.651 321.907 350.703 322.408 350.701C323.137 350.702 323.863 350.592 324.559 350.373L386.501 330.812C387.963 330.356 389.238 329.441 390.139 328.202C391.039 326.964 391.517 325.468 391.5 323.936L390.803 237.899ZM385.965 329.108L324.022 348.669C323.139 348.944 322.199 348.99 321.294 348.8L217.03 326.618C215.832 326.356 214.759 325.695 213.987 324.741C213.216 323.788 212.793 322.601 212.787 321.374V237.482C212.788 236.384 213.126 235.313 213.754 234.412C214.383 233.512 215.272 232.826 216.303 232.447C216.466 232.386 216.634 232.334 216.803 232.292L243.675 225.345L259.566 221.234L279.955 215.961C280.392 215.844 280.843 215.786 281.296 215.788C281.587 215.788 281.878 215.812 282.166 215.859L384.523 232.668C385.346 232.803 386.127 233.128 386.804 233.617C387.48 234.106 388.033 234.746 388.419 235.486C388.806 236.236 389.01 237.067 389.015 237.911L389.712 323.948C389.725 325.097 389.368 326.219 388.693 327.149C388.017 328.078 387.061 328.765 385.965 329.108Z" fill="#CACACA"/>
<path d="M388.419 235.486C388.35 235.532 388.273 235.566 388.193 235.587L358.086 243.726L348.713 246.258L322.056 253.462C321.98 253.481 321.902 253.491 321.824 253.492C321.77 253.491 321.716 253.487 321.663 253.48L214.176 233.883L213.818 233.818C213.585 233.774 213.379 233.64 213.244 233.445C213.11 233.249 213.058 233.009 213.101 232.776C213.144 232.542 213.277 232.335 213.471 232.2C213.666 232.065 213.906 232.012 214.14 232.054L216.303 232.447L321.788 251.68L344.763 245.472L357.615 241.998L387.257 233.984L387.728 233.859C387.931 233.806 388.147 233.825 388.338 233.914C388.529 234.004 388.682 234.157 388.771 234.348C388.794 234.393 388.812 234.441 388.824 234.491C388.873 234.678 388.861 234.876 388.788 235.056C388.714 235.235 388.585 235.386 388.419 235.486Z" fill="#CACACA"/>
<path d="M322.717 350.909C322.482 350.909 322.255 350.816 322.088 350.65C321.921 350.485 321.826 350.259 321.823 350.024L320.93 252.606C320.928 252.369 321.02 252.141 321.186 251.972C321.352 251.803 321.578 251.706 321.815 251.704H321.823C322.059 251.704 322.285 251.797 322.453 251.963C322.62 252.129 322.715 252.354 322.717 252.59L323.611 350.007C323.613 350.244 323.521 350.473 323.355 350.642C323.189 350.811 322.962 350.907 322.725 350.909H322.717Z" fill="#CACACA"/>
<path d="M358.086 339.058L348.713 341.59L344.763 245.471L243.967 225.416C243.868 225.398 243.771 225.374 243.675 225.344C242.901 225.124 242.224 224.647 241.756 223.992L255.52 220.429L259.566 221.233L355.208 240.258C355.711 240.357 356.186 240.564 356.602 240.864C357.017 241.165 357.363 241.551 357.615 241.998C357.913 242.516 358.08 338.438 358.086 339.058Z" fill="#CACACA"/>
<path d="M257.499 314C257.388 314 257.277 313.988 257.168 313.963L226.168 306.963C225.78 306.875 225.444 306.637 225.231 306.301C225.019 305.964 224.949 305.558 225.037 305.17C225.124 304.782 225.362 304.445 225.698 304.233C226.034 304.02 226.44 303.949 226.828 304.036L257.828 311.036C258.188 311.118 258.505 311.329 258.72 311.629C258.934 311.93 259.03 312.299 258.989 312.665C258.948 313.032 258.774 313.371 258.499 313.617C258.224 313.863 257.868 314 257.499 314Z" fill="white"/>
<path d="M591.838 390.492C591.978 391.107 592.069 391.733 592.111 392.362L641.075 420.609L652.977 413.758L665.664 430.368L645.774 444.544C644.167 445.69 642.232 446.283 640.259 446.235C638.287 446.187 636.383 445.5 634.834 444.278L584.343 404.446C582.064 405.289 579.583 405.419 577.229 404.818C574.875 404.216 572.759 402.913 571.164 401.08C569.569 399.247 568.57 396.972 568.299 394.557C568.028 392.143 568.499 389.703 569.649 387.563C570.799 385.422 572.573 383.683 574.736 382.575C576.898 381.468 579.347 381.045 581.756 381.363C584.165 381.681 586.42 382.725 588.221 384.356C590.022 385.986 591.284 388.127 591.838 390.492Z" fill="#FFB6B6"/>
<path d="M674.803 396.899C674.792 395.213 674.185 393.586 673.089 392.306C671.992 391.025 670.478 390.174 668.815 389.904L566.458 373.096C565.476 372.933 564.471 372.978 563.508 373.227L539.52 379.429L525.757 382.992L500.356 389.558C498.823 389.957 497.465 390.852 496.496 392.105C495.527 393.358 495 394.898 495 396.482V480.374C495.008 482.009 495.573 483.593 496.602 484.864C497.631 486.134 499.063 487.016 500.66 487.363L604.918 509.546C605.408 509.651 605.907 509.703 606.408 509.701C607.137 509.702 607.863 509.592 608.559 509.373L670.501 489.812C671.963 489.356 673.238 488.441 674.139 487.202C675.039 485.964 675.517 484.468 675.5 482.936L674.803 396.899Z" fill="white"/>
<path d="M565.298 379.256C565.223 379.256 565.149 379.265 565.077 379.284L501.925 395.616C501.733 395.666 501.564 395.777 501.443 395.934C501.322 396.09 501.256 396.282 501.256 396.48V480.371C501.257 480.576 501.327 480.773 501.456 480.932C501.584 481.091 501.763 481.201 501.963 481.245L606.22 503.427C606.371 503.459 606.528 503.451 606.675 503.405L668.619 483.844C668.801 483.787 668.96 483.673 669.073 483.518C669.185 483.364 669.244 483.177 669.242 482.986L668.548 396.949C668.546 396.738 668.47 396.535 668.333 396.375C668.196 396.215 668.007 396.109 667.799 396.075L565.443 379.267C565.395 379.26 565.347 379.256 565.298 379.256Z" fill="#A3A3A3"/>
<path d="M674.803 396.899C674.792 395.213 674.185 393.586 673.089 392.306C671.992 391.025 670.478 390.174 668.815 389.904L566.458 373.096C565.476 372.933 564.471 372.978 563.508 373.227L539.52 379.429L525.757 382.992L500.356 389.558C498.823 389.957 497.465 390.852 496.496 392.105C495.527 393.358 495 394.898 495 396.482V480.374C495.008 482.009 495.573 483.593 496.602 484.864C497.631 486.134 499.063 487.016 500.66 487.363L604.918 509.546C605.408 509.651 605.907 509.703 606.408 509.701C607.137 509.702 607.863 509.592 608.559 509.373L670.501 489.812C671.963 489.356 673.238 488.441 674.139 487.202C675.039 485.964 675.517 484.468 675.5 482.936L674.803 396.899ZM669.965 488.108L608.022 507.669C607.139 507.944 606.199 507.99 605.294 507.8L501.03 485.618C499.832 485.356 498.759 484.695 497.987 483.741C497.216 482.788 496.793 481.601 496.787 480.374V396.482C496.788 395.384 497.126 394.313 497.754 393.412C498.383 392.512 499.272 391.826 500.303 391.447C500.466 391.386 500.634 391.334 500.803 391.292L527.675 384.345L543.566 380.234L563.955 374.961C564.392 374.844 564.843 374.786 565.296 374.788C565.587 374.788 565.878 374.812 566.166 374.859L668.523 391.668C669.346 391.803 670.127 392.128 670.804 392.617C671.48 393.106 672.033 393.746 672.419 394.486C672.806 395.236 673.01 396.067 673.015 396.911L673.712 482.948C673.725 484.097 673.368 485.219 672.693 486.149C672.017 487.078 671.061 487.765 669.965 488.108Z" fill="#CACACA"/>
<path d="M672.419 394.486C672.349 394.532 672.273 394.566 672.192 394.587L642.085 402.726L632.713 405.258L606.056 412.462C605.979 412.481 605.901 412.491 605.823 412.492C605.769 412.491 605.716 412.487 605.662 412.48L498.175 392.883L497.818 392.818C497.585 392.774 497.378 392.64 497.244 392.445C497.11 392.249 497.058 392.009 497.1 391.776C497.143 391.542 497.276 391.335 497.471 391.2C497.666 391.065 497.906 391.012 498.139 391.054L500.302 391.447L605.787 410.68L628.762 404.472L641.614 400.998L671.257 392.984L671.728 392.859C671.931 392.806 672.147 392.825 672.337 392.914C672.528 393.004 672.681 393.157 672.77 393.348C672.793 393.393 672.811 393.441 672.824 393.491C672.873 393.678 672.86 393.876 672.787 394.056C672.714 394.235 672.585 394.386 672.419 394.486Z" fill="#CACACA"/>
<path d="M606.717 509.909C606.482 509.909 606.255 509.816 606.088 509.65C605.921 509.485 605.826 509.259 605.823 509.024L604.93 411.606C604.928 411.369 605.02 411.141 605.186 410.972C605.352 410.803 605.578 410.706 605.815 410.704H605.823C606.059 410.704 606.285 410.797 606.453 410.963C606.62 411.129 606.715 411.354 606.717 411.59L607.611 509.007C607.613 509.244 607.521 509.473 607.355 509.642C607.189 509.811 606.962 509.907 606.725 509.909H606.717Z" fill="#CACACA"/>
<path d="M642.085 498.058L632.713 500.59L628.762 404.471L527.966 384.416C527.868 384.398 527.77 384.374 527.674 384.344C526.9 384.124 526.224 383.647 525.756 382.992L539.519 379.429L543.565 380.233L639.207 399.258C639.71 399.357 640.186 399.564 640.601 399.864C641.017 400.165 641.362 400.551 641.614 400.998C641.912 401.516 642.079 497.438 642.085 498.058Z" fill="#CACACA"/>
<path d="M541.499 473C541.388 473 541.277 472.988 541.168 472.963L510.168 465.963C509.78 465.875 509.444 465.637 509.231 465.301C509.019 464.964 508.949 464.558 509.037 464.17C509.124 463.782 509.362 463.445 509.698 463.233C510.034 463.02 510.44 462.949 510.828 463.036L541.828 470.036C542.188 470.118 542.505 470.329 542.72 470.629C542.934 470.93 543.03 471.299 542.989 471.665C542.948 472.032 542.774 472.371 542.499 472.617C542.224 472.863 541.868 473 541.499 473Z" fill="white"/>
<path d="M880.987 367.133C880.835 367.745 880.731 368.368 880.677 368.996L831.168 396.277L819.403 389.193L806.392 405.551L826 420.115C827.585 421.292 829.508 421.923 831.481 421.913C833.454 421.904 835.371 421.255 836.944 420.063L888.207 381.23C890.468 382.118 892.947 382.297 895.312 381.742C897.678 381.187 899.818 379.925 901.449 378.124C903.08 376.323 904.124 374.068 904.442 371.659C904.76 369.25 904.337 366.802 903.229 364.639C902.122 362.476 900.382 360.702 898.242 359.552C896.101 358.403 893.661 357.932 891.247 358.203C888.832 358.473 886.557 359.473 884.724 361.068C882.892 362.663 881.588 364.778 880.987 367.133Z" fill="#FFB6B6"/>
<path d="M797.912 371.908C797.956 370.223 798.595 368.608 799.716 367.35C800.837 366.091 802.368 365.27 804.036 365.032L906.704 350.237C907.688 350.094 908.692 350.158 909.65 350.426L933.512 357.098L947.203 360.931L972.469 367.994C973.994 368.422 975.334 369.345 976.279 370.616C977.223 371.888 977.719 373.437 977.688 375.021L976.041 458.898C976.002 460.532 975.406 462.104 974.352 463.355C973.298 464.605 971.849 465.458 970.245 465.774L865.572 485.906C865.08 486.001 864.58 486.043 864.079 486.031C863.35 486.018 862.627 485.894 861.935 485.661L800.389 464.888C798.936 464.403 797.679 463.463 796.803 462.207C795.927 460.951 795.479 459.446 795.526 457.915L797.912 371.908Z" fill="white"/>
<path d="M907.741 356.419C907.816 356.421 907.89 356.432 907.962 356.452L970.782 374.021C970.972 374.074 971.139 374.189 971.257 374.348C971.375 374.507 971.437 374.7 971.433 374.898L969.786 458.773C969.781 458.977 969.707 459.173 969.576 459.33C969.444 459.486 969.263 459.593 969.063 459.632L864.389 479.763C864.238 479.792 864.081 479.781 863.935 479.732L802.388 458.959C802.206 458.899 802.049 458.781 801.94 458.624C801.831 458.467 801.775 458.279 801.781 458.088L804.165 372.082C804.17 371.871 804.25 371.669 804.39 371.512C804.53 371.355 804.722 371.253 804.93 371.223L907.597 356.428C907.645 356.421 907.693 356.419 907.741 356.419Z" fill="#CCCCCC"/>
<path d="M797.912 371.908C797.956 370.223 798.595 368.608 799.716 367.35C800.837 366.091 802.368 365.27 804.036 365.032L906.704 350.237C907.688 350.094 908.692 350.158 909.65 350.426L933.512 357.098L947.203 360.931L972.469 367.994C973.994 368.422 975.334 369.345 976.279 370.616C977.223 371.888 977.719 373.437 977.688 375.021L976.041 458.898C976.002 460.532 975.406 462.104 974.352 463.355C973.298 464.605 971.849 465.458 970.245 465.774L865.572 485.906C865.08 486.001 864.58 486.043 864.079 486.031C863.35 486.018 862.627 485.894 861.935 485.661L800.389 464.888C798.936 464.403 797.679 463.463 796.803 462.207C795.927 460.951 795.479 459.446 795.526 457.915L797.912 371.908ZM800.959 463.195L862.505 483.968C863.383 484.261 864.321 484.324 865.231 484.153L969.91 464.022C971.113 463.784 972.199 463.143 972.988 462.205C973.778 461.267 974.225 460.088 974.254 458.863L975.901 374.986C975.922 373.889 975.606 372.811 974.995 371.898C974.384 370.986 973.508 370.283 972.485 369.883C972.323 369.819 972.157 369.764 971.988 369.719L945.258 362.245L929.451 357.823L909.169 352.15C908.734 352.025 908.285 351.958 907.832 351.951C907.541 351.946 907.249 351.964 906.961 352.006L804.294 366.801C803.468 366.92 802.68 367.23 801.995 367.706C801.309 368.181 800.743 368.81 800.342 369.542C799.941 370.285 799.721 371.112 799.699 371.955L797.313 457.962C797.277 459.111 797.613 460.24 798.27 461.182C798.926 462.125 799.869 462.83 800.959 463.195Z" fill="#CACACA"/>
<path d="M800.342 369.543C800.411 369.59 800.487 369.626 800.567 369.649L830.508 378.377L839.829 381.093L866.34 388.818C866.416 388.839 866.493 388.85 866.572 388.853C866.625 388.853 866.679 388.85 866.733 388.844L974.584 371.361L974.943 371.303C975.176 371.264 975.385 371.134 975.523 370.941C975.662 370.749 975.718 370.509 975.68 370.275C975.642 370.041 975.513 369.832 975.321 369.693C975.129 369.554 974.89 369.496 974.655 369.533L972.485 369.884L866.643 387.042L843.794 380.384L831.013 376.659L801.534 368.064L801.065 367.93C800.863 367.872 800.647 367.888 800.454 367.973C800.262 368.059 800.106 368.209 800.013 368.398C799.989 368.443 799.97 368.491 799.957 368.54C799.904 368.726 799.913 368.925 799.983 369.106C800.052 369.286 800.178 369.44 800.342 369.543Z" fill="#CACACA"/>
<path d="M863.765 486.233C864.001 486.238 864.229 486.149 864.399 485.987C864.57 485.824 864.669 485.601 864.676 485.365L867.482 387.984C867.489 387.747 867.401 387.517 867.239 387.345C867.076 387.172 866.852 387.072 866.615 387.065L866.606 387.064C866.371 387.06 866.143 387.148 865.972 387.311C865.802 387.473 865.702 387.697 865.695 387.932L862.889 485.314C862.882 485.551 862.97 485.781 863.133 485.953C863.296 486.125 863.52 486.226 863.757 486.233L863.765 486.233Z" fill="#CACACA"/>
<path d="M828.637 473.69L837.958 476.406L843.795 380.383L944.965 362.311C945.064 362.295 945.162 362.273 945.259 362.245C946.037 362.04 946.723 361.576 947.203 360.93L933.512 357.098L929.452 357.823L833.455 374.966C832.95 375.055 832.47 375.253 832.049 375.545C831.628 375.837 831.275 376.217 831.014 376.658C830.706 377.171 828.656 473.071 828.637 473.69Z" fill="#CACACA"/>
<path d="M929.696 450.612C929.807 450.614 929.918 450.604 930.027 450.582L961.159 444.192C961.548 444.111 961.889 443.88 962.108 443.548C962.327 443.216 962.405 442.81 962.325 442.421C962.245 442.032 962.014 441.69 961.682 441.471C961.351 441.252 960.946 441.173 960.556 441.252L929.425 447.642C929.063 447.717 928.742 447.921 928.522 448.218C928.302 448.514 928.199 448.881 928.232 449.248C928.266 449.616 928.434 449.958 928.704 450.21C928.974 450.461 929.327 450.605 929.696 450.612Z" fill="white"/>
<path d="M844.575 338.711C844.561 336.474 843.755 334.315 842.3 332.616C840.846 330.917 838.837 329.788 836.629 329.429L700.815 307.127C699.513 306.911 698.18 306.971 696.901 307.301L665.072 315.531L646.81 320.259L613.107 328.971C611.073 329.499 609.271 330.688 607.985 332.351C606.699 334.013 606.001 336.055 606 338.158V480.472C606.01 482.641 606.76 484.743 608.125 486.429C609.491 488.115 611.39 489.285 613.511 489.745L751.847 488.179C752.497 488.318 753.159 488.387 753.824 488.384C754.792 488.386 755.754 488.24 756.678 487.95L838.867 489.995C840.806 489.389 842.499 488.175 843.694 486.531C844.889 484.888 845.522 482.903 845.5 480.871L844.575 338.711Z" fill="white"/>
<path d="M844.575 338.711C844.561 336.474 843.755 334.315 842.3 332.616C840.846 330.917 838.837 329.788 836.629 329.429L700.815 307.127C699.513 306.911 698.18 306.971 696.901 307.301L665.072 315.531L646.81 320.259L613.107 328.971C611.073 329.499 609.271 330.688 607.985 332.351C606.699 334.013 606.001 336.055 606 338.158V480.472C606.01 482.641 606.76 484.743 608.125 486.429C609.491 488.115 611.39 489.285 613.511 489.745L751.847 488.179C752.497 488.318 753.159 488.387 753.824 488.384C754.792 488.386 755.754 488.24 756.678 487.95L838.867 489.995C840.806 489.389 842.499 488.175 843.694 486.531C844.889 484.888 845.522 482.903 845.5 480.871L844.575 338.711ZM838.155 487.734L755.966 489.689C754.794 490.054 753.547 490.114 752.345 489.862L614.001 487.429C612.411 487.082 610.987 486.204 609.964 484.939C608.941 483.675 608.379 482.099 608.372 480.472V338.158C608.373 336.701 608.821 335.279 609.655 334.085C610.489 332.89 611.669 331.98 613.036 331.477C613.253 331.396 613.475 331.327 613.7 331.271L649.356 322.053L670.441 316.598L697.494 309.602C698.075 309.447 698.673 309.37 699.273 309.372C699.66 309.372 700.046 309.404 700.427 309.467L836.242 331.77C837.335 331.949 838.371 332.38 839.268 333.029C840.166 333.678 840.9 334.527 841.412 335.509C841.925 336.504 842.196 337.607 842.203 338.727L843.128 480.887C843.145 482.411 842.671 483.9 841.775 485.134C840.879 486.367 839.61 487.278 838.155 487.734Z" fill="#CCCCCC"/>
<path d="M841.412 335.509C841.32 335.569 841.219 335.615 841.112 335.643L801.164 346.442L788.728 349.802L753.357 359.36C753.256 359.385 753.153 359.399 753.049 359.4C752.977 359.399 752.906 359.393 752.835 359.384L610.214 333.382L609.739 333.295C609.43 333.237 609.157 333.059 608.979 332.8C608.801 332.541 608.732 332.222 608.789 331.912C608.845 331.603 609.022 331.329 609.28 331.149C609.538 330.97 609.857 330.9 610.166 330.955L613.036 331.476L753.001 356.997L783.486 348.759L800.539 344.15L839.871 333.516L840.495 333.35C840.765 333.279 841.052 333.305 841.305 333.423C841.557 333.542 841.761 333.745 841.879 333.999C841.909 334.059 841.933 334.123 841.95 334.188C842.015 334.437 841.998 334.7 841.901 334.938C841.804 335.176 841.633 335.376 841.412 335.509Z" fill="#CCCCCC"/>
<path d="M754.235 488.661C753.585 488.661 753.055 488.137 753.049 491.486L751.863 362.225C751.857 357.57 752.384 357.034 753.038 357.028H753.049C753.699 357.028 754.229 357.552 754.235 362.203L755.421 491.464C755.427 488.119 754.901 488.654 754.246 488.661H754.235Z" fill="#CCCCCC"/>
<path d="M801.501 490.161L788.728 490.297L783.487 348.76L649.744 322.148C649.613 322.125 649.483 322.094 649.356 322.054C648.329 321.761 647.431 321.128 646.811 320.259L665.073 315.531L670.441 316.599L797.346 341.842C798.013 341.974 798.644 342.248 799.195 342.647C799.747 343.045 800.205 343.558 800.54 344.15C800.935 344.838 801.493 489.339 801.501 490.161Z" fill="#CCCCCC"/>
<path d="M647.195 420.397C647.086 420.42 646.975 420.431 646.863 420.429L615.087 419.894C614.69 419.886 614.312 419.721 614.036 419.436C613.76 419.15 613.609 418.766 613.615 418.369C613.622 417.971 613.786 417.593 614.071 417.317C614.357 417.04 614.74 416.888 615.137 416.894L646.913 417.429C647.282 417.435 647.636 417.577 647.907 417.828C648.177 418.078 648.346 418.42 648.381 418.787C648.416 419.154 648.314 419.522 648.096 419.819C647.877 420.116 647.556 420.322 647.195 420.397Z" fill="#E6E6E6"/>
<path d="M658.195 437.397C658.086 437.42 657.975 437.431 657.863 437.429L626.087 436.894C625.69 436.886 625.312 436.721 625.036 436.436C624.76 436.15 624.609 435.766 624.615 435.369C624.622 434.971 624.786 434.593 625.071 434.317C625.357 434.04 625.74 433.888 626.137 433.894L657.913 434.429C658.282 434.435 658.636 434.577 658.907 434.828C659.177 435.078 659.346 435.42 659.381 435.787C659.416 436.154 659.314 436.522 659.096 436.819C658.877 437.116 658.556 437.322 658.195 437.397Z" fill="#E6E6E6"/>
</svg>
