<svg width="1439" height="792" viewBox="0 0 1439 792" fill="none" xmlns="http://www.w3.org/2000/svg">
<path d="M542.831 115.079C546.409 101.164 553.331 88.7956 562.745 79.4955C572.158 70.1953 583.653 64.3687 595.816 62.7322C596.091 62.6862 596.352 62.747 596.626 62.726C596.979 62.5975 597.34 62.4987 597.705 62.4303C655.579 53.5387 722.385 86.4428 746.506 151.667C752.391 142.127 760.141 134.434 769.087 129.252C778.032 124.07 787.905 121.554 797.851 121.923C810.677 122.939 822.927 128.629 832.935 138.218C842.943 147.807 850.221 160.83 853.78 175.513C854.159 177.31 854.046 179.204 853.459 180.92C852.871 182.636 851.839 184.085 850.513 185.057C846.69 188.908 842.162 191.64 837.291 193.035C826.781 195.682 816.233 198.107 805.648 200.31C784.993 204.606 764.23 208.08 743.36 210.732C700.994 216.129 658.366 218.044 615.779 216.464C601.595 215.939 587.916 215.379 574.92 207.937C565.466 202.386 557.388 194.007 551.481 183.623C545.916 173.642 542.258 162.333 540.763 150.491C539.269 138.649 539.975 126.562 542.831 115.079Z" fill="#F0F0F0"/>
<path d="M1436.17 236.079C1432.59 222.164 1425.67 209.796 1416.26 200.495C1406.84 191.195 1395.35 185.369 1383.18 183.732C1382.91 183.686 1382.65 183.747 1382.37 183.726C1382.02 183.597 1381.66 183.499 1381.29 183.43C1323.42 174.539 1256.61 207.443 1232.49 272.667C1226.61 263.127 1218.86 255.434 1209.91 250.252C1200.97 245.07 1191.1 242.554 1181.15 242.923C1168.32 243.939 1156.07 249.629 1146.06 259.218C1136.06 268.807 1128.78 281.83 1125.22 296.513C1124.84 298.31 1124.95 300.204 1125.54 301.92C1126.13 303.636 1127.16 305.085 1128.49 306.057C1132.31 309.908 1136.84 312.64 1141.71 314.035C1152.22 316.682 1162.77 319.107 1173.35 321.31C1194.01 325.606 1214.77 329.08 1235.64 331.732C1278.01 337.129 1320.63 339.044 1363.22 337.464C1377.4 336.939 1391.08 336.379 1404.08 328.937C1413.53 323.386 1421.61 315.007 1427.52 304.623C1433.08 294.642 1436.74 283.333 1438.24 271.491C1439.73 259.649 1439.03 247.562 1436.17 236.079Z" fill="#F0F0F0"/>
<path d="M420.484 77.6518C416.04 57.6711 407.443 39.9115 395.75 26.5573C384.058 13.2031 369.781 4.83674 354.674 2.4873C354.333 2.42109 354.009 2.50849 353.669 2.47837C353.23 2.29381 352.781 2.15193 352.327 2.05379C280.446 -10.7137 197.47 36.5335 167.512 130.188C160.203 116.491 150.577 105.444 139.466 98.0032C128.355 90.5622 116.093 86.9502 103.739 87.4792C87.8094 88.9381 72.5939 97.1082 60.1639 110.877C47.7339 124.646 38.6935 143.345 34.2733 164.428C33.8028 167.009 33.9424 169.728 34.672 172.193C35.4016 174.657 36.6834 176.737 38.3313 178.133C43.079 183.663 48.7034 187.586 54.7536 189.589C67.8077 193.39 80.9084 196.872 94.0554 200.035C119.71 206.204 145.497 211.193 171.419 214.999C224.039 222.749 276.985 225.499 329.88 223.231C347.497 222.476 364.486 221.673 380.627 210.988C392.371 203.016 402.403 190.985 409.74 176.074C416.652 161.742 421.196 145.504 423.052 128.5C424.908 111.496 424.032 94.1401 420.484 77.6518Z" fill="#F0F0F0"/>
<path d="M163.716 329.819L146.686 315.193L242.061 223.788H483.906V304.225L327.219 417.568L163.716 329.819Z" fill="#2B426D"/>
<path d="M528 275.061V225.613H495.891V237.724L483.906 223.787L405.561 315.192L374.906 337.13L327.372 709.895L399.058 786.841H565.657C591.184 649.011 611.426 507.42 565.657 318.848L528 275.061Z" fill="#CCCCCC"/>
<path d="M146.684 315.193H405.562V786.842H146.684C118.356 603.61 104.521 433.688 146.684 315.193Z" fill="#F2F2F2"/>
<path d="M478.796 338.958V320.678H458.359V338.958H477.094H478.796Z" fill="#2B426D"/>
<path d="M477.094 353.584H458.359V371.864H478.796V353.584H477.094Z" fill="#2B426D"/>
<path d="M512.86 320.677H492.422V338.958H512.86V320.677Z" fill="#2B426D"/>
<path d="M512.86 353.583H492.422V371.863H512.86V353.583Z" fill="#2B426D"/>
<path d="M478.796 441.333V423.051H458.359V441.333H477.094H478.796Z" fill="#2B426D"/>
<path d="M477.094 455.958H458.359V474.237H478.796V455.958H477.094Z" fill="#2B426D"/>
<path d="M512.86 423.05H492.422V441.331H512.86V423.05Z" fill="#2B426D"/>
<path d="M512.86 455.956H492.422V474.237H512.86V455.956Z" fill="#2B426D"/>
<path d="M478.796 543.706V525.424H458.359V543.706H477.094H478.796Z" fill="#2B426D"/>
<path d="M477.094 558.331H458.359V576.61H478.796V558.331H477.094Z" fill="#2B426D"/>
<path d="M512.86 525.424H492.422V543.705H512.86V525.424Z" fill="#2B426D"/>
<path d="M512.86 558.33H492.422V576.611H512.86V558.33Z" fill="#2B426D"/>
<path d="M175.638 338.958H373.202V382.832C309.877 364.074 243.84 365.419 175.638 382.832V338.958Z" fill="#2B426D"/>
<path d="M175.638 426.707C237.3 446.206 303.155 446.206 373.202 426.707V470.581H175.638V426.707Z" fill="#2B426D"/>
<path d="M175.638 514.455H373.202V558.33C305.873 535.253 239.948 534.165 175.638 558.33V514.455Z" fill="#2B426D"/>
<path d="M304.077 123H333.434C362.39 123 390.159 135.346 410.634 157.323C431.109 179.3 442.611 209.107 442.611 240.187H304.077V123Z" fill="#2B426D"/>
<path d="M592.22 575.572H587.28V785.016H592.22V575.572Z" fill="#2B426D"/>
<path d="M271.276 235.116L485.853 223.849L575.866 304.495L559.952 319.917L417.412 316.473L271.276 235.116Z" fill="#2B426D"/>
<path d="M527.716 329.819L510.686 315.193L606.061 223.788H847.906V304.225L691.219 417.568L527.716 329.819Z" fill="#2B426D"/>
<path d="M892 275.061V225.613H859.891V237.724L847.906 223.787L769.561 315.192L738.906 337.13L691.372 709.895L763.058 786.841H929.657C955.184 649.011 975.426 507.42 929.657 318.848L892 275.061Z" fill="#CCCCCC"/>
<path d="M510.684 315.193H769.562V786.842H510.684C482.356 603.61 468.521 433.688 510.684 315.193Z" fill="#F2F2F2"/>
<path d="M842.796 338.958V320.678H822.359V338.958H841.094H842.796Z" fill="#2B426D"/>
<path d="M841.094 353.584H822.359V371.864H842.796V353.584H841.094Z" fill="#2B426D"/>
<path d="M876.86 320.677H856.422V338.958H876.86V320.677Z" fill="#2B426D"/>
<path d="M876.86 353.583H856.422V371.863H876.86V353.583Z" fill="#2B426D"/>
<path d="M842.796 441.333V423.051H822.359V441.333H841.094H842.796Z" fill="#2B426D"/>
<path d="M841.094 455.958H822.359V474.237H842.796V455.958H841.094Z" fill="#2B426D"/>
<path d="M876.86 423.05H856.422V441.331H876.86V423.05Z" fill="#2B426D"/>
<path d="M876.86 455.956H856.422V474.237H876.86V455.956Z" fill="#2B426D"/>
<path d="M842.796 543.706V525.424H822.359V543.706H841.094H842.796Z" fill="#2B426D"/>
<path d="M841.094 558.331H822.359V576.61H842.796V558.331H841.094Z" fill="#2B426D"/>
<path d="M876.86 525.424H856.422V543.705H876.86V525.424Z" fill="#2B426D"/>
<path d="M876.86 558.33H856.422V576.611H876.86V558.33Z" fill="#2B426D"/>
<path d="M539.638 338.958H737.202V382.832C673.877 364.074 607.84 365.419 539.638 382.832V338.958Z" fill="#2B426D"/>
<path d="M539.638 426.707C601.3 446.206 667.155 446.206 737.202 426.707V470.581H539.638V426.707Z" fill="#2B426D"/>
<path d="M539.638 514.455H737.202V558.33C669.873 535.253 603.948 534.165 539.638 558.33V514.455Z" fill="#2B426D"/>
<path d="M668.077 123H697.434C726.39 123 754.159 135.346 774.634 157.323C795.109 179.3 806.611 209.107 806.611 240.187H668.077V123Z" fill="#2B426D"/>
<path d="M956.22 575.572H951.28V785.016H956.22V575.572Z" fill="#2B426D"/>
<path d="M635.276 235.116L849.853 223.849L939.866 304.495L923.952 319.917L781.412 316.473L635.276 235.116Z" fill="#2B426D"/>
<path d="M1437.46 785H42.538C42.1301 785 41.7389 784.895 41.4505 784.707C41.162 784.52 41 784.265 41 784C41 783.735 41.162 783.48 41.4505 783.293C41.7389 783.105 42.1301 783 42.538 783H1437.46C1437.87 783 1438.26 783.105 1438.55 783.293C1438.84 783.48 1439 783.735 1439 784C1439 784.265 1438.84 784.52 1438.55 784.707C1438.26 784.895 1437.87 785 1437.46 785Z" fill="#CCCCCC"/>
<path d="M1335.11 729.19L1339 725.511L1338.41 723.484L1335.08 726.627L1334.83 700.842V700.839L1334.83 700.293V700.196L1334.7 686.968L1334.52 668.325L1334.38 654H1334.31L1334.17 667.222V667.225L1333.97 686.729L1333.83 700.187L1333.83 700.299L1333.79 704.139L1333.01 781.164L1333 781.673L1335.63 783L1335.63 782.487L1335.11 729.19Z" fill="white"/>
<path d="M1390.67 604.242C1390.16 612.847 1388.01 621.262 1384.34 628.999C1377.27 643.801 1364.87 655.024 1349.41 659.211C1349.39 659.225 1349.36 659.231 1349.33 659.228C1345.44 660.278 1341.45 660.867 1337.43 660.983H1337.09C1336.67 661 1336.25 661 1335.83 661C1335.55 661 1335.26 661 1334.98 660.983C1320.59 660.753 1306.86 654.674 1296.76 644.058C1286.66 633.442 1281 619.141 1281 604.242V603.617C1281.03 599.994 1281.53 596.393 1282.51 592.915C1282.51 592.898 1282.53 592.88 1282.53 592.863C1284.35 586.818 1287.64 581.358 1292.08 577.001C1303.07 565.743 1320.48 558.673 1335.83 547.484C1369.47 522.988 1394.18 547.363 1390.67 604.242Z" fill="#E5E5E5"/>
<path opacity="0.2" d="M1384 629.456C1376.93 644.104 1364.51 655.21 1349.04 659.354C1349.01 659.368 1348.99 659.374 1348.96 659.371C1345.07 660.357 1341.1 660.899 1337.1 660.987H1336.71C1336 661.004 1335.3 661.004 1334.59 660.987C1320.15 660.618 1306.43 654.444 1296.4 643.801C1286.37 633.157 1280.84 618.9 1281 604.115C1281.05 600.633 1281.41 597.163 1282.08 593.748C1282.08 593.731 1282.1 593.714 1282.1 593.697C1283.92 587.715 1287.21 582.311 1291.65 578C1290.16 585.285 1290.1 592.801 1291.47 600.111C1292.84 607.421 1295.62 614.38 1299.64 620.582C1303.66 626.784 1308.85 632.106 1314.9 636.238C1320.95 640.371 1327.74 643.232 1334.88 644.654C1335.4 644.758 1335.92 644.861 1336.44 644.947C1337.95 645.205 1339.47 645.394 1340.99 645.514C1348.87 646.168 1356.79 645.072 1364.21 642.3C1371.64 639.529 1378.39 635.147 1384 629.456Z" fill="black"/>
<path d="M1111.13 719.679C1113.94 711.989 1118.75 705.332 1124.97 700.525C1131.19 695.719 1138.55 692.973 1146.13 692.625C1146.31 692.612 1146.46 692.659 1146.63 692.66C1146.86 692.604 1147.08 692.566 1147.31 692.544C1183.46 690.266 1223.31 712.019 1235.38 750.002C1239.43 744.893 1244.55 740.915 1250.3 738.413C1256.06 735.91 1262.26 734.957 1268.39 735.637C1276.27 736.819 1283.6 740.614 1289.36 746.504C1295.13 752.395 1299.06 760.095 1300.63 768.557C1300.78 769.59 1300.63 770.655 1300.19 771.596C1299.76 772.537 1297.83 775.514 1296.97 776C1294.44 777.994 1290.97 779.5 1289.36 780.281C1287.76 781.062 1281.82 783.214 1268.39 783.214C1254.97 783.214 1243.9 783.214 1230.88 783.214C1209.97 783.214 1180.47 782 1152.97 780.281C1144.23 779.311 1134.64 778.468 1126.93 773.648C1121.33 770.065 1116.7 764.949 1113.5 758.804C1110.5 752.902 1108.73 746.341 1108.32 739.582C1107.91 732.823 1108.86 726.029 1111.13 719.679Z" fill="#F0F0F0"/>
<path d="M1145.43 73.25C756.677 -83.1702 282.54 69.3262 8.79311 381.265C7.23702 383.015 5.68095 384.791 4.17426 386.567H0C1.43259 384.791 2.91454 383.015 4.37183 381.265C283.8 45.598 751.638 -88.1808 1145.43 73.25Z" fill="#2B426D"/>
<path d="M900.03 352.68L887 338.792L959.97 252H1145V328.377L1025.12 436L900.03 352.68Z" fill="#2B426D"/>
<path d="M1178.38 300.537V253.729H1153.83V265.193L1144.67 252L1084.77 338.526L1061.34 359.294L1025 712.162L1079.8 785H1207.16C1226.68 654.527 1242.15 520.494 1207.16 341.987L1178.38 300.537Z" fill="#CCCCCC"/>
<path d="M887.371 339H1085V785H887.371C865.745 611.733 855.183 451.052 887.371 339Z" fill="#F2F2F2"/>
<path d="M1141 361V344H1125V361H1139.67H1141Z" fill="#2B426D"/>
<path d="M1139.67 375H1125V392H1141V375H1139.67Z" fill="#2B426D"/>
<path d="M1167 344H1151V361H1167V344Z" fill="#2B426D"/>
<path d="M1167 375H1151V392H1167V375Z" fill="#2B426D"/>
<path d="M1141 458V441H1125V458H1139.67H1141Z" fill="#2B426D"/>
<path d="M1139.67 472H1125V489H1141V472H1139.67Z" fill="#2B426D"/>
<path d="M1167 441H1151V458H1167V441Z" fill="#2B426D"/>
<path d="M1167 472H1151V489H1167V472Z" fill="#2B426D"/>
<path d="M1141 555V538H1125V555H1139.67H1141Z" fill="#2B426D"/>
<path d="M1139.67 569H1125V586H1141V569H1139.67Z" fill="#2B426D"/>
<path d="M1167 538H1151V555H1167V538Z" fill="#2B426D"/>
<path d="M1167 569H1151V586H1167V569Z" fill="#2B426D"/>
<path d="M909 361H1060V403C1011.6 385.043 961.128 386.331 909 403V361Z" fill="#2B426D"/>
<path d="M909 444C956.129 462.667 1006.46 462.667 1060 444V486H909V444Z" fill="#2B426D"/>
<path d="M909 527H1060V569C1008.54 546.909 958.153 545.868 909 569V527Z" fill="#2B426D"/>
<path d="M1008 157H1030.25C1052.2 157 1073.25 168.695 1088.76 189.511C1104.28 210.328 1113 238.561 1113 268H1008V157Z" fill="#2B426D"/>
<path d="M982 262.673L1146.14 252L1215 328.392L1202.83 343L1093.79 339.738L982 262.673Z" fill="#2B426D"/>
<path d="M237 630C237 608.461 254.461 591 276 591V591C297.539 591 315 608.461 315 630V787H237V630Z" fill="#D9D9D9"/>
<path d="M601 630C601 608.461 618.461 591 640 591V591C661.539 591 679 608.461 679 630V787H601V630Z" fill="#D9D9D9"/>
<path d="M943 630C943 608.461 960.461 591 982 591V591C1003.54 591 1021 608.461 1021 630V787H943V630Z" fill="#D9D9D9"/>
<path d="M58 617.402C58 618.779 58.0414 620.145 58.1242 621.499C58.5886 629.31 60.4192 636.955 63.5198 644.033C63.5438 644.093 63.5721 644.149 63.596 644.205C63.7403 644.534 63.8886 644.862 64.0407 645.186C64.9628 647.187 65.9858 649.133 67.105 651.014C72.2176 659.65 79.2251 666.796 87.5083 671.82C95.7915 676.845 105.095 679.592 114.598 679.821L114.025 715.329L106.554 711.089L105.22 713.822L113.969 718.787L112.899 784.733L112.887 785.614L118.663 787L118.652 786.115L116.833 679.825C124.481 679.707 132.032 677.952 139.046 674.663C146.06 671.373 152.398 666.615 157.692 660.664C158.056 660.258 158.417 659.839 158.77 659.425L158.81 659.377C163.22 654.193 166.788 648.243 169.361 641.779C169.305 641.848 169.245 641.913 169.189 641.982C193.058 577.328 179.171 547.356 141.717 561.511C141.517 561.403 141.312 561.299 141.112 561.191C128.012 554.39 113.019 553.142 99.1055 557.695C85.1918 562.248 73.373 572.268 65.9916 585.771C65.6389 586.41 65.2984 587.062 64.97 587.718C60.3848 596.831 57.9887 607.036 58 617.402Z" fill="#E5E5E5"/>
</svg>
