<svg width="334" height="334" viewBox="0 0 334 334" fill="none" xmlns="http://www.w3.org/2000/svg">
<circle cx="167" cy="167" r="167" fill="#4364A1"/>
<line x1="71.1394" y1="108.647" x2="135.644" y2="57.6472" stroke="white" stroke-width="6"/>
<line x1="131.997" y1="57.7611" x2="168.997" y2="90.7611" stroke="white" stroke-width="6"/>
<line x1="217.142" y1="48.8998" x2="267.142" y2="99.8998" stroke="white" stroke-width="6"/>
<line x1="157.123" y1="100.001" x2="221.123" y2="48.6599" stroke="white" stroke-width="6"/>
<mask id="path-6-outside-1_35_17" maskUnits="userSpaceOnUse" x="114" y="118" width="93" height="83" fill="black">
<rect fill="white" x="114" y="118" width="93" height="83"/>
<path d="M170.453 139.859C171.547 137.891 172.844 136.016 174.344 134.234C175.844 132.453 177.484 130.812 179.266 129.312C176.516 129.062 173.781 128.703 171.062 128.234C168.375 127.734 165.703 127.25 163.047 126.781C160.422 126.312 157.828 125.906 155.266 125.562C152.703 125.219 150.188 125.047 147.719 125.047C144.938 125.047 142.594 125.297 140.688 125.797C138.781 126.297 137.219 127 136 127.906C134.812 128.781 133.953 129.844 133.422 131.094C132.891 132.344 132.625 133.734 132.625 135.266C132.625 136.797 132.859 138.125 133.328 139.25C133.797 140.375 134.469 141.312 135.344 142.062C136.219 142.781 137.25 143.328 138.438 143.703C139.656 144.047 141 144.219 142.469 144.219C143.469 144.219 144.516 144.141 145.609 143.984C146.703 143.828 147.781 143.609 148.844 143.328C149.938 143.016 151 142.656 152.031 142.25C153.062 141.844 154.016 141.391 154.891 140.891L155.828 142.016C153.766 143.203 151.547 144.125 149.172 144.781C146.797 145.438 144.531 145.766 142.375 145.766C140.562 145.766 138.938 145.531 137.5 145.062C136.062 144.562 134.828 143.859 133.797 142.953C132.797 142.047 132.031 140.938 131.5 139.625C130.969 138.312 130.703 136.828 130.703 135.172C130.703 130.766 132.547 127.391 136.234 125.047C139.953 122.703 145.312 121.531 152.312 121.531C155.125 121.531 157.875 121.703 160.562 122.047C163.281 122.391 165.984 122.781 168.672 123.219C171.391 123.625 174.125 124.016 176.875 124.391C179.625 124.766 182.453 125 185.359 125.094C187.891 123.656 190.484 122.531 193.141 121.719C195.797 120.906 198.438 120.5 201.062 120.5C202.406 120.5 203.312 120.625 203.781 120.875C204.281 121.125 204.531 121.594 204.531 122.281C204.531 123.312 204.047 124.281 203.078 125.188C202.109 126.062 200.766 126.828 199.047 127.484C197.359 128.141 195.344 128.656 193 129.031C190.656 129.406 188.125 129.594 185.406 129.594C184.969 129.594 184.531 129.594 184.094 129.594C183.656 129.594 183.219 129.578 182.781 129.547C182.344 129.984 181.938 130.422 181.562 130.859C181.219 131.297 180.891 131.75 180.578 132.219C180.297 132.625 180.016 133.109 179.734 133.672C179.453 134.203 179.125 134.906 178.75 135.781C178.375 136.625 177.938 137.688 177.438 138.969C176.938 140.25 176.328 141.859 175.609 143.797C174.922 145.703 174.094 147.984 173.125 150.641C172.156 153.266 171.031 156.359 169.75 159.922C167.25 166.766 164.703 172.656 162.109 177.594C159.547 182.5 156.812 186.531 153.906 189.688C151 192.812 147.875 195.125 144.531 196.625C141.188 198.094 137.5 198.828 133.469 198.828C128.156 198.828 124.062 197.656 121.188 195.312C118.344 192.969 116.922 189.609 116.922 185.234C116.922 183.641 117.109 182.141 117.484 180.734C117.859 179.328 118.359 178.094 118.984 177.031C119.609 175.969 120.328 175.125 121.141 174.5C121.984 173.875 122.875 173.562 123.812 173.562C124.625 173.562 125.25 173.812 125.688 174.312C126.156 174.781 126.391 175.469 126.391 176.375C126.391 176.812 126.312 177.188 126.156 177.5C126.031 177.812 125.797 178.094 125.453 178.344C125.109 178.594 124.641 178.859 124.047 179.141C123.453 179.422 122.703 179.75 121.797 180.125C120.891 180.531 120.219 181.109 119.781 181.859C119.344 182.578 119.125 183.734 119.125 185.328C119.125 189.172 120.281 192.078 122.594 194.047C124.906 195.984 128.406 196.953 133.094 196.953C135 196.953 136.75 196.797 138.344 196.484C139.938 196.172 141.422 195.609 142.797 194.797C144.203 193.953 145.531 192.812 146.781 191.375C148.062 189.938 149.344 188.109 150.625 185.891C151.938 183.672 153.281 181.016 154.656 177.922C156.062 174.828 157.594 171.188 159.25 167C160.625 163.469 161.812 160.422 162.812 157.859C163.844 155.297 164.719 153.109 165.438 151.297C166.188 149.453 166.812 147.922 167.312 146.703C167.812 145.484 168.234 144.453 168.578 143.609C168.953 142.766 169.281 142.062 169.562 141.5C169.844 140.938 170.141 140.391 170.453 139.859ZM200.828 121.812C198.859 121.812 196.859 122.109 194.828 122.703C192.797 123.297 190.844 124.094 188.969 125.094C190.75 125.031 192.469 124.922 194.125 124.766C195.812 124.578 197.312 124.359 198.625 124.109C199.938 123.859 200.984 123.594 201.766 123.312C202.547 123 202.938 122.688 202.938 122.375C202.938 122 202.234 121.812 200.828 121.812Z"/>
</mask>
<path d="M170.453 139.859C171.547 137.891 172.844 136.016 174.344 134.234C175.844 132.453 177.484 130.812 179.266 129.312C176.516 129.062 173.781 128.703 171.062 128.234C168.375 127.734 165.703 127.25 163.047 126.781C160.422 126.312 157.828 125.906 155.266 125.562C152.703 125.219 150.188 125.047 147.719 125.047C144.938 125.047 142.594 125.297 140.688 125.797C138.781 126.297 137.219 127 136 127.906C134.812 128.781 133.953 129.844 133.422 131.094C132.891 132.344 132.625 133.734 132.625 135.266C132.625 136.797 132.859 138.125 133.328 139.25C133.797 140.375 134.469 141.312 135.344 142.062C136.219 142.781 137.25 143.328 138.438 143.703C139.656 144.047 141 144.219 142.469 144.219C143.469 144.219 144.516 144.141 145.609 143.984C146.703 143.828 147.781 143.609 148.844 143.328C149.938 143.016 151 142.656 152.031 142.25C153.062 141.844 154.016 141.391 154.891 140.891L155.828 142.016C153.766 143.203 151.547 144.125 149.172 144.781C146.797 145.438 144.531 145.766 142.375 145.766C140.562 145.766 138.938 145.531 137.5 145.062C136.062 144.562 134.828 143.859 133.797 142.953C132.797 142.047 132.031 140.938 131.5 139.625C130.969 138.312 130.703 136.828 130.703 135.172C130.703 130.766 132.547 127.391 136.234 125.047C139.953 122.703 145.312 121.531 152.312 121.531C155.125 121.531 157.875 121.703 160.562 122.047C163.281 122.391 165.984 122.781 168.672 123.219C171.391 123.625 174.125 124.016 176.875 124.391C179.625 124.766 182.453 125 185.359 125.094C187.891 123.656 190.484 122.531 193.141 121.719C195.797 120.906 198.438 120.5 201.062 120.5C202.406 120.5 203.312 120.625 203.781 120.875C204.281 121.125 204.531 121.594 204.531 122.281C204.531 123.312 204.047 124.281 203.078 125.188C202.109 126.062 200.766 126.828 199.047 127.484C197.359 128.141 195.344 128.656 193 129.031C190.656 129.406 188.125 129.594 185.406 129.594C184.969 129.594 184.531 129.594 184.094 129.594C183.656 129.594 183.219 129.578 182.781 129.547C182.344 129.984 181.938 130.422 181.562 130.859C181.219 131.297 180.891 131.75 180.578 132.219C180.297 132.625 180.016 133.109 179.734 133.672C179.453 134.203 179.125 134.906 178.75 135.781C178.375 136.625 177.938 137.688 177.438 138.969C176.938 140.25 176.328 141.859 175.609 143.797C174.922 145.703 174.094 147.984 173.125 150.641C172.156 153.266 171.031 156.359 169.75 159.922C167.25 166.766 164.703 172.656 162.109 177.594C159.547 182.5 156.812 186.531 153.906 189.688C151 192.812 147.875 195.125 144.531 196.625C141.188 198.094 137.5 198.828 133.469 198.828C128.156 198.828 124.062 197.656 121.188 195.312C118.344 192.969 116.922 189.609 116.922 185.234C116.922 183.641 117.109 182.141 117.484 180.734C117.859 179.328 118.359 178.094 118.984 177.031C119.609 175.969 120.328 175.125 121.141 174.5C121.984 173.875 122.875 173.562 123.812 173.562C124.625 173.562 125.25 173.812 125.688 174.312C126.156 174.781 126.391 175.469 126.391 176.375C126.391 176.812 126.312 177.188 126.156 177.5C126.031 177.812 125.797 178.094 125.453 178.344C125.109 178.594 124.641 178.859 124.047 179.141C123.453 179.422 122.703 179.75 121.797 180.125C120.891 180.531 120.219 181.109 119.781 181.859C119.344 182.578 119.125 183.734 119.125 185.328C119.125 189.172 120.281 192.078 122.594 194.047C124.906 195.984 128.406 196.953 133.094 196.953C135 196.953 136.75 196.797 138.344 196.484C139.938 196.172 141.422 195.609 142.797 194.797C144.203 193.953 145.531 192.812 146.781 191.375C148.062 189.938 149.344 188.109 150.625 185.891C151.938 183.672 153.281 181.016 154.656 177.922C156.062 174.828 157.594 171.188 159.25 167C160.625 163.469 161.812 160.422 162.812 157.859C163.844 155.297 164.719 153.109 165.438 151.297C166.188 149.453 166.812 147.922 167.312 146.703C167.812 145.484 168.234 144.453 168.578 143.609C168.953 142.766 169.281 142.062 169.562 141.5C169.844 140.938 170.141 140.391 170.453 139.859ZM200.828 121.812C198.859 121.812 196.859 122.109 194.828 122.703C192.797 123.297 190.844 124.094 188.969 125.094C190.75 125.031 192.469 124.922 194.125 124.766C195.812 124.578 197.312 124.359 198.625 124.109C199.938 123.859 200.984 123.594 201.766 123.312C202.547 123 202.938 122.688 202.938 122.375C202.938 122 202.234 121.812 200.828 121.812Z" fill="white"/>
<path d="M170.453 139.859L172.177 140.873L172.189 140.852L172.201 140.831L170.453 139.859ZM179.266 129.312L180.554 130.842L184.22 127.755L179.447 127.321L179.266 129.312ZM171.062 128.234L170.697 130.201L170.71 130.203L170.723 130.205L171.062 128.234ZM163.047 126.781L162.695 128.75L162.699 128.751L163.047 126.781ZM136 127.906L137.186 129.516L137.193 129.511L136 127.906ZM135.344 142.062L134.042 143.581L134.058 143.595L134.074 143.608L135.344 142.062ZM138.438 143.703L137.835 145.61L137.865 145.62L137.895 145.628L138.438 143.703ZM148.844 143.328L149.356 145.262L149.374 145.257L149.393 145.251L148.844 143.328ZM154.891 140.891L156.427 139.61L155.354 138.322L153.898 139.154L154.891 140.891ZM155.828 142.016L156.826 143.749L158.887 142.562L157.365 140.735L155.828 142.016ZM137.5 145.062L136.843 146.951L136.861 146.958L136.88 146.964L137.5 145.062ZM133.797 142.953L132.454 144.435L132.465 144.445L132.477 144.455L133.797 142.953ZM136.234 125.047L135.168 123.355L135.162 123.359L136.234 125.047ZM160.562 122.047L160.309 124.031L160.312 124.031L160.562 122.047ZM168.672 123.219L168.351 125.193L168.363 125.195L168.376 125.197L168.672 123.219ZM185.359 125.094L185.295 127.093L185.858 127.111L186.347 126.833L185.359 125.094ZM203.781 120.875L202.84 122.64L202.863 122.652L202.887 122.664L203.781 120.875ZM203.078 125.188L204.419 126.672L204.432 126.66L204.444 126.648L203.078 125.188ZM199.047 127.484L198.333 125.616L198.322 125.62L199.047 127.484ZM182.781 129.547L182.924 127.552L182.013 127.487L181.367 128.133L182.781 129.547ZM181.562 130.859L180.044 129.558L180.016 129.59L179.99 129.624L181.562 130.859ZM180.578 132.219L182.223 133.357L182.232 133.343L182.242 133.328L180.578 132.219ZM179.734 133.672L181.502 134.608L181.513 134.587L181.523 134.566L179.734 133.672ZM178.75 135.781L180.578 136.594L180.583 136.581L180.588 136.569L178.75 135.781ZM175.609 143.797L173.734 143.101L173.731 143.11L173.728 143.118L175.609 143.797ZM173.125 150.641L175.001 151.333L175.004 151.326L173.125 150.641ZM169.75 159.922L171.629 160.608L171.632 160.599L169.75 159.922ZM162.109 177.594L160.339 176.664L160.337 176.668L162.109 177.594ZM153.906 189.688L155.371 191.05L155.378 191.042L153.906 189.688ZM144.531 196.625L145.336 198.456L145.343 198.453L145.35 198.45L144.531 196.625ZM121.188 195.312L119.915 196.856L119.924 196.863L121.188 195.312ZM121.141 174.5L119.95 172.893L119.936 172.904L119.921 172.915L121.141 174.5ZM125.688 174.312L124.182 175.63L124.226 175.68L124.273 175.727L125.688 174.312ZM126.156 177.5L124.367 176.606L124.33 176.68L124.299 176.757L126.156 177.5ZM121.797 180.125L121.032 178.277L121.005 178.288L120.979 178.3L121.797 180.125ZM119.781 181.859L121.49 182.899L121.499 182.883L121.509 182.867L119.781 181.859ZM122.594 194.047L121.297 195.57L121.303 195.575L121.309 195.58L122.594 194.047ZM142.797 194.797L143.814 196.519L143.826 196.512L142.797 194.797ZM146.781 191.375L145.288 190.044L145.28 190.053L145.272 190.063L146.781 191.375ZM150.625 185.891L148.904 184.872L148.898 184.881L148.893 184.89L150.625 185.891ZM154.656 177.922L152.836 177.094L152.832 177.102L152.829 177.11L154.656 177.922ZM159.25 167L161.11 167.736L161.114 167.726L159.25 167ZM162.812 157.859L160.957 157.113L160.953 157.122L160.949 157.132L162.812 157.859ZM165.438 151.297L163.585 150.543L163.582 150.551L163.578 150.56L165.438 151.297ZM168.578 143.609L166.751 142.797L166.738 142.826L166.726 142.855L168.578 143.609ZM188.969 125.094L188.028 123.329L189.039 127.093L188.969 125.094ZM194.125 124.766L194.313 126.757L194.329 126.755L194.346 126.753L194.125 124.766ZM201.766 123.312L202.443 125.194L202.476 125.182L202.508 125.169L201.766 123.312ZM170.453 139.859L172.201 140.831C173.231 138.978 174.454 137.209 175.874 135.523L174.344 134.234L172.814 132.946C171.234 134.822 169.863 136.803 168.705 138.888L170.453 139.859ZM174.344 134.234L175.874 135.523C177.3 133.829 178.86 132.269 180.554 130.842L179.266 129.312L177.977 127.783C176.109 129.356 174.387 131.078 172.814 132.946L174.344 134.234ZM179.266 129.312L179.447 127.321C176.75 127.076 174.068 126.723 171.402 126.263L171.062 128.234L170.723 130.205C173.494 130.683 176.281 131.049 179.085 131.304L179.266 129.312ZM171.062 128.234L171.428 126.268C168.735 125.767 166.057 125.282 163.394 124.812L163.047 126.781L162.699 128.751C165.349 129.218 168.015 129.702 170.697 130.201L171.062 128.234ZM163.047 126.781L163.398 124.812C160.746 124.339 158.124 123.928 155.532 123.58L155.266 125.562L155 127.545C157.533 127.885 160.098 128.286 162.695 128.75L163.047 126.781ZM155.266 125.562L155.532 123.58C152.885 123.225 150.281 123.047 147.719 123.047V125.047V127.047C150.094 127.047 152.521 127.212 155 127.545L155.266 125.562ZM147.719 125.047V123.047C144.83 123.047 142.304 123.305 140.18 123.862L140.688 125.797L141.195 127.731C142.883 127.289 145.045 127.047 147.719 127.047V125.047ZM140.688 125.797L140.18 123.862C138.096 124.409 136.282 125.204 134.807 126.301L136 127.906L137.193 129.511C138.156 128.796 139.466 128.185 141.195 127.731L140.688 125.797ZM136 127.906L134.814 126.296C133.363 127.365 132.264 128.704 131.581 130.311L133.422 131.094L135.263 131.876C135.642 130.984 136.262 130.198 137.186 129.516L136 127.906ZM133.422 131.094L131.581 130.311C130.932 131.839 130.625 133.5 130.625 135.266H132.625H134.625C134.625 133.969 134.849 132.849 135.263 131.876L133.422 131.094ZM132.625 135.266H130.625C130.625 136.996 130.889 138.597 131.482 140.019L133.328 139.25L135.174 138.481C134.83 137.653 134.625 136.598 134.625 135.266H132.625ZM133.328 139.25L131.482 140.019C132.064 141.416 132.916 142.616 134.042 143.581L135.344 142.062L136.645 140.544C136.022 140.009 135.53 139.334 135.174 138.481L133.328 139.25ZM135.344 142.062L134.074 143.608C135.165 144.504 136.429 145.166 137.835 145.61L138.438 143.703L139.04 141.796C138.071 141.49 137.272 141.058 136.613 140.517L135.344 142.062ZM138.438 143.703L137.895 145.628C139.316 146.029 140.845 146.219 142.469 146.219V144.219V142.219C141.155 142.219 139.997 142.065 138.98 141.778L138.438 143.703ZM142.469 144.219V146.219C143.573 146.219 144.714 146.133 145.892 145.964L145.609 143.984L145.327 142.004C144.317 142.149 143.365 142.219 142.469 142.219V144.219ZM145.609 143.984L145.892 145.964C147.063 145.797 148.217 145.563 149.356 145.262L148.844 143.328L148.332 141.395C147.345 141.656 146.344 141.859 145.327 142.004L145.609 143.984ZM148.844 143.328L149.393 145.251C150.547 144.921 151.671 144.541 152.764 144.111L152.031 142.25L151.298 140.389C150.329 140.771 149.328 141.11 148.294 141.405L148.844 143.328ZM152.031 142.25L152.764 144.111C153.876 143.673 154.917 143.179 155.883 142.627L154.891 140.891L153.898 139.154C153.114 139.602 152.249 140.015 151.298 140.389L152.031 142.25ZM154.891 140.891L153.354 142.171L154.292 143.296L155.828 142.016L157.365 140.735L156.427 139.61L154.891 140.891ZM155.828 142.016L154.83 140.282C152.919 141.383 150.857 142.241 148.639 142.853L149.172 144.781L149.705 146.709C152.236 146.009 154.612 145.024 156.826 143.749L155.828 142.016ZM149.172 144.781L148.639 142.853C146.413 143.468 144.328 143.766 142.375 143.766V145.766V147.766C144.735 147.766 147.18 147.407 149.705 146.709L149.172 144.781ZM142.375 145.766V143.766C140.733 143.766 139.322 143.553 138.12 143.161L137.5 145.062L136.88 146.964C138.553 147.509 140.392 147.766 142.375 147.766V145.766ZM137.5 145.062L138.157 143.174C136.937 142.749 135.934 142.169 135.117 141.451L133.797 142.953L132.477 144.455C133.722 145.55 135.188 146.376 136.843 146.951L137.5 145.062ZM133.797 142.953L135.14 141.471C134.374 140.777 133.778 139.922 133.354 138.875L131.5 139.625L129.646 140.375C130.285 141.953 131.22 143.317 132.454 144.435L133.797 142.953ZM131.5 139.625L133.354 138.875C132.934 137.837 132.703 136.614 132.703 135.172H130.703H128.703C128.703 137.042 129.003 138.788 129.646 140.375L131.5 139.625ZM130.703 135.172H132.703C132.703 131.443 134.203 128.708 137.307 126.735L136.234 125.047L135.162 123.359C130.891 126.073 128.703 130.088 128.703 135.172H130.703ZM136.234 125.047L137.301 126.739C140.563 124.683 145.486 123.531 152.312 123.531V121.531V119.531C145.139 119.531 139.343 120.724 135.168 123.355L136.234 125.047ZM152.312 121.531V123.531C155.043 123.531 157.709 123.698 160.309 124.031L160.562 122.047L160.816 120.063C158.041 119.708 155.207 119.531 152.312 119.531V121.531ZM160.562 122.047L160.312 124.031C163.007 124.372 165.687 124.759 168.351 125.193L168.672 123.219L168.993 121.245C166.282 120.803 163.556 120.409 160.813 120.063L160.562 122.047ZM168.672 123.219L168.376 125.197C171.104 125.604 173.846 125.996 176.605 126.372L176.875 124.391L177.145 122.409C174.404 122.035 171.678 121.646 168.967 121.241L168.672 123.219ZM176.875 124.391L176.605 126.372C179.426 126.757 182.323 126.997 185.295 127.093L185.359 125.094L185.424 123.095C182.583 123.003 179.824 122.774 177.145 122.409L176.875 124.391ZM185.359 125.094L186.347 126.833C188.757 125.464 191.216 124.399 193.726 123.631L193.141 121.719L192.556 119.806C189.753 120.664 187.024 121.848 184.372 123.355L185.359 125.094ZM193.141 121.719L193.726 123.631C196.203 122.873 198.647 122.5 201.062 122.5V120.5V118.5C198.228 118.5 195.39 118.939 192.556 119.806L193.141 121.719ZM201.062 120.5V122.5C201.681 122.5 202.145 122.529 202.477 122.575C202.84 122.625 202.912 122.678 202.84 122.64L203.781 120.875L204.722 119.11C204.182 118.822 203.566 118.687 203.023 118.613C202.448 118.533 201.788 118.5 201.062 118.5V120.5ZM203.781 120.875L202.887 122.664C202.846 122.643 202.787 122.607 202.726 122.547C202.663 122.488 202.614 122.42 202.579 122.355C202.511 122.227 202.531 122.172 202.531 122.281H204.531H206.531C206.531 121.046 206.022 119.759 204.676 119.086L203.781 120.875ZM204.531 122.281H202.531C202.531 122.611 202.399 123.084 201.712 123.727L203.078 125.188L204.444 126.648C205.695 125.478 206.531 124.014 206.531 122.281H204.531ZM203.078 125.188L201.738 123.703C201.011 124.36 199.909 125.015 198.333 125.616L199.047 127.484L199.76 129.353C201.623 128.642 203.208 127.765 204.419 126.672L203.078 125.188ZM199.047 127.484L198.322 125.62C196.8 126.212 194.928 126.697 192.684 127.056L193 129.031L193.316 131.006C195.759 130.615 197.919 130.069 199.772 129.348L199.047 127.484ZM193 129.031L192.684 127.056C190.459 127.412 188.034 127.594 185.406 127.594V129.594V131.594C188.216 131.594 190.854 131.4 193.316 131.006L193 129.031ZM185.406 129.594V127.594C185.405 127.594 185.405 127.594 185.404 127.594C185.403 127.594 185.402 127.594 185.401 127.594C185.4 127.594 185.399 127.594 185.399 127.594C185.398 127.594 185.397 127.594 185.396 127.594C185.395 127.594 185.394 127.594 185.393 127.594C185.393 127.594 185.392 127.594 185.391 127.594C185.39 127.594 185.389 127.594 185.388 127.594C185.387 127.594 185.387 127.594 185.386 127.594C185.385 127.594 185.384 127.594 185.383 127.594C185.382 127.594 185.381 127.594 185.381 127.594C185.38 127.594 185.379 127.594 185.378 127.594C185.377 127.594 185.376 127.594 185.375 127.594C185.375 127.594 185.374 127.594 185.373 127.594C185.372 127.594 185.371 127.594 185.37 127.594C185.37 127.594 185.369 127.594 185.368 127.594C185.367 127.594 185.366 127.594 185.365 127.594C185.364 127.594 185.364 127.594 185.363 127.594C185.362 127.594 185.361 127.594 185.36 127.594C185.359 127.594 185.358 127.594 185.358 127.594C185.357 127.594 185.356 127.594 185.355 127.594C185.354 127.594 185.353 127.594 185.352 127.594C185.352 127.594 185.351 127.594 185.35 127.594C185.349 127.594 185.348 127.594 185.347 127.594C185.346 127.594 185.346 127.594 185.345 127.594C185.344 127.594 185.343 127.594 185.342 127.594C185.341 127.594 185.34 127.594 185.34 127.594C185.339 127.594 185.338 127.594 185.337 127.594C185.336 127.594 185.335 127.594 185.334 127.594C185.334 127.594 185.333 127.594 185.332 127.594C185.331 127.594 185.33 127.594 185.329 127.594C185.328 127.594 185.328 127.594 185.327 127.594C185.326 127.594 185.325 127.594 185.324 127.594C185.323 127.594 185.323 127.594 185.322 127.594C185.321 127.594 185.32 127.594 185.319 127.594C185.318 127.594 185.317 127.594 185.317 127.594C185.316 127.594 185.315 127.594 185.314 127.594C185.313 127.594 185.312 127.594 185.311 127.594C185.311 127.594 185.31 127.594 185.309 127.594C185.308 127.594 185.307 127.594 185.306 127.594C185.305 127.594 185.305 127.594 185.304 127.594C185.303 127.594 185.302 127.594 185.301 127.594C185.3 127.594 185.299 127.594 185.299 127.594C185.298 127.594 185.297 127.594 185.296 127.594C185.295 127.594 185.294 127.594 185.293 127.594C185.293 127.594 185.292 127.594 185.291 127.594C185.29 127.594 185.289 127.594 185.288 127.594C185.287 127.594 185.287 127.594 185.286 127.594C185.285 127.594 185.284 127.594 185.283 127.594C185.282 127.594 185.281 127.594 185.281 127.594C185.28 127.594 185.279 127.594 185.278 127.594C185.277 127.594 185.276 127.594 185.276 127.594C185.275 127.594 185.274 127.594 185.273 127.594C185.272 127.594 185.271 127.594 185.27 127.594C185.27 127.594 185.269 127.594 185.268 127.594C185.267 127.594 185.266 127.594 185.265 127.594C185.264 127.594 185.264 127.594 185.263 127.594C185.262 127.594 185.261 127.594 185.26 127.594C185.259 127.594 185.258 127.594 185.258 127.594C185.257 127.594 185.256 127.594 185.255 127.594C185.254 127.594 185.253 127.594 185.252 127.594C185.252 127.594 185.251 127.594 185.25 127.594C185.249 127.594 185.248 127.594 185.247 127.594C185.246 127.594 185.246 127.594 185.245 127.594C185.244 127.594 185.243 127.594 185.242 127.594C185.241 127.594 185.24 127.594 185.24 127.594C185.239 127.594 185.238 127.594 185.237 127.594C185.236 127.594 185.235 127.594 185.234 127.594C185.234 127.594 185.233 127.594 185.232 127.594C185.231 127.594 185.23 127.594 185.229 127.594C185.229 127.594 185.228 127.594 185.227 127.594C185.226 127.594 185.225 127.594 185.224 127.594C185.223 127.594 185.223 127.594 185.222 127.594C185.221 127.594 185.22 127.594 185.219 127.594C185.218 127.594 185.217 127.594 185.217 127.594C185.216 127.594 185.215 127.594 185.214 127.594C185.213 127.594 185.212 127.594 185.211 127.594C185.211 127.594 185.21 127.594 185.209 127.594C185.208 127.594 185.207 127.594 185.206 127.594C185.205 127.594 185.205 127.594 185.204 127.594C185.203 127.594 185.202 127.594 185.201 127.594C185.2 127.594 185.199 127.594 185.199 127.594C185.198 127.594 185.197 127.594 185.196 127.594C185.195 127.594 185.194 127.594 185.193 127.594C185.193 127.594 185.192 127.594 185.191 127.594C185.19 127.594 185.189 127.594 185.188 127.594C185.188 127.594 185.187 127.594 185.186 127.594C185.185 127.594 185.184 127.594 185.183 127.594C185.182 127.594 185.182 127.594 185.181 127.594C185.18 127.594 185.179 127.594 185.178 127.594C185.177 127.594 185.176 127.594 185.176 127.594C185.175 127.594 185.174 127.594 185.173 127.594C185.172 127.594 185.171 127.594 185.17 127.594C185.17 127.594 185.169 127.594 185.168 127.594C185.167 127.594 185.166 127.594 185.165 127.594C185.164 127.594 185.164 127.594 185.163 127.594C185.162 127.594 185.161 127.594 185.16 127.594C185.159 127.594 185.158 127.594 185.158 127.594C185.157 127.594 185.156 127.594 185.155 127.594C185.154 127.594 185.153 127.594 185.152 127.594C185.152 127.594 185.151 127.594 185.15 127.594C185.149 127.594 185.148 127.594 185.147 127.594C185.146 127.594 185.146 127.594 185.145 127.594C185.144 127.594 185.143 127.594 185.142 127.594C185.141 127.594 185.141 127.594 185.14 127.594C185.139 127.594 185.138 127.594 185.137 127.594C185.136 127.594 185.135 127.594 185.135 127.594C185.134 127.594 185.133 127.594 185.132 127.594C185.131 127.594 185.13 127.594 185.129 127.594C185.129 127.594 185.128 127.594 185.127 127.594C185.126 127.594 185.125 127.594 185.124 127.594C185.123 127.594 185.123 127.594 185.122 127.594C185.121 127.594 185.12 127.594 185.119 127.594C185.118 127.594 185.117 127.594 185.117 127.594C185.116 127.594 185.115 127.594 185.114 127.594C185.113 127.594 185.112 127.594 185.111 127.594C185.111 127.594 185.11 127.594 185.109 127.594C185.108 127.594 185.107 127.594 185.106 127.594C185.105 127.594 185.105 127.594 185.104 127.594C185.103 127.594 185.102 127.594 185.101 127.594C185.1 127.594 185.099 127.594 185.099 127.594C185.098 127.594 185.097 127.594 185.096 127.594C185.095 127.594 185.094 127.594 185.094 127.594C185.093 127.594 185.092 127.594 185.091 127.594C185.09 127.594 185.089 127.594 185.088 127.594C185.088 127.594 185.087 127.594 185.086 127.594C185.085 127.594 185.084 127.594 185.083 127.594C185.082 127.594 185.082 127.594 185.081 127.594C185.08 127.594 185.079 127.594 185.078 127.594C185.077 127.594 185.076 127.594 185.076 127.594C185.075 127.594 185.074 127.594 185.073 127.594C185.072 127.594 185.071 127.594 185.07 127.594C185.07 127.594 185.069 127.594 185.068 127.594C185.067 127.594 185.066 127.594 185.065 127.594C185.064 127.594 185.064 127.594 185.063 127.594C185.062 127.594 185.061 127.594 185.06 127.594C185.059 127.594 185.058 127.594 185.058 127.594C185.057 127.594 185.056 127.594 185.055 127.594C185.054 127.594 185.053 127.594 185.052 127.594C185.052 127.594 185.051 127.594 185.05 127.594C185.049 127.594 185.048 127.594 185.047 127.594C185.047 127.594 185.046 127.594 185.045 127.594C185.044 127.594 185.043 127.594 185.042 127.594C185.041 127.594 185.041 127.594 185.04 127.594C185.039 127.594 185.038 127.594 185.037 127.594C185.036 127.594 185.035 127.594 185.035 127.594C185.034 127.594 185.033 127.594 185.032 127.594C185.031 127.594 185.03 127.594 185.029 127.594C185.029 127.594 185.028 127.594 185.027 127.594C185.026 127.594 185.025 127.594 185.024 127.594C185.023 127.594 185.023 127.594 185.022 127.594C185.021 127.594 185.02 127.594 185.019 127.594C185.018 127.594 185.017 127.594 185.017 127.594C185.016 127.594 185.015 127.594 185.014 127.594C185.013 127.594 185.012 127.594 185.011 127.594C185.011 127.594 185.01 127.594 185.009 127.594C185.008 127.594 185.007 127.594 185.006 127.594C185.005 127.594 185.005 127.594 185.004 127.594C185.003 127.594 185.002 127.594 185.001 127.594C185 127.594 185 127.594 184.999 127.594C184.998 127.594 184.997 127.594 184.996 127.594C184.995 127.594 184.994 127.594 184.994 127.594C184.993 127.594 184.992 127.594 184.991 127.594C184.99 127.594 184.989 127.594 184.988 127.594C184.988 127.594 184.987 127.594 184.986 127.594C184.985 127.594 184.984 127.594 184.983 127.594C184.982 127.594 184.982 127.594 184.981 127.594C184.98 127.594 184.979 127.594 184.978 127.594C184.977 127.594 184.976 127.594 184.976 127.594C184.975 127.594 184.974 127.594 184.973 127.594C184.972 127.594 184.971 127.594 184.97 127.594C184.97 127.594 184.969 127.594 184.968 127.594C184.967 127.594 184.966 127.594 184.965 127.594C184.964 127.594 184.964 127.594 184.963 127.594C184.962 127.594 184.961 127.594 184.96 127.594C184.959 127.594 184.958 127.594 184.958 127.594C184.957 127.594 184.956 127.594 184.955 127.594C184.954 127.594 184.953 127.594 184.953 127.594C184.952 127.594 184.951 127.594 184.95 127.594C184.949 127.594 184.948 127.594 184.947 127.594C184.947 127.594 184.946 127.594 184.945 127.594C184.944 127.594 184.943 127.594 184.942 127.594C184.941 127.594 184.941 127.594 184.94 127.594C184.939 127.594 184.938 127.594 184.937 127.594C184.936 127.594 184.935 127.594 184.935 127.594C184.934 127.594 184.933 127.594 184.932 127.594C184.931 127.594 184.93 127.594 184.929 127.594C184.929 127.594 184.928 127.594 184.927 127.594C184.926 127.594 184.925 127.594 184.924 127.594C184.923 127.594 184.923 127.594 184.922 127.594C184.921 127.594 184.92 127.594 184.919 127.594C184.918 127.594 184.917 127.594 184.917 127.594C184.916 127.594 184.915 127.594 184.914 127.594C184.913 127.594 184.912 127.594 184.911 127.594C184.911 127.594 184.91 127.594 184.909 127.594C184.908 127.594 184.907 127.594 184.906 127.594C184.906 127.594 184.905 127.594 184.904 127.594C184.903 127.594 184.902 127.594 184.901 127.594C184.9 127.594 184.9 127.594 184.899 127.594C184.898 127.594 184.897 127.594 184.896 127.594C184.895 127.594 184.894 127.594 184.894 127.594C184.893 127.594 184.892 127.594 184.891 127.594C184.89 127.594 184.889 127.594 184.888 127.594C184.888 127.594 184.887 127.594 184.886 127.594C184.885 127.594 184.884 127.594 184.883 127.594C184.882 127.594 184.882 127.594 184.881 127.594C184.88 127.594 184.879 127.594 184.878 127.594C184.877 127.594 184.876 127.594 184.876 127.594C184.875 127.594 184.874 127.594 184.873 127.594C184.872 127.594 184.871 127.594 184.87 127.594C184.87 127.594 184.869 127.594 184.868 127.594C184.867 127.594 184.866 127.594 184.865 127.594C184.865 127.594 184.864 127.594 184.863 127.594C184.862 127.594 184.861 127.594 184.86 127.594C184.859 127.594 184.859 127.594 184.858 127.594C184.857 127.594 184.856 127.594 184.855 127.594C184.854 127.594 184.853 127.594 184.853 127.594C184.852 127.594 184.851 127.594 184.85 127.594C184.849 127.594 184.848 127.594 184.847 127.594C184.847 127.594 184.846 127.594 184.845 127.594C184.844 127.594 184.843 127.594 184.842 127.594C184.841 127.594 184.841 127.594 184.84 127.594C184.839 127.594 184.838 127.594 184.837 127.594C184.836 127.594 184.835 127.594 184.835 127.594C184.834 127.594 184.833 127.594 184.832 127.594C184.831 127.594 184.83 127.594 184.829 127.594C184.829 127.594 184.828 127.594 184.827 127.594C184.826 127.594 184.825 127.594 184.824 127.594C184.823 127.594 184.823 127.594 184.822 127.594C184.821 127.594 184.82 127.594 184.819 127.594C184.818 127.594 184.818 127.594 184.817 127.594C184.816 127.594 184.815 127.594 184.814 127.594C184.813 127.594 184.812 127.594 184.812 127.594C184.811 127.594 184.81 127.594 184.809 127.594C184.808 127.594 184.807 127.594 184.806 127.594C184.806 127.594 184.805 127.594 184.804 127.594C184.803 127.594 184.802 127.594 184.801 127.594C184.8 127.594 184.8 127.594 184.799 127.594C184.798 127.594 184.797 127.594 184.796 127.594C184.795 127.594 184.794 127.594 184.794 127.594C184.793 127.594 184.792 127.594 184.791 127.594C184.79 127.594 184.789 127.594 184.788 127.594C184.788 127.594 184.787 127.594 184.786 127.594C184.785 127.594 184.784 127.594 184.783 127.594C184.782 127.594 184.782 127.594 184.781 127.594C184.78 127.594 184.779 127.594 184.778 127.594C184.777 127.594 184.776 127.594 184.776 127.594C184.775 127.594 184.774 127.594 184.773 127.594C184.772 127.594 184.771 127.594 184.771 127.594C184.77 127.594 184.769 127.594 184.768 127.594C184.767 127.594 184.766 127.594 184.765 127.594C184.765 127.594 184.764 127.594 184.763 127.594C184.762 127.594 184.761 127.594 184.76 127.594C184.759 127.594 184.759 127.594 184.758 127.594C184.757 127.594 184.756 127.594 184.755 127.594C184.754 127.594 184.753 127.594 184.753 127.594C184.752 127.594 184.751 127.594 184.75 127.594C184.749 127.594 184.748 127.594 184.747 127.594C184.747 127.594 184.746 127.594 184.745 127.594C184.744 127.594 184.743 127.594 184.742 127.594C184.741 127.594 184.741 127.594 184.74 127.594C184.739 127.594 184.738 127.594 184.737 127.594C184.736 127.594 184.735 127.594 184.735 127.594C184.734 127.594 184.733 127.594 184.732 127.594C184.731 127.594 184.73 127.594 184.729 127.594C184.729 127.594 184.728 127.594 184.727 127.594C184.726 127.594 184.725 127.594 184.724 127.594C184.724 127.594 184.723 127.594 184.722 127.594C184.721 127.594 184.72 127.594 184.719 127.594C184.718 127.594 184.718 127.594 184.717 127.594C184.716 127.594 184.715 127.594 184.714 127.594C184.713 127.594 184.712 127.594 184.712 127.594C184.711 127.594 184.71 127.594 184.709 127.594C184.708 127.594 184.707 127.594 184.706 127.594C184.706 127.594 184.705 127.594 184.704 127.594C184.703 127.594 184.702 127.594 184.701 127.594C184.7 127.594 184.7 127.594 184.699 127.594C184.698 127.594 184.697 127.594 184.696 127.594C184.695 127.594 184.694 127.594 184.694 127.594C184.693 127.594 184.692 127.594 184.691 127.594C184.69 127.594 184.689 127.594 184.688 127.594C184.688 127.594 184.687 127.594 184.686 127.594C184.685 127.594 184.684 127.594 184.683 127.594C184.682 127.594 184.682 127.594 184.681 127.594C184.68 127.594 184.679 127.594 184.678 127.594C184.677 127.594 184.677 127.594 184.676 127.594C184.675 127.594 184.674 127.594 184.673 127.594C184.672 127.594 184.671 127.594 184.671 127.594C184.67 127.594 184.669 127.594 184.668 127.594C184.667 127.594 184.666 127.594 184.665 127.594C184.665 127.594 184.664 127.594 184.663 127.594C184.662 127.594 184.661 127.594 184.66 127.594C184.659 127.594 184.659 127.594 184.658 127.594C184.657 127.594 184.656 127.594 184.655 127.594C184.654 127.594 184.653 127.594 184.653 127.594C184.652 127.594 184.651 127.594 184.65 127.594C184.649 127.594 184.648 127.594 184.647 127.594C184.647 127.594 184.646 127.594 184.645 127.594C184.644 127.594 184.643 127.594 184.642 127.594C184.641 127.594 184.641 127.594 184.64 127.594C184.639 127.594 184.638 127.594 184.637 127.594C184.636 127.594 184.635 127.594 184.635 127.594C184.634 127.594 184.633 127.594 184.632 127.594C184.631 127.594 184.63 127.594 184.63 127.594C184.629 127.594 184.628 127.594 184.627 127.594C184.626 127.594 184.625 127.594 184.624 127.594C184.624 127.594 184.623 127.594 184.622 127.594C184.621 127.594 184.62 127.594 184.619 127.594C184.618 127.594 184.618 127.594 184.617 127.594C184.616 127.594 184.615 127.594 184.614 127.594C184.613 127.594 184.612 127.594 184.612 127.594C184.611 127.594 184.61 127.594 184.609 127.594C184.608 127.594 184.607 127.594 184.606 127.594C184.606 127.594 184.605 127.594 184.604 127.594C184.603 127.594 184.602 127.594 184.601 127.594C184.6 127.594 184.6 127.594 184.599 127.594C184.598 127.594 184.597 127.594 184.596 127.594C184.595 127.594 184.594 127.594 184.594 127.594C184.593 127.594 184.592 127.594 184.591 127.594C184.59 127.594 184.589 127.594 184.589 127.594C184.588 127.594 184.587 127.594 184.586 127.594C184.585 127.594 184.584 127.594 184.583 127.594C184.583 127.594 184.582 127.594 184.581 127.594C184.58 127.594 184.579 127.594 184.578 127.594C184.577 127.594 184.577 127.594 184.576 127.594C184.575 127.594 184.574 127.594 184.573 127.594C184.572 127.594 184.571 127.594 184.571 127.594C184.57 127.594 184.569 127.594 184.568 127.594C184.567 127.594 184.566 127.594 184.565 127.594C184.565 127.594 184.564 127.594 184.563 127.594C184.562 127.594 184.561 127.594 184.56 127.594C184.559 127.594 184.559 127.594 184.558 127.594C184.557 127.594 184.556 127.594 184.555 127.594C184.554 127.594 184.553 127.594 184.553 127.594C184.552 127.594 184.551 127.594 184.55 127.594C184.549 127.594 184.548 127.594 184.547 127.594C184.547 127.594 184.546 127.594 184.545 127.594C184.544 127.594 184.543 127.594 184.542 127.594C184.542 127.594 184.541 127.594 184.54 127.594C184.539 127.594 184.538 127.594 184.537 127.594C184.536 127.594 184.536 127.594 184.535 127.594C184.534 127.594 184.533 127.594 184.532 127.594C184.531 127.594 184.53 127.594 184.53 127.594C184.529 127.594 184.528 127.594 184.527 127.594C184.526 127.594 184.525 127.594 184.524 127.594C184.524 127.594 184.523 127.594 184.522 127.594C184.521 127.594 184.52 127.594 184.519 127.594C184.518 127.594 184.518 127.594 184.517 127.594C184.516 127.594 184.515 127.594 184.514 127.594C184.513 127.594 184.512 127.594 184.512 127.594C184.511 127.594 184.51 127.594 184.509 127.594C184.508 127.594 184.507 127.594 184.506 127.594C184.506 127.594 184.505 127.594 184.504 127.594C184.503 127.594 184.502 127.594 184.501 127.594C184.5 127.594 184.5 127.594 184.499 127.594C184.498 127.594 184.497 127.594 184.496 127.594C184.495 127.594 184.495 127.594 184.494 127.594C184.493 127.594 184.492 127.594 184.491 127.594C184.49 127.594 184.489 127.594 184.489 127.594C184.488 127.594 184.487 127.594 184.486 127.594C184.485 127.594 184.484 127.594 184.483 127.594C184.483 127.594 184.482 127.594 184.481 127.594C184.48 127.594 184.479 127.594 184.478 127.594C184.477 127.594 184.477 127.594 184.476 127.594C184.475 127.594 184.474 127.594 184.473 127.594C184.472 127.594 184.471 127.594 184.471 127.594C184.47 127.594 184.469 127.594 184.468 127.594C184.467 127.594 184.466 127.594 184.465 127.594C184.465 127.594 184.464 127.594 184.463 127.594C184.462 127.594 184.461 127.594 184.46 127.594C184.459 127.594 184.459 127.594 184.458 127.594C184.457 127.594 184.456 127.594 184.455 127.594C184.454 127.594 184.453 127.594 184.453 127.594C184.452 127.594 184.451 127.594 184.45 127.594C184.449 127.594 184.448 127.594 184.448 127.594C184.447 127.594 184.446 127.594 184.445 127.594C184.444 127.594 184.443 127.594 184.442 127.594C184.442 127.594 184.441 127.594 184.44 127.594C184.439 127.594 184.438 127.594 184.437 127.594C184.436 127.594 184.436 127.594 184.435 127.594C184.434 127.594 184.433 127.594 184.432 127.594C184.431 127.594 184.43 127.594 184.43 127.594C184.429 127.594 184.428 127.594 184.427 127.594C184.426 127.594 184.425 127.594 184.424 127.594C184.424 127.594 184.423 127.594 184.422 127.594C184.421 127.594 184.42 127.594 184.419 127.594C184.418 127.594 184.418 127.594 184.417 127.594C184.416 127.594 184.415 127.594 184.414 127.594C184.413 127.594 184.412 127.594 184.412 127.594C184.411 127.594 184.41 127.594 184.409 127.594C184.408 127.594 184.407 127.594 184.406 127.594C184.406 127.594 184.405 127.594 184.404 127.594C184.403 127.594 184.402 127.594 184.401 127.594C184.401 127.594 184.4 127.594 184.399 127.594C184.398 127.594 184.397 127.594 184.396 127.594C184.395 127.594 184.395 127.594 184.394 127.594C184.393 127.594 184.392 127.594 184.391 127.594C184.39 127.594 184.389 127.594 184.389 127.594C184.388 127.594 184.387 127.594 184.386 127.594C184.385 127.594 184.384 127.594 184.383 127.594C184.383 127.594 184.382 127.594 184.381 127.594C184.38 127.594 184.379 127.594 184.378 127.594C184.377 127.594 184.377 127.594 184.376 127.594C184.375 127.594 184.374 127.594 184.373 127.594C184.372 127.594 184.371 127.594 184.371 127.594C184.37 127.594 184.369 127.594 184.368 127.594C184.367 127.594 184.366 127.594 184.365 127.594C184.365 127.594 184.364 127.594 184.363 127.594C184.362 127.594 184.361 127.594 184.36 127.594C184.359 127.594 184.359 127.594 184.358 127.594C184.357 127.594 184.356 127.594 184.355 127.594C184.354 127.594 184.354 127.594 184.353 127.594C184.352 127.594 184.351 127.594 184.35 127.594C184.349 127.594 184.348 127.594 184.348 127.594C184.347 127.594 184.346 127.594 184.345 127.594C184.344 127.594 184.343 127.594 184.342 127.594C184.342 127.594 184.341 127.594 184.34 127.594C184.339 127.594 184.338 127.594 184.337 127.594C184.336 127.594 184.336 127.594 184.335 127.594C184.334 127.594 184.333 127.594 184.332 127.594C184.331 127.594 184.33 127.594 184.33 127.594C184.329 127.594 184.328 127.594 184.327 127.594C184.326 127.594 184.325 127.594 184.324 127.594C184.324 127.594 184.323 127.594 184.322 127.594C184.321 127.594 184.32 127.594 184.319 127.594C184.318 127.594 184.318 127.594 184.317 127.594C184.316 127.594 184.315 127.594 184.314 127.594C184.313 127.594 184.312 127.594 184.312 127.594C184.311 127.594 184.31 127.594 184.309 127.594C184.308 127.594 184.307 127.594 184.307 127.594C184.306 127.594 184.305 127.594 184.304 127.594C184.303 127.594 184.302 127.594 184.301 127.594C184.301 127.594 184.3 127.594 184.299 127.594C184.298 127.594 184.297 127.594 184.296 127.594C184.295 127.594 184.295 127.594 184.294 127.594C184.293 127.594 184.292 127.594 184.291 127.594C184.29 127.594 184.289 127.594 184.289 127.594C184.288 127.594 184.287 127.594 184.286 127.594C184.285 127.594 184.284 127.594 184.283 127.594C184.283 127.594 184.282 127.594 184.281 127.594C184.28 127.594 184.279 127.594 184.278 127.594C184.277 127.594 184.277 127.594 184.276 127.594C184.275 127.594 184.274 127.594 184.273 127.594C184.272 127.594 184.271 127.594 184.271 127.594C184.27 127.594 184.269 127.594 184.268 127.594C184.267 127.594 184.266 127.594 184.266 127.594C184.265 127.594 184.264 127.594 184.263 127.594C184.262 127.594 184.261 127.594 184.26 127.594C184.26 127.594 184.259 127.594 184.258 127.594C184.257 127.594 184.256 127.594 184.255 127.594C184.254 127.594 184.254 127.594 184.253 127.594C184.252 127.594 184.251 127.594 184.25 127.594C184.249 127.594 184.248 127.594 184.248 127.594C184.247 127.594 184.246 127.594 184.245 127.594C184.244 127.594 184.243 127.594 184.242 127.594C184.242 127.594 184.241 127.594 184.24 127.594C184.239 127.594 184.238 127.594 184.237 127.594C184.236 127.594 184.236 127.594 184.235 127.594C184.234 127.594 184.233 127.594 184.232 127.594C184.231 127.594 184.23 127.594 184.23 127.594C184.229 127.594 184.228 127.594 184.227 127.594C184.226 127.594 184.225 127.594 184.224 127.594C184.224 127.594 184.223 127.594 184.222 127.594C184.221 127.594 184.22 127.594 184.219 127.594C184.219 127.594 184.218 127.594 184.217 127.594C184.216 127.594 184.215 127.594 184.214 127.594C184.213 127.594 184.213 127.594 184.212 127.594C184.211 127.594 184.21 127.594 184.209 127.594C184.208 127.594 184.207 127.594 184.207 127.594C184.206 127.594 184.205 127.594 184.204 127.594C184.203 127.594 184.202 127.594 184.201 127.594C184.201 127.594 184.2 127.594 184.199 127.594C184.198 127.594 184.197 127.594 184.196 127.594C184.195 127.594 184.195 127.594 184.194 127.594C184.193 127.594 184.192 127.594 184.191 127.594C184.19 127.594 184.189 127.594 184.189 127.594C184.188 127.594 184.187 127.594 184.186 127.594C184.185 127.594 184.184 127.594 184.183 127.594C184.183 127.594 184.182 127.594 184.181 127.594C184.18 127.594 184.179 127.594 184.178 127.594C184.177 127.594 184.177 127.594 184.176 127.594C184.175 127.594 184.174 127.594 184.173 127.594C184.172 127.594 184.172 127.594 184.171 127.594C184.17 127.594 184.169 127.594 184.168 127.594C184.167 127.594 184.166 127.594 184.166 127.594C184.165 127.594 184.164 127.594 184.163 127.594C184.162 127.594 184.161 127.594 184.16 127.594C184.16 127.594 184.159 127.594 184.158 127.594C184.157 127.594 184.156 127.594 184.155 127.594C184.154 127.594 184.154 127.594 184.153 127.594C184.152 127.594 184.151 127.594 184.15 127.594C184.149 127.594 184.148 127.594 184.148 127.594C184.147 127.594 184.146 127.594 184.145 127.594C184.144 127.594 184.143 127.594 184.142 127.594C184.142 127.594 184.141 127.594 184.14 127.594C184.139 127.594 184.138 127.594 184.137 127.594C184.136 127.594 184.136 127.594 184.135 127.594C184.134 127.594 184.133 127.594 184.132 127.594C184.131 127.594 184.13 127.594 184.13 127.594C184.129 127.594 184.128 127.594 184.127 127.594C184.126 127.594 184.125 127.594 184.125 127.594C184.124 127.594 184.123 127.594 184.122 127.594C184.121 127.594 184.12 127.594 184.119 127.594C184.119 127.594 184.118 127.594 184.117 127.594C184.116 127.594 184.115 127.594 184.114 127.594C184.113 127.594 184.113 127.594 184.112 127.594C184.111 127.594 184.11 127.594 184.109 127.594C184.108 127.594 184.107 127.594 184.107 127.594C184.106 127.594 184.105 127.594 184.104 127.594C184.103 127.594 184.102 127.594 184.101 127.594C184.101 127.594 184.1 127.594 184.099 127.594C184.098 127.594 184.097 127.594 184.096 127.594C184.095 127.594 184.095 127.594 184.094 127.594V129.594V131.594C184.095 131.594 184.095 131.594 184.096 131.594C184.097 131.594 184.098 131.594 184.099 131.594C184.1 131.594 184.101 131.594 184.101 131.594C184.102 131.594 184.103 131.594 184.104 131.594C184.105 131.594 184.106 131.594 184.107 131.594C184.107 131.594 184.108 131.594 184.109 131.594C184.11 131.594 184.111 131.594 184.112 131.594C184.113 131.594 184.113 131.594 184.114 131.594C184.115 131.594 184.116 131.594 184.117 131.594C184.118 131.594 184.119 131.594 184.119 131.594C184.12 131.594 184.121 131.594 184.122 131.594C184.123 131.594 184.124 131.594 184.125 131.594C184.125 131.594 184.126 131.594 184.127 131.594C184.128 131.594 184.129 131.594 184.13 131.594C184.13 131.594 184.131 131.594 184.132 131.594C184.133 131.594 184.134 131.594 184.135 131.594C184.136 131.594 184.136 131.594 184.137 131.594C184.138 131.594 184.139 131.594 184.14 131.594C184.141 131.594 184.142 131.594 184.142 131.594C184.143 131.594 184.144 131.594 184.145 131.594C184.146 131.594 184.147 131.594 184.148 131.594C184.148 131.594 184.149 131.594 184.15 131.594C184.151 131.594 184.152 131.594 184.153 131.594C184.154 131.594 184.154 131.594 184.155 131.594C184.156 131.594 184.157 131.594 184.158 131.594C184.159 131.594 184.16 131.594 184.16 131.594C184.161 131.594 184.162 131.594 184.163 131.594C184.164 131.594 184.165 131.594 184.166 131.594C184.166 131.594 184.167 131.594 184.168 131.594C184.169 131.594 184.17 131.594 184.171 131.594C184.172 131.594 184.172 131.594 184.173 131.594C184.174 131.594 184.175 131.594 184.176 131.594C184.177 131.594 184.177 131.594 184.178 131.594C184.179 131.594 184.18 131.594 184.181 131.594C184.182 131.594 184.183 131.594 184.183 131.594C184.184 131.594 184.185 131.594 184.186 131.594C184.187 131.594 184.188 131.594 184.189 131.594C184.189 131.594 184.19 131.594 184.191 131.594C184.192 131.594 184.193 131.594 184.194 131.594C184.195 131.594 184.195 131.594 184.196 131.594C184.197 131.594 184.198 131.594 184.199 131.594C184.2 131.594 184.201 131.594 184.201 131.594C184.202 131.594 184.203 131.594 184.204 131.594C184.205 131.594 184.206 131.594 184.207 131.594C184.207 131.594 184.208 131.594 184.209 131.594C184.21 131.594 184.211 131.594 184.212 131.594C184.213 131.594 184.213 131.594 184.214 131.594C184.215 131.594 184.216 131.594 184.217 131.594C184.218 131.594 184.219 131.594 184.219 131.594C184.22 131.594 184.221 131.594 184.222 131.594C184.223 131.594 184.224 131.594 184.224 131.594C184.225 131.594 184.226 131.594 184.227 131.594C184.228 131.594 184.229 131.594 184.23 131.594C184.23 131.594 184.231 131.594 184.232 131.594C184.233 131.594 184.234 131.594 184.235 131.594C184.236 131.594 184.236 131.594 184.237 131.594C184.238 131.594 184.239 131.594 184.24 131.594C184.241 131.594 184.242 131.594 184.242 131.594C184.243 131.594 184.244 131.594 184.245 131.594C184.246 131.594 184.247 131.594 184.248 131.594C184.248 131.594 184.249 131.594 184.25 131.594C184.251 131.594 184.252 131.594 184.253 131.594C184.254 131.594 184.254 131.594 184.255 131.594C184.256 131.594 184.257 131.594 184.258 131.594C184.259 131.594 184.26 131.594 184.26 131.594C184.261 131.594 184.262 131.594 184.263 131.594C184.264 131.594 184.265 131.594 184.266 131.594C184.266 131.594 184.267 131.594 184.268 131.594C184.269 131.594 184.27 131.594 184.271 131.594C184.271 131.594 184.272 131.594 184.273 131.594C184.274 131.594 184.275 131.594 184.276 131.594C184.277 131.594 184.277 131.594 184.278 131.594C184.279 131.594 184.28 131.594 184.281 131.594C184.282 131.594 184.283 131.594 184.283 131.594C184.284 131.594 184.285 131.594 184.286 131.594C184.287 131.594 184.288 131.594 184.289 131.594C184.289 131.594 184.29 131.594 184.291 131.594C184.292 131.594 184.293 131.594 184.294 131.594C184.295 131.594 184.295 131.594 184.296 131.594C184.297 131.594 184.298 131.594 184.299 131.594C184.3 131.594 184.301 131.594 184.301 131.594C184.302 131.594 184.303 131.594 184.304 131.594C184.305 131.594 184.306 131.594 184.307 131.594C184.307 131.594 184.308 131.594 184.309 131.594C184.31 131.594 184.311 131.594 184.312 131.594C184.312 131.594 184.313 131.594 184.314 131.594C184.315 131.594 184.316 131.594 184.317 131.594C184.318 131.594 184.318 131.594 184.319 131.594C184.32 131.594 184.321 131.594 184.322 131.594C184.323 131.594 184.324 131.594 184.324 131.594C184.325 131.594 184.326 131.594 184.327 131.594C184.328 131.594 184.329 131.594 184.33 131.594C184.33 131.594 184.331 131.594 184.332 131.594C184.333 131.594 184.334 131.594 184.335 131.594C184.336 131.594 184.336 131.594 184.337 131.594C184.338 131.594 184.339 131.594 184.34 131.594C184.341 131.594 184.342 131.594 184.342 131.594C184.343 131.594 184.344 131.594 184.345 131.594C184.346 131.594 184.347 131.594 184.348 131.594C184.348 131.594 184.349 131.594 184.35 131.594C184.351 131.594 184.352 131.594 184.353 131.594C184.354 131.594 184.354 131.594 184.355 131.594C184.356 131.594 184.357 131.594 184.358 131.594C184.359 131.594 184.359 131.594 184.36 131.594C184.361 131.594 184.362 131.594 184.363 131.594C184.364 131.594 184.365 131.594 184.365 131.594C184.366 131.594 184.367 131.594 184.368 131.594C184.369 131.594 184.37 131.594 184.371 131.594C184.371 131.594 184.372 131.594 184.373 131.594C184.374 131.594 184.375 131.594 184.376 131.594C184.377 131.594 184.377 131.594 184.378 131.594C184.379 131.594 184.38 131.594 184.381 131.594C184.382 131.594 184.383 131.594 184.383 131.594C184.384 131.594 184.385 131.594 184.386 131.594C184.387 131.594 184.388 131.594 184.389 131.594C184.389 131.594 184.39 131.594 184.391 131.594C184.392 131.594 184.393 131.594 184.394 131.594C184.395 131.594 184.395 131.594 184.396 131.594C184.397 131.594 184.398 131.594 184.399 131.594C184.4 131.594 184.401 131.594 184.401 131.594C184.402 131.594 184.403 131.594 184.404 131.594C184.405 131.594 184.406 131.594 184.406 131.594C184.407 131.594 184.408 131.594 184.409 131.594C184.41 131.594 184.411 131.594 184.412 131.594C184.412 131.594 184.413 131.594 184.414 131.594C184.415 131.594 184.416 131.594 184.417 131.594C184.418 131.594 184.418 131.594 184.419 131.594C184.42 131.594 184.421 131.594 184.422 131.594C184.423 131.594 184.424 131.594 184.424 131.594C184.425 131.594 184.426 131.594 184.427 131.594C184.428 131.594 184.429 131.594 184.43 131.594C184.43 131.594 184.431 131.594 184.432 131.594C184.433 131.594 184.434 131.594 184.435 131.594C184.436 131.594 184.436 131.594 184.437 131.594C184.438 131.594 184.439 131.594 184.44 131.594C184.441 131.594 184.442 131.594 184.442 131.594C184.443 131.594 184.444 131.594 184.445 131.594C184.446 131.594 184.447 131.594 184.448 131.594C184.448 131.594 184.449 131.594 184.45 131.594C184.451 131.594 184.452 131.594 184.453 131.594C184.453 131.594 184.454 131.594 184.455 131.594C184.456 131.594 184.457 131.594 184.458 131.594C184.459 131.594 184.459 131.594 184.46 131.594C184.461 131.594 184.462 131.594 184.463 131.594C184.464 131.594 184.465 131.594 184.465 131.594C184.466 131.594 184.467 131.594 184.468 131.594C184.469 131.594 184.47 131.594 184.471 131.594C184.471 131.594 184.472 131.594 184.473 131.594C184.474 131.594 184.475 131.594 184.476 131.594C184.477 131.594 184.477 131.594 184.478 131.594C184.479 131.594 184.48 131.594 184.481 131.594C184.482 131.594 184.483 131.594 184.483 131.594C184.484 131.594 184.485 131.594 184.486 131.594C184.487 131.594 184.488 131.594 184.489 131.594C184.489 131.594 184.49 131.594 184.491 131.594C184.492 131.594 184.493 131.594 184.494 131.594C184.495 131.594 184.495 131.594 184.496 131.594C184.497 131.594 184.498 131.594 184.499 131.594C184.5 131.594 184.5 131.594 184.501 131.594C184.502 131.594 184.503 131.594 184.504 131.594C184.505 131.594 184.506 131.594 184.506 131.594C184.507 131.594 184.508 131.594 184.509 131.594C184.51 131.594 184.511 131.594 184.512 131.594C184.512 131.594 184.513 131.594 184.514 131.594C184.515 131.594 184.516 131.594 184.517 131.594C184.518 131.594 184.518 131.594 184.519 131.594C184.52 131.594 184.521 131.594 184.522 131.594C184.523 131.594 184.524 131.594 184.524 131.594C184.525 131.594 184.526 131.594 184.527 131.594C184.528 131.594 184.529 131.594 184.53 131.594C184.53 131.594 184.531 131.594 184.532 131.594C184.533 131.594 184.534 131.594 184.535 131.594C184.536 131.594 184.536 131.594 184.537 131.594C184.538 131.594 184.539 131.594 184.54 131.594C184.541 131.594 184.542 131.594 184.542 131.594C184.543 131.594 184.544 131.594 184.545 131.594C184.546 131.594 184.547 131.594 184.547 131.594C184.548 131.594 184.549 131.594 184.55 131.594C184.551 131.594 184.552 131.594 184.553 131.594C184.553 131.594 184.554 131.594 184.555 131.594C184.556 131.594 184.557 131.594 184.558 131.594C184.559 131.594 184.559 131.594 184.56 131.594C184.561 131.594 184.562 131.594 184.563 131.594C184.564 131.594 184.565 131.594 184.565 131.594C184.566 131.594 184.567 131.594 184.568 131.594C184.569 131.594 184.57 131.594 184.571 131.594C184.571 131.594 184.572 131.594 184.573 131.594C184.574 131.594 184.575 131.594 184.576 131.594C184.577 131.594 184.577 131.594 184.578 131.594C184.579 131.594 184.58 131.594 184.581 131.594C184.582 131.594 184.583 131.594 184.583 131.594C184.584 131.594 184.585 131.594 184.586 131.594C184.587 131.594 184.588 131.594 184.589 131.594C184.589 131.594 184.59 131.594 184.591 131.594C184.592 131.594 184.593 131.594 184.594 131.594C184.594 131.594 184.595 131.594 184.596 131.594C184.597 131.594 184.598 131.594 184.599 131.594C184.6 131.594 184.6 131.594 184.601 131.594C184.602 131.594 184.603 131.594 184.604 131.594C184.605 131.594 184.606 131.594 184.606 131.594C184.607 131.594 184.608 131.594 184.609 131.594C184.61 131.594 184.611 131.594 184.612 131.594C184.612 131.594 184.613 131.594 184.614 131.594C184.615 131.594 184.616 131.594 184.617 131.594C184.618 131.594 184.618 131.594 184.619 131.594C184.62 131.594 184.621 131.594 184.622 131.594C184.623 131.594 184.624 131.594 184.624 131.594C184.625 131.594 184.626 131.594 184.627 131.594C184.628 131.594 184.629 131.594 184.63 131.594C184.63 131.594 184.631 131.594 184.632 131.594C184.633 131.594 184.634 131.594 184.635 131.594C184.635 131.594 184.636 131.594 184.637 131.594C184.638 131.594 184.639 131.594 184.64 131.594C184.641 131.594 184.641 131.594 184.642 131.594C184.643 131.594 184.644 131.594 184.645 131.594C184.646 131.594 184.647 131.594 184.647 131.594C184.648 131.594 184.649 131.594 184.65 131.594C184.651 131.594 184.652 131.594 184.653 131.594C184.653 131.594 184.654 131.594 184.655 131.594C184.656 131.594 184.657 131.594 184.658 131.594C184.659 131.594 184.659 131.594 184.66 131.594C184.661 131.594 184.662 131.594 184.663 131.594C184.664 131.594 184.665 131.594 184.665 131.594C184.666 131.594 184.667 131.594 184.668 131.594C184.669 131.594 184.67 131.594 184.671 131.594C184.671 131.594 184.672 131.594 184.673 131.594C184.674 131.594 184.675 131.594 184.676 131.594C184.677 131.594 184.677 131.594 184.678 131.594C184.679 131.594 184.68 131.594 184.681 131.594C184.682 131.594 184.682 131.594 184.683 131.594C184.684 131.594 184.685 131.594 184.686 131.594C184.687 131.594 184.688 131.594 184.688 131.594C184.689 131.594 184.69 131.594 184.691 131.594C184.692 131.594 184.693 131.594 184.694 131.594C184.694 131.594 184.695 131.594 184.696 131.594C184.697 131.594 184.698 131.594 184.699 131.594C184.7 131.594 184.7 131.594 184.701 131.594C184.702 131.594 184.703 131.594 184.704 131.594C184.705 131.594 184.706 131.594 184.706 131.594C184.707 131.594 184.708 131.594 184.709 131.594C184.71 131.594 184.711 131.594 184.712 131.594C184.712 131.594 184.713 131.594 184.714 131.594C184.715 131.594 184.716 131.594 184.717 131.594C184.718 131.594 184.718 131.594 184.719 131.594C184.72 131.594 184.721 131.594 184.722 131.594C184.723 131.594 184.724 131.594 184.724 131.594C184.725 131.594 184.726 131.594 184.727 131.594C184.728 131.594 184.729 131.594 184.729 131.594C184.73 131.594 184.731 131.594 184.732 131.594C184.733 131.594 184.734 131.594 184.735 131.594C184.735 131.594 184.736 131.594 184.737 131.594C184.738 131.594 184.739 131.594 184.74 131.594C184.741 131.594 184.741 131.594 184.742 131.594C184.743 131.594 184.744 131.594 184.745 131.594C184.746 131.594 184.747 131.594 184.747 131.594C184.748 131.594 184.749 131.594 184.75 131.594C184.751 131.594 184.752 131.594 184.753 131.594C184.753 131.594 184.754 131.594 184.755 131.594C184.756 131.594 184.757 131.594 184.758 131.594C184.759 131.594 184.759 131.594 184.76 131.594C184.761 131.594 184.762 131.594 184.763 131.594C184.764 131.594 184.765 131.594 184.765 131.594C184.766 131.594 184.767 131.594 184.768 131.594C184.769 131.594 184.77 131.594 184.771 131.594C184.771 131.594 184.772 131.594 184.773 131.594C184.774 131.594 184.775 131.594 184.776 131.594C184.776 131.594 184.777 131.594 184.778 131.594C184.779 131.594 184.78 131.594 184.781 131.594C184.782 131.594 184.782 131.594 184.783 131.594C184.784 131.594 184.785 131.594 184.786 131.594C184.787 131.594 184.788 131.594 184.788 131.594C184.789 131.594 184.79 131.594 184.791 131.594C184.792 131.594 184.793 131.594 184.794 131.594C184.794 131.594 184.795 131.594 184.796 131.594C184.797 131.594 184.798 131.594 184.799 131.594C184.8 131.594 184.8 131.594 184.801 131.594C184.802 131.594 184.803 131.594 184.804 131.594C184.805 131.594 184.806 131.594 184.806 131.594C184.807 131.594 184.808 131.594 184.809 131.594C184.81 131.594 184.811 131.594 184.812 131.594C184.812 131.594 184.813 131.594 184.814 131.594C184.815 131.594 184.816 131.594 184.817 131.594C184.818 131.594 184.818 131.594 184.819 131.594C184.82 131.594 184.821 131.594 184.822 131.594C184.823 131.594 184.823 131.594 184.824 131.594C184.825 131.594 184.826 131.594 184.827 131.594C184.828 131.594 184.829 131.594 184.829 131.594C184.83 131.594 184.831 131.594 184.832 131.594C184.833 131.594 184.834 131.594 184.835 131.594C184.835 131.594 184.836 131.594 184.837 131.594C184.838 131.594 184.839 131.594 184.84 131.594C184.841 131.594 184.841 131.594 184.842 131.594C184.843 131.594 184.844 131.594 184.845 131.594C184.846 131.594 184.847 131.594 184.847 131.594C184.848 131.594 184.849 131.594 184.85 131.594C184.851 131.594 184.852 131.594 184.853 131.594C184.853 131.594 184.854 131.594 184.855 131.594C184.856 131.594 184.857 131.594 184.858 131.594C184.859 131.594 184.859 131.594 184.86 131.594C184.861 131.594 184.862 131.594 184.863 131.594C184.864 131.594 184.865 131.594 184.865 131.594C184.866 131.594 184.867 131.594 184.868 131.594C184.869 131.594 184.87 131.594 184.87 131.594C184.871 131.594 184.872 131.594 184.873 131.594C184.874 131.594 184.875 131.594 184.876 131.594C184.876 131.594 184.877 131.594 184.878 131.594C184.879 131.594 184.88 131.594 184.881 131.594C184.882 131.594 184.882 131.594 184.883 131.594C184.884 131.594 184.885 131.594 184.886 131.594C184.887 131.594 184.888 131.594 184.888 131.594C184.889 131.594 184.89 131.594 184.891 131.594C184.892 131.594 184.893 131.594 184.894 131.594C184.894 131.594 184.895 131.594 184.896 131.594C184.897 131.594 184.898 131.594 184.899 131.594C184.9 131.594 184.9 131.594 184.901 131.594C184.902 131.594 184.903 131.594 184.904 131.594C184.905 131.594 184.906 131.594 184.906 131.594C184.907 131.594 184.908 131.594 184.909 131.594C184.91 131.594 184.911 131.594 184.911 131.594C184.912 131.594 184.913 131.594 184.914 131.594C184.915 131.594 184.916 131.594 184.917 131.594C184.917 131.594 184.918 131.594 184.919 131.594C184.92 131.594 184.921 131.594 184.922 131.594C184.923 131.594 184.923 131.594 184.924 131.594C184.925 131.594 184.926 131.594 184.927 131.594C184.928 131.594 184.929 131.594 184.929 131.594C184.93 131.594 184.931 131.594 184.932 131.594C184.933 131.594 184.934 131.594 184.935 131.594C184.935 131.594 184.936 131.594 184.937 131.594C184.938 131.594 184.939 131.594 184.94 131.594C184.941 131.594 184.941 131.594 184.942 131.594C184.943 131.594 184.944 131.594 184.945 131.594C184.946 131.594 184.947 131.594 184.947 131.594C184.948 131.594 184.949 131.594 184.95 131.594C184.951 131.594 184.952 131.594 184.953 131.594C184.953 131.594 184.954 131.594 184.955 131.594C184.956 131.594 184.957 131.594 184.958 131.594C184.958 131.594 184.959 131.594 184.96 131.594C184.961 131.594 184.962 131.594 184.963 131.594C184.964 131.594 184.964 131.594 184.965 131.594C184.966 131.594 184.967 131.594 184.968 131.594C184.969 131.594 184.97 131.594 184.97 131.594C184.971 131.594 184.972 131.594 184.973 131.594C184.974 131.594 184.975 131.594 184.976 131.594C184.976 131.594 184.977 131.594 184.978 131.594C184.979 131.594 184.98 131.594 184.981 131.594C184.982 131.594 184.982 131.594 184.983 131.594C184.984 131.594 184.985 131.594 184.986 131.594C184.987 131.594 184.988 131.594 184.988 131.594C184.989 131.594 184.99 131.594 184.991 131.594C184.992 131.594 184.993 131.594 184.994 131.594C184.994 131.594 184.995 131.594 184.996 131.594C184.997 131.594 184.998 131.594 184.999 131.594C185 131.594 185 131.594 185.001 131.594C185.002 131.594 185.003 131.594 185.004 131.594C185.005 131.594 185.005 131.594 185.006 131.594C185.007 131.594 185.008 131.594 185.009 131.594C185.01 131.594 185.011 131.594 185.011 131.594C185.012 131.594 185.013 131.594 185.014 131.594C185.015 131.594 185.016 131.594 185.017 131.594C185.017 131.594 185.018 131.594 185.019 131.594C185.02 131.594 185.021 131.594 185.022 131.594C185.023 131.594 185.023 131.594 185.024 131.594C185.025 131.594 185.026 131.594 185.027 131.594C185.028 131.594 185.029 131.594 185.029 131.594C185.03 131.594 185.031 131.594 185.032 131.594C185.033 131.594 185.034 131.594 185.035 131.594C185.035 131.594 185.036 131.594 185.037 131.594C185.038 131.594 185.039 131.594 185.04 131.594C185.041 131.594 185.041 131.594 185.042 131.594C185.043 131.594 185.044 131.594 185.045 131.594C185.046 131.594 185.047 131.594 185.047 131.594C185.048 131.594 185.049 131.594 185.05 131.594C185.051 131.594 185.052 131.594 185.052 131.594C185.053 131.594 185.054 131.594 185.055 131.594C185.056 131.594 185.057 131.594 185.058 131.594C185.058 131.594 185.059 131.594 185.06 131.594C185.061 131.594 185.062 131.594 185.063 131.594C185.064 131.594 185.064 131.594 185.065 131.594C185.066 131.594 185.067 131.594 185.068 131.594C185.069 131.594 185.07 131.594 185.07 131.594C185.071 131.594 185.072 131.594 185.073 131.594C185.074 131.594 185.075 131.594 185.076 131.594C185.076 131.594 185.077 131.594 185.078 131.594C185.079 131.594 185.08 131.594 185.081 131.594C185.082 131.594 185.082 131.594 185.083 131.594C185.084 131.594 185.085 131.594 185.086 131.594C185.087 131.594 185.088 131.594 185.088 131.594C185.089 131.594 185.09 131.594 185.091 131.594C185.092 131.594 185.093 131.594 185.094 131.594C185.094 131.594 185.095 131.594 185.096 131.594C185.097 131.594 185.098 131.594 185.099 131.594C185.099 131.594 185.1 131.594 185.101 131.594C185.102 131.594 185.103 131.594 185.104 131.594C185.105 131.594 185.105 131.594 185.106 131.594C185.107 131.594 185.108 131.594 185.109 131.594C185.11 131.594 185.111 131.594 185.111 131.594C185.112 131.594 185.113 131.594 185.114 131.594C185.115 131.594 185.116 131.594 185.117 131.594C185.117 131.594 185.118 131.594 185.119 131.594C185.12 131.594 185.121 131.594 185.122 131.594C185.123 131.594 185.123 131.594 185.124 131.594C185.125 131.594 185.126 131.594 185.127 131.594C185.128 131.594 185.129 131.594 185.129 131.594C185.13 131.594 185.131 131.594 185.132 131.594C185.133 131.594 185.134 131.594 185.135 131.594C185.135 131.594 185.136 131.594 185.137 131.594C185.138 131.594 185.139 131.594 185.14 131.594C185.141 131.594 185.141 131.594 185.142 131.594C185.143 131.594 185.144 131.594 185.145 131.594C185.146 131.594 185.146 131.594 185.147 131.594C185.148 131.594 185.149 131.594 185.15 131.594C185.151 131.594 185.152 131.594 185.152 131.594C185.153 131.594 185.154 131.594 185.155 131.594C185.156 131.594 185.157 131.594 185.158 131.594C185.158 131.594 185.159 131.594 185.16 131.594C185.161 131.594 185.162 131.594 185.163 131.594C185.164 131.594 185.164 131.594 185.165 131.594C185.166 131.594 185.167 131.594 185.168 131.594C185.169 131.594 185.17 131.594 185.17 131.594C185.171 131.594 185.172 131.594 185.173 131.594C185.174 131.594 185.175 131.594 185.176 131.594C185.176 131.594 185.177 131.594 185.178 131.594C185.179 131.594 185.18 131.594 185.181 131.594C185.182 131.594 185.182 131.594 185.183 131.594C185.184 131.594 185.185 131.594 185.186 131.594C185.187 131.594 185.188 131.594 185.188 131.594C185.189 131.594 185.19 131.594 185.191 131.594C185.192 131.594 185.193 131.594 185.193 131.594C185.194 131.594 185.195 131.594 185.196 131.594C185.197 131.594 185.198 131.594 185.199 131.594C185.199 131.594 185.2 131.594 185.201 131.594C185.202 131.594 185.203 131.594 185.204 131.594C185.205 131.594 185.205 131.594 185.206 131.594C185.207 131.594 185.208 131.594 185.209 131.594C185.21 131.594 185.211 131.594 185.211 131.594C185.212 131.594 185.213 131.594 185.214 131.594C185.215 131.594 185.216 131.594 185.217 131.594C185.217 131.594 185.218 131.594 185.219 131.594C185.22 131.594 185.221 131.594 185.222 131.594C185.223 131.594 185.223 131.594 185.224 131.594C185.225 131.594 185.226 131.594 185.227 131.594C185.228 131.594 185.229 131.594 185.229 131.594C185.23 131.594 185.231 131.594 185.232 131.594C185.233 131.594 185.234 131.594 185.234 131.594C185.235 131.594 185.236 131.594 185.237 131.594C185.238 131.594 185.239 131.594 185.24 131.594C185.24 131.594 185.241 131.594 185.242 131.594C185.243 131.594 185.244 131.594 185.245 131.594C185.246 131.594 185.246 131.594 185.247 131.594C185.248 131.594 185.249 131.594 185.25 131.594C185.251 131.594 185.252 131.594 185.252 131.594C185.253 131.594 185.254 131.594 185.255 131.594C185.256 131.594 185.257 131.594 185.258 131.594C185.258 131.594 185.259 131.594 185.26 131.594C185.261 131.594 185.262 131.594 185.263 131.594C185.264 131.594 185.264 131.594 185.265 131.594C185.266 131.594 185.267 131.594 185.268 131.594C185.269 131.594 185.27 131.594 185.27 131.594C185.271 131.594 185.272 131.594 185.273 131.594C185.274 131.594 185.275 131.594 185.276 131.594C185.276 131.594 185.277 131.594 185.278 131.594C185.279 131.594 185.28 131.594 185.281 131.594C185.281 131.594 185.282 131.594 185.283 131.594C185.284 131.594 185.285 131.594 185.286 131.594C185.287 131.594 185.287 131.594 185.288 131.594C185.289 131.594 185.29 131.594 185.291 131.594C185.292 131.594 185.293 131.594 185.293 131.594C185.294 131.594 185.295 131.594 185.296 131.594C185.297 131.594 185.298 131.594 185.299 131.594C185.299 131.594 185.3 131.594 185.301 131.594C185.302 131.594 185.303 131.594 185.304 131.594C185.305 131.594 185.305 131.594 185.306 131.594C185.307 131.594 185.308 131.594 185.309 131.594C185.31 131.594 185.311 131.594 185.311 131.594C185.312 131.594 185.313 131.594 185.314 131.594C185.315 131.594 185.316 131.594 185.317 131.594C185.317 131.594 185.318 131.594 185.319 131.594C185.32 131.594 185.321 131.594 185.322 131.594C185.323 131.594 185.323 131.594 185.324 131.594C185.325 131.594 185.326 131.594 185.327 131.594C185.328 131.594 185.328 131.594 185.329 131.594C185.33 131.594 185.331 131.594 185.332 131.594C185.333 131.594 185.334 131.594 185.334 131.594C185.335 131.594 185.336 131.594 185.337 131.594C185.338 131.594 185.339 131.594 185.34 131.594C185.34 131.594 185.341 131.594 185.342 131.594C185.343 131.594 185.344 131.594 185.345 131.594C185.346 131.594 185.346 131.594 185.347 131.594C185.348 131.594 185.349 131.594 185.35 131.594C185.351 131.594 185.352 131.594 185.352 131.594C185.353 131.594 185.354 131.594 185.355 131.594C185.356 131.594 185.357 131.594 185.358 131.594C185.358 131.594 185.359 131.594 185.36 131.594C185.361 131.594 185.362 131.594 185.363 131.594C185.364 131.594 185.364 131.594 185.365 131.594C185.366 131.594 185.367 131.594 185.368 131.594C185.369 131.594 185.37 131.594 185.37 131.594C185.371 131.594 185.372 131.594 185.373 131.594C185.374 131.594 185.375 131.594 185.375 131.594C185.376 131.594 185.377 131.594 185.378 131.594C185.379 131.594 185.38 131.594 185.381 131.594C185.381 131.594 185.382 131.594 185.383 131.594C185.384 131.594 185.385 131.594 185.386 131.594C185.387 131.594 185.387 131.594 185.388 131.594C185.389 131.594 185.39 131.594 185.391 131.594C185.392 131.594 185.393 131.594 185.393 131.594C185.394 131.594 185.395 131.594 185.396 131.594C185.397 131.594 185.398 131.594 185.399 131.594C185.399 131.594 185.4 131.594 185.401 131.594C185.402 131.594 185.403 131.594 185.404 131.594C185.405 131.594 185.405 131.594 185.406 131.594V129.594ZM184.094 129.594V127.594C183.704 127.594 183.314 127.58 182.924 127.552L182.781 129.547L182.639 131.542C183.124 131.576 183.609 131.594 184.094 131.594V129.594ZM182.781 129.547L181.367 128.133C180.896 128.604 180.455 129.079 180.044 129.558L181.562 130.859L183.081 132.161C183.42 131.765 183.792 131.365 184.195 130.961L182.781 129.547ZM181.562 130.859L179.99 129.624C179.614 130.103 179.255 130.598 178.914 131.109L180.578 132.219L182.242 133.328C182.526 132.902 182.824 132.491 183.135 132.095L181.562 130.859ZM180.578 132.219L178.934 131.08C178.586 131.582 178.258 132.152 177.946 132.777L179.734 133.672L181.523 134.566C181.773 134.067 182.007 133.668 182.223 133.357L180.578 132.219ZM179.734 133.672L177.967 132.736C177.65 133.335 177.297 134.093 176.912 134.993L178.75 135.781L180.588 136.569C180.953 135.719 181.257 135.071 181.502 134.608L179.734 133.672ZM178.75 135.781L176.922 134.969C176.53 135.851 176.081 136.944 175.574 138.242L177.438 138.969L179.301 139.696C179.794 138.431 180.22 137.399 180.578 136.594L178.75 135.781ZM177.438 138.969L175.574 138.242C175.069 139.537 174.455 141.158 173.734 143.101L175.609 143.797L177.485 144.492C178.201 142.561 178.806 140.963 179.301 139.696L177.438 138.969ZM175.609 143.797L173.728 143.118C173.042 145.022 172.214 147.301 171.246 149.955L173.125 150.641L175.004 151.326C175.973 148.668 176.802 146.385 177.491 144.475L175.609 143.797ZM173.125 150.641L171.249 149.948C170.277 152.58 169.151 155.679 167.868 159.245L169.75 159.922L171.632 160.599C172.912 157.04 174.035 153.951 175.001 151.333L173.125 150.641ZM169.75 159.922L167.871 159.236C165.393 166.02 162.881 171.825 160.339 176.664L162.109 177.594L163.88 178.524C166.525 173.488 169.107 167.512 171.629 160.608L169.75 159.922ZM162.109 177.594L160.337 176.668C157.833 181.461 155.194 185.337 152.435 188.333L153.906 189.688L155.378 191.042C158.431 187.726 161.261 183.539 163.882 178.52L162.109 177.594ZM153.906 189.688L152.442 188.325C149.688 191.286 146.776 193.426 143.713 194.8L144.531 196.625L145.35 198.45C148.974 196.824 152.312 194.339 155.371 191.05L153.906 189.688ZM144.531 196.625L143.727 194.794C140.662 196.14 137.252 196.828 133.469 196.828V198.828V200.828C137.748 200.828 141.713 200.047 145.336 198.456L144.531 196.625ZM133.469 198.828V196.828C128.422 196.828 124.843 195.712 122.451 193.762L121.188 195.312L119.924 196.863C123.282 199.6 127.89 200.828 133.469 200.828V198.828ZM121.188 195.312L122.46 193.769C120.165 191.878 118.922 189.136 118.922 185.234H116.922H114.922C114.922 190.083 116.523 194.06 119.915 196.856L121.188 195.312ZM116.922 185.234H118.922C118.922 183.798 119.091 182.473 119.417 181.25L117.484 180.734L115.552 180.219C115.128 181.809 114.922 183.483 114.922 185.234H116.922ZM117.484 180.734L119.417 181.25C119.753 179.988 120.19 178.927 120.708 178.045L118.984 177.031L117.261 176.017C116.529 177.261 115.965 178.668 115.552 180.219L117.484 180.734ZM118.984 177.031L120.708 178.045C121.229 177.16 121.787 176.526 122.36 176.085L121.141 174.5L119.921 172.915C118.869 173.724 117.99 174.777 117.261 176.017L118.984 177.031ZM121.141 174.5L122.331 176.107C122.874 175.705 123.355 175.562 123.812 175.562V173.562V171.562C122.395 171.562 121.095 172.045 119.95 172.893L121.141 174.5ZM123.812 173.562V175.562C124.016 175.562 124.115 175.594 124.148 175.607C124.171 175.616 124.174 175.62 124.182 175.63L125.688 174.312L127.193 172.995C126.292 171.966 125.062 171.562 123.812 171.562V173.562ZM125.688 174.312L124.273 175.727C124.275 175.729 124.28 175.733 124.286 175.744C124.293 175.756 124.307 175.781 124.322 175.825C124.353 175.917 124.391 176.089 124.391 176.375H126.391H128.391C128.391 175.138 128.066 173.863 127.102 172.898L125.688 174.312ZM126.391 176.375H124.391C124.391 176.578 124.354 176.632 124.367 176.606L126.156 177.5L127.945 178.394C128.271 177.743 128.391 177.047 128.391 176.375H126.391ZM126.156 177.5L124.299 176.757C124.31 176.731 124.321 176.709 124.331 176.693C124.341 176.677 124.348 176.668 124.35 176.665C124.354 176.66 124.336 176.683 124.277 176.726L125.453 178.344L126.629 179.961C127.198 179.547 127.716 178.986 128.013 178.243L126.156 177.5ZM125.453 178.344L124.277 176.726C124.072 176.875 123.726 177.08 123.191 177.333L124.047 179.141L124.903 180.948C125.556 180.639 126.146 180.313 126.629 179.961L125.453 178.344ZM124.047 179.141L123.191 177.333C122.638 177.595 121.921 177.909 121.032 178.277L121.797 180.125L122.562 181.973C123.485 181.591 124.268 181.249 124.903 180.948L124.047 179.141ZM121.797 180.125L120.979 178.3C119.748 178.852 118.731 179.691 118.054 180.852L119.781 181.859L121.509 182.867C121.707 182.528 122.033 182.211 122.615 181.95L121.797 180.125ZM119.781 181.859L118.073 180.819C117.34 182.024 117.125 183.643 117.125 185.328H119.125H121.125C121.125 183.825 121.348 183.132 121.49 182.899L119.781 181.859ZM119.125 185.328H117.125C117.125 189.59 118.425 193.124 121.297 195.57L122.594 194.047L123.89 192.524C122.138 191.032 121.125 188.754 121.125 185.328H119.125ZM122.594 194.047L121.309 195.58C124.134 197.947 128.184 198.953 133.094 198.953V196.953V194.953C128.629 194.953 125.678 194.022 123.878 192.514L122.594 194.047ZM133.094 196.953V198.953C135.108 198.953 136.988 198.788 138.729 198.447L138.344 196.484L137.959 194.522C136.512 194.806 134.892 194.953 133.094 194.953V196.953ZM138.344 196.484L138.729 198.447C140.542 198.092 142.24 197.449 143.814 196.519L142.797 194.797L141.779 193.075C140.603 193.77 139.333 194.252 137.959 194.522L138.344 196.484ZM142.797 194.797L143.826 196.512C145.439 195.544 146.924 194.258 148.29 192.687L146.781 191.375L145.272 190.063C144.138 191.367 142.967 192.362 141.768 193.082L142.797 194.797ZM146.781 191.375L148.274 192.706C149.67 191.139 151.028 189.191 152.357 186.891L150.625 185.891L148.893 184.89C147.659 187.027 146.455 188.736 145.288 190.044L146.781 191.375ZM150.625 185.891L152.346 186.909C153.708 184.607 155.087 181.878 156.484 178.734L154.656 177.922L152.829 177.11C151.476 180.153 150.167 182.737 148.904 184.872L150.625 185.891ZM154.656 177.922L156.477 178.749C157.901 175.617 159.445 171.945 161.11 167.736L159.25 167L157.39 166.264C155.743 170.43 154.224 174.039 152.836 177.094L154.656 177.922ZM159.25 167L161.114 167.726C162.489 164.195 163.676 161.148 164.676 158.586L162.812 157.859L160.949 157.132C159.949 159.695 158.761 162.743 157.386 166.274L159.25 167ZM162.812 157.859L164.668 158.606C165.7 156.042 166.576 153.851 167.297 152.034L165.438 151.297L163.578 150.56C162.861 152.368 161.988 154.552 160.957 157.113L162.812 157.859ZM165.438 151.297L167.29 152.05C168.04 150.208 168.664 148.678 169.163 147.462L167.312 146.703L165.462 145.944C164.961 147.165 164.335 148.699 163.585 150.543L165.438 151.297ZM167.312 146.703L169.163 147.462C169.663 146.243 170.086 145.21 170.43 144.364L168.578 143.609L166.726 142.855C166.383 143.697 165.962 144.726 165.462 145.944L167.312 146.703ZM168.578 143.609L170.406 144.422C170.774 143.594 171.088 142.921 171.351 142.394L169.562 141.5L167.774 140.606C167.474 141.204 167.133 141.937 166.751 142.797L168.578 143.609ZM169.562 141.5L171.351 142.394C171.613 141.872 171.888 141.365 172.177 140.873L170.453 139.859L168.729 138.845C168.393 139.416 168.075 140.003 167.774 140.606L169.562 141.5ZM200.828 121.812V119.812C198.656 119.812 196.467 120.14 194.267 120.783L194.828 122.703L195.389 124.623C197.252 124.078 199.063 123.812 200.828 123.812V121.812ZM194.828 122.703L194.267 120.783C192.104 121.416 190.023 122.265 188.028 123.329L188.969 125.094L189.91 126.858C191.664 125.923 193.49 125.178 195.389 124.623L194.828 122.703ZM188.969 125.094L189.039 127.093C190.857 127.029 192.615 126.917 194.313 126.757L194.125 124.766L193.937 122.774C192.323 122.927 190.643 123.034 188.899 123.095L188.969 125.094ZM194.125 124.766L194.346 126.753C196.072 126.562 197.625 126.336 198.999 126.074L198.625 124.109L198.251 122.145C197 122.383 195.553 122.595 193.904 122.778L194.125 124.766ZM198.625 124.109L198.999 126.074C200.361 125.815 201.522 125.526 202.443 125.194L201.766 123.312L201.088 121.431C200.447 121.662 199.514 121.904 198.251 122.145L198.625 124.109ZM201.766 123.312L202.508 125.169C202.975 124.983 203.476 124.74 203.894 124.405C204.279 124.097 204.938 123.428 204.938 122.375H202.938H200.938C200.938 122.016 201.055 121.731 201.168 121.549C201.273 121.382 201.375 121.298 201.395 121.282C201.422 121.26 201.337 121.33 201.023 121.456L201.766 123.312ZM202.938 122.375H204.938C204.938 121.55 204.512 120.932 204.055 120.567C203.658 120.25 203.224 120.1 202.925 120.021C202.315 119.858 201.575 119.812 200.828 119.812V121.812V123.812C201.487 123.812 201.802 123.861 201.895 123.886C201.948 123.9 201.778 123.868 201.556 123.691C201.432 123.591 201.271 123.429 201.142 123.188C201.007 122.936 200.938 122.655 200.938 122.375H202.938Z" fill="#4364A1" mask="url(#path-6-outside-1_35_17)"/>
<path d="M187.75 125.094C184.531 125.5 181.625 126.422 179.031 127.859C176.438 129.266 174.219 131.109 172.375 133.391C170.562 135.641 169.156 138.266 168.156 141.266C167.188 144.266 166.703 147.547 166.703 151.109C166.703 156.297 167.781 160.141 169.938 162.641C172.094 165.141 175.391 166.391 179.828 166.391C182.797 166.391 185.766 165.875 188.734 164.844C191.734 163.812 194.625 162.328 197.406 160.391C200.188 158.422 202.828 156.031 205.328 153.219C207.859 150.375 210.141 147.141 212.172 143.516L214.609 139.203L215.828 140.094L213.438 144.406C211.188 148.469 208.719 152.016 206.031 155.047C203.375 158.078 200.562 160.609 197.594 162.641C194.656 164.672 191.578 166.188 188.359 167.188C185.172 168.219 181.938 168.734 178.656 168.734C175.656 168.734 172.969 168.297 170.594 167.422C168.219 166.547 166.188 165.297 164.5 163.672C162.844 162.016 161.562 160.031 160.656 157.719C159.781 155.375 159.344 152.766 159.344 149.891C159.344 146.422 159.984 143.219 161.266 140.281C162.547 137.344 164.328 134.781 166.609 132.594C168.922 130.375 171.688 128.578 174.906 127.203C178.125 125.797 181.672 124.922 185.547 124.578C183.203 123.266 181.406 121.484 180.156 119.234C178.906 116.984 178.281 114.438 178.281 111.594C178.281 108.844 178.859 106.25 180.016 103.812C181.172 101.375 182.734 99.25 184.703 97.4375C186.703 95.625 189.031 94.2031 191.688 93.1719C194.344 92.1094 197.172 91.5781 200.172 91.5781C202.078 91.5781 203.828 91.8438 205.422 92.375C207.047 92.9062 208.438 93.6562 209.594 94.625C210.781 95.5938 211.688 96.75 212.312 98.0938C212.969 99.4062 213.297 100.859 213.297 102.453C213.297 105.453 212.359 108.172 210.484 110.609C208.641 113.016 206.141 115.125 202.984 116.938L202.328 115.531C203.547 114.844 204.641 114.016 205.609 113.047C206.578 112.078 207.391 111.016 208.047 109.859C208.734 108.672 209.266 107.422 209.641 106.109C210.016 104.766 210.203 103.406 210.203 102.031C210.203 99.2188 209.453 97.0781 207.953 95.6094C206.484 94.1406 204.359 93.4062 201.578 93.4062C199.141 93.4062 196.828 93.9688 194.641 95.0938C192.484 96.1875 190.594 97.6875 188.969 99.5938C187.344 101.469 186.047 103.672 185.078 106.203C184.141 108.703 183.672 111.359 183.672 114.172C183.672 116.609 184.031 118.719 184.75 120.5C185.469 122.25 186.484 123.5 187.797 124.25C187.953 124.188 188.203 124.125 188.547 124.062C188.891 124 189.219 123.969 189.531 123.969C190.406 123.969 190.844 124.188 190.844 124.625C190.844 125.125 190.391 125.375 189.484 125.375C189.172 125.375 188.859 125.344 188.547 125.281C188.234 125.219 187.969 125.156 187.75 125.094Z" fill="white"/>
<path d="M81.4922 232.414C80.4141 232.414 79.5586 232.461 78.9258 232.555C78.5156 232.613 78.1406 232.777 77.8008 233.047C77.4727 233.316 77.1855 233.621 76.9395 233.961C76.7051 234.301 76.418 234.758 76.0781 235.332C75.7266 235.953 75.4219 236.422 75.1641 236.738H74.3555L74.7949 231.008C76.7285 231.09 79.2246 231.131 82.2832 231.131L89.1387 231.113H91.4414C93.8086 231.113 95.7246 231.066 97.1895 230.973L97.752 236.756H96.9082C96.7324 236.545 96.5508 236.281 96.3633 235.965C96.1758 235.637 96.0527 235.426 95.9941 235.332C95.5254 234.5 95.0859 233.85 94.6758 233.381C94.2773 232.912 93.8027 232.637 93.252 232.555C92.8535 232.496 92.4492 232.461 92.0391 232.449C91.6406 232.426 91.1367 232.414 90.5273 232.414H87.8379V249.764C87.8379 250.666 87.9902 251.34 88.2949 251.785C88.6113 252.219 89.0215 252.512 89.5254 252.664C90.041 252.816 90.8027 252.957 91.8105 253.086C91.8105 253.496 91.7988 253.801 91.7754 254H80.1387L80.1035 253.086C80.3027 253.016 80.6133 252.922 81.0352 252.805C81.7266 252.594 82.2715 252.395 82.6699 252.207C83.0684 252.02 83.3965 251.732 83.6543 251.346C83.9238 250.959 84.0586 250.432 84.0586 249.764V232.414H81.4922ZM105.275 237.723C106.834 237.723 108.252 238.062 109.529 238.742C110.818 239.41 111.838 240.371 112.588 241.625C113.338 242.867 113.713 244.314 113.713 245.967C113.713 247.619 113.338 249.084 112.588 250.361C111.838 251.627 110.836 252.611 109.582 253.314C108.328 254.006 106.957 254.352 105.469 254.352C103.992 254.352 102.609 253.994 101.32 253.279C100.031 252.564 99 251.574 98.2266 250.309C97.4531 249.031 97.0664 247.59 97.0664 245.984C97.0664 244.379 97.4414 242.949 98.1914 241.695C98.9414 240.43 99.9434 239.451 101.197 238.76C102.463 238.068 103.822 237.723 105.275 237.723ZM105.697 252.98C107.186 252.98 108.316 252.447 109.09 251.381C109.863 250.314 110.25 248.914 110.25 247.18C110.25 245.68 110.039 244.303 109.617 243.049C109.207 241.783 108.615 240.775 107.842 240.025C107.068 239.275 106.178 238.9 105.17 238.9C104.279 238.9 103.488 239.117 102.797 239.551C102.117 239.984 101.578 240.652 101.18 241.555C100.781 242.457 100.582 243.588 100.582 244.947C100.582 246.283 100.793 247.572 101.215 248.814C101.637 250.045 102.234 251.047 103.008 251.82C103.781 252.594 104.678 252.98 105.697 252.98ZM122.062 256.531C122.062 257.609 122.314 258.383 122.818 258.852C123.334 259.332 124.16 259.637 125.297 259.766C125.297 259.941 125.291 260.111 125.279 260.275C125.268 260.451 125.262 260.574 125.262 260.645H115.998C115.998 260.574 115.992 260.451 115.98 260.275C115.969 260.111 115.963 259.941 115.963 259.766C116.889 259.637 117.592 259.32 118.072 258.816C118.553 258.324 118.793 257.615 118.793 256.689V241.449C118.594 241.098 118.213 240.775 117.65 240.482C117.1 240.189 116.555 239.943 116.016 239.744L115.875 239.691V239.094L120.621 237.863H121.816L121.957 240.746C122.824 239.785 123.697 239.041 124.576 238.514C125.455 237.986 126.457 237.723 127.582 237.723C128.906 237.723 130.084 238.045 131.115 238.689C132.146 239.322 132.949 240.236 133.523 241.432C134.098 242.615 134.385 244.01 134.385 245.615C134.385 247.326 134.033 248.844 133.33 250.168C132.639 251.48 131.684 252.506 130.465 253.244C129.246 253.971 127.881 254.334 126.369 254.334C125.584 254.334 124.828 254.193 124.102 253.912C123.375 253.631 122.695 253.221 122.062 252.682V256.531ZM122.062 247.9C122.062 248.861 122.238 249.717 122.59 250.467C122.953 251.205 123.48 251.791 124.172 252.225C124.863 252.646 125.684 252.857 126.633 252.857C128.098 252.857 129.211 252.289 129.973 251.152C130.734 250.016 131.115 248.457 131.115 246.477C131.115 245.059 130.893 243.863 130.447 242.891C130.002 241.918 129.416 241.197 128.689 240.729C127.963 240.248 127.166 240.008 126.299 240.008C124.916 240.008 123.504 240.705 122.062 242.1V247.9ZM166.131 254.158C165.943 254.193 165.756 254.211 165.568 254.211C165.346 254.211 165.012 254.176 164.566 254.105C164.121 254.035 163.781 254 163.547 254H145.512L145.477 253.139C145.84 252.939 146.174 252.799 146.479 252.717C146.795 252.623 147.141 252.547 147.516 252.488C147.984 252.406 148.324 252.301 148.535 252.172C148.758 252.043 148.928 251.768 149.045 251.346C149.162 250.912 149.221 250.232 149.221 249.307V236C149.221 235.086 149.145 234.412 148.992 233.979C148.852 233.545 148.641 233.246 148.359 233.082C148.078 232.906 147.609 232.719 146.953 232.52C146.848 232.484 146.643 232.42 146.338 232.326C146.045 232.232 145.758 232.127 145.477 232.01L145.512 231.113H163.441C163.605 231.113 163.781 231.102 163.969 231.078C164.168 231.055 164.309 231.037 164.391 231.025C164.742 230.967 165.059 230.938 165.34 230.938C165.586 230.938 165.803 230.961 165.99 231.008V236.475L165.076 236.51C164.877 236.311 164.713 236.088 164.584 235.842C164.455 235.596 164.309 235.273 164.145 234.875C163.91 234.289 163.676 233.832 163.441 233.504C163.219 233.176 162.885 232.936 162.439 232.783C161.783 232.572 160.969 232.438 159.996 232.379C159.023 232.32 157.898 232.291 156.621 232.291C155.121 232.291 153.938 232.344 153.07 232.449C153.023 232.977 153 233.58 153 234.26V241.396H158.062C158.988 241.396 159.68 241.326 160.137 241.186C160.594 241.045 160.945 240.816 161.191 240.5C161.449 240.184 161.801 239.621 162.246 238.812L162.51 238.338H163.512V245.879L162.51 245.932C162.135 244.924 161.654 244.139 161.068 243.576C160.494 243.014 159.721 242.732 158.748 242.732H153V248.656C153 249.887 153.141 250.795 153.422 251.381C153.715 251.967 154.131 252.348 154.67 252.523C155.221 252.688 156 252.77 157.008 252.77H158.73C160.207 252.77 161.479 252.605 162.545 252.277C163.623 251.938 164.42 251.252 164.936 250.221L165.182 249.676C165.393 249.219 165.562 248.879 165.691 248.656C165.82 248.422 165.984 248.199 166.184 247.988H167.291L166.131 254.158ZM180.791 242.908C180.627 242.92 180.352 242.926 179.965 242.926C179.625 241.742 179.109 240.775 178.418 240.025C177.738 239.275 176.865 238.9 175.799 238.9C175.061 238.9 174.475 239.082 174.041 239.445C173.619 239.809 173.408 240.336 173.408 241.027C173.408 241.508 173.584 241.953 173.936 242.363C174.287 242.773 174.715 243.137 175.219 243.453C175.734 243.758 176.408 244.121 177.24 244.543C177.439 244.637 177.738 244.789 178.137 245C179.449 245.703 180.404 246.424 181.002 247.162C181.611 247.889 181.916 248.779 181.916 249.834C181.916 250.807 181.676 251.633 181.195 252.312C180.715 252.98 180.053 253.49 179.209 253.842C178.365 254.182 177.398 254.352 176.309 254.352C175.348 254.352 174.375 254.234 173.391 254C172.406 253.777 171.598 253.473 170.965 253.086V248.797C171.422 248.738 171.732 248.709 171.896 248.709C172.166 250.01 172.641 251.07 173.32 251.891C174.012 252.711 174.955 253.121 176.15 253.121C177.006 253.121 177.715 252.91 178.277 252.488C178.852 252.055 179.139 251.486 179.139 250.783C179.139 250.338 179.01 249.945 178.752 249.605C178.494 249.266 178.16 248.967 177.75 248.709C177.34 248.451 176.725 248.105 175.904 247.672C174.803 247.086 173.965 246.611 173.391 246.248C172.5 245.697 171.826 245.082 171.369 244.402C170.924 243.723 170.701 242.914 170.701 241.977C170.701 241.074 170.93 240.307 171.387 239.674C171.844 239.029 172.465 238.543 173.25 238.215C174.035 237.887 174.92 237.723 175.904 237.723C176.807 237.723 177.662 237.834 178.471 238.057C179.291 238.279 180.029 238.596 180.686 239.006L180.791 242.908ZM199.107 250.695C198.861 251.48 198.422 252.148 197.789 252.699C197.156 253.25 196.412 253.666 195.557 253.947C194.701 254.217 193.811 254.352 192.885 254.352C191.268 254.352 189.867 253.977 188.684 253.227C187.512 252.465 186.621 251.457 186.012 250.203C185.402 248.949 185.098 247.59 185.098 246.125C185.098 244.578 185.467 243.166 186.205 241.889C186.943 240.6 187.98 239.586 189.316 238.848C190.652 238.098 192.17 237.723 193.869 237.723C194.854 237.723 195.756 237.869 196.576 238.162C197.396 238.443 198.041 238.848 198.51 239.375C198.99 239.902 199.23 240.512 199.23 241.203C199.23 241.73 199.061 242.117 198.721 242.363C198.381 242.598 198.018 242.715 197.631 242.715C197.268 242.715 196.986 242.65 196.787 242.521C196.588 242.381 196.441 242.217 196.348 242.029C196.266 241.83 196.184 241.555 196.102 241.203C196.008 240.758 195.891 240.395 195.75 240.113C195.621 239.832 195.375 239.586 195.012 239.375C194.648 239.164 194.127 239.047 193.447 239.023C192.545 238.988 191.701 239.211 190.916 239.691C190.131 240.16 189.498 240.863 189.018 241.801C188.549 242.738 188.314 243.863 188.314 245.176C188.314 246.395 188.531 247.514 188.965 248.533C189.398 249.553 190.031 250.367 190.863 250.977C191.707 251.586 192.715 251.891 193.887 251.891C194.906 251.891 195.756 251.768 196.436 251.521C197.115 251.275 197.818 250.865 198.545 250.291L199.107 250.695ZM207.633 249.939C207.633 250.49 207.691 250.982 207.809 251.416C207.938 251.838 208.236 252.213 208.705 252.541C209.174 252.869 209.877 253.062 210.814 253.121L210.797 254H201.639C201.639 253.906 201.633 253.754 201.621 253.543C201.621 253.332 201.627 253.168 201.639 253.051L202.219 252.893C202.84 252.729 203.285 252.576 203.555 252.436C203.824 252.295 204.023 252.049 204.152 251.697C204.293 251.334 204.363 250.783 204.363 250.045V241.203C204.211 240.945 203.93 240.711 203.52 240.5C203.109 240.277 202.682 240.096 202.236 239.955C201.803 239.814 201.586 239.75 201.586 239.762L201.621 239.146L206.297 237.898H207.299L207.58 241.133C208.236 239.926 208.916 239.07 209.619 238.566C210.334 238.062 211.148 237.811 212.062 237.811C212.531 237.811 212.953 237.91 213.328 238.109C213.715 238.297 214.014 238.543 214.225 238.848C214.447 239.141 214.559 239.439 214.559 239.744C214.559 239.943 214.5 240.213 214.383 240.553C214.277 240.893 214.107 241.191 213.873 241.449C213.65 241.707 213.375 241.836 213.047 241.836C212.672 241.836 212.379 241.754 212.168 241.59C211.957 241.414 211.74 241.156 211.518 240.816C211.354 240.559 211.195 240.365 211.043 240.236C210.902 240.107 210.721 240.043 210.498 240.043C210.123 240.043 209.783 240.154 209.479 240.377C209.186 240.588 208.928 240.852 208.705 241.168C208.482 241.484 208.213 241.906 207.896 242.434L207.633 242.873V249.939ZM224.279 237.723C225.838 237.723 227.256 238.062 228.533 238.742C229.822 239.41 230.842 240.371 231.592 241.625C232.342 242.867 232.717 244.314 232.717 245.967C232.717 247.619 232.342 249.084 231.592 250.361C230.842 251.627 229.84 252.611 228.586 253.314C227.332 254.006 225.961 254.352 224.473 254.352C222.996 254.352 221.613 253.994 220.324 253.279C219.035 252.564 218.004 251.574 217.23 250.309C216.457 249.031 216.07 247.59 216.07 245.984C216.07 244.379 216.445 242.949 217.195 241.695C217.945 240.43 218.947 239.451 220.201 238.76C221.467 238.068 222.826 237.723 224.279 237.723ZM224.701 252.98C226.189 252.98 227.32 252.447 228.094 251.381C228.867 250.314 229.254 248.914 229.254 247.18C229.254 245.68 229.043 244.303 228.621 243.049C228.211 241.783 227.619 240.775 226.846 240.025C226.072 239.275 225.182 238.9 224.174 238.9C223.283 238.9 222.492 239.117 221.801 239.551C221.121 239.984 220.582 240.652 220.184 241.555C219.785 242.457 219.586 243.588 219.586 244.947C219.586 246.283 219.797 247.572 220.219 248.814C220.641 250.045 221.238 251.047 222.012 251.82C222.785 252.594 223.682 252.98 224.701 252.98ZM242.666 249.729L245.883 241.906C245.66 241.109 245.303 240.441 244.811 239.902C244.318 239.363 243.691 239.076 242.93 239.041L242.965 238.197H250.734C250.758 238.596 250.77 238.877 250.77 239.041C250.617 239.111 250.377 239.205 250.049 239.322C249.604 239.475 249.275 239.627 249.064 239.779C248.854 239.932 248.748 240.172 248.748 240.5C248.748 240.746 248.854 241.156 249.064 241.73L251.93 249.588L254.672 242.188C254.895 241.613 255.006 241.133 255.006 240.746C255.006 240.395 254.953 240.131 254.848 239.955C254.742 239.768 254.596 239.633 254.408 239.551C254.221 239.469 253.928 239.375 253.529 239.27L252.879 239.094C252.855 238.93 252.844 238.789 252.844 238.672C252.844 238.566 252.855 238.408 252.879 238.197H259.049V239.129C258.721 239.176 258.357 239.322 257.959 239.568C257.572 239.814 257.221 240.113 256.904 240.465C256.6 240.805 256.389 241.133 256.271 241.449L251.525 254.246C251.408 254.316 251.232 254.352 250.998 254.352C250.775 254.352 250.594 254.316 250.453 254.246L246.463 243.523L242.227 254.246C242.086 254.316 241.904 254.352 241.682 254.352C241.436 254.352 241.248 254.316 241.119 254.246L236.215 241.713C235.992 241.139 235.793 240.693 235.617 240.377C235.441 240.061 235.207 239.791 234.914 239.568C234.633 239.334 234.258 239.164 233.789 239.059L233.824 238.197H241.066C241.078 238.396 241.084 238.678 241.084 239.041C240.521 239.229 240.082 239.439 239.766 239.674C239.461 239.908 239.309 240.242 239.309 240.676C239.309 240.875 239.338 241.062 239.396 241.238C239.396 241.285 239.402 241.326 239.414 241.361L242.666 249.729Z" fill="white"/>
<line x1="83" y1="98" x2="83" y2="202" stroke="white" stroke-width="6"/>
</svg>
