<svg width="238" height="179" viewBox="0 0 238 179" fill="none" xmlns="http://www.w3.org/2000/svg">
<path d="M61.551 72.2H97.903V79.432H84.079V117H75.439V79.432H61.551V72.2ZM118.496 117.448C115.381 117.448 112.608 116.787 110.176 115.464C107.744 114.099 105.824 112.2 104.416 109.768C103.051 107.293 102.368 104.392 102.368 101.064C102.368 97.6933 103.072 94.7707 104.48 92.296C105.931 89.8213 107.893 87.9227 110.368 86.6C112.843 85.2347 115.616 84.552 118.688 84.552C121.76 84.552 124.533 85.2347 127.008 86.6C129.483 87.9227 131.445 89.8213 132.896 92.296C134.347 94.728 135.072 97.608 135.072 100.936C135.072 104.307 134.325 107.229 132.832 109.704C131.381 112.179 129.397 114.099 126.88 115.464C124.405 116.787 121.611 117.448 118.496 117.448ZM118.432 110.088C119.755 110.088 121.013 109.768 122.208 109.128C123.403 108.445 124.384 107.443 125.152 106.12C125.92 104.755 126.304 103.027 126.304 100.936C126.304 98.9307 125.941 97.2667 125.216 95.944C124.491 94.5787 123.531 93.576 122.336 92.936C121.184 92.2533 119.925 91.912 118.56 91.912C117.237 91.912 116 92.2533 114.848 92.936C113.739 93.576 112.843 94.5787 112.16 95.944C111.52 97.2667 111.2 98.9733 111.2 101.064C111.2 103.069 111.52 104.755 112.16 106.12C112.8 107.443 113.675 108.445 114.784 109.128C115.893 109.768 117.109 110.088 118.432 110.088ZM148.511 112.2L149.535 112.072V129.8H141.343V85H148.767L149.279 88.968C150.218 87.7307 151.54 86.6853 153.247 85.832C154.954 84.9787 156.916 84.552 159.135 84.552C161.908 84.552 164.362 85.2347 166.495 86.6C168.628 87.9653 170.292 89.8853 171.487 92.36C172.724 94.792 173.343 97.672 173.343 101C173.343 104.328 172.724 107.229 171.487 109.704C170.292 112.179 168.628 114.099 166.495 115.464C164.404 116.787 161.951 117.448 159.135 117.448C156.66 117.448 154.506 116.936 152.671 115.912C150.879 114.888 149.492 113.651 148.511 112.2ZM164.511 101C164.511 98.312 163.807 96.1573 162.399 94.536C161.034 92.872 159.242 92.04 157.023 92.04C155.658 92.04 154.399 92.4027 153.247 93.128C152.138 93.8107 151.242 94.8133 150.559 96.136C149.876 97.416 149.535 99.0373 149.535 101C149.535 102.92 149.876 104.541 150.559 105.864C151.242 107.187 152.138 108.211 153.247 108.936C154.399 109.619 155.658 109.96 157.023 109.96C159.242 109.96 161.034 109.149 162.399 107.528C163.807 105.864 164.511 103.688 164.511 101Z" fill="#4364A1"/>
<path d="M48.215 140.432H25.367V151.824H42.455V158.8H25.367V170.768H48.215V178H16.727V133.2H48.215V140.432ZM61.0405 167.568C61.2965 168.635 61.7232 169.445 62.3205 170C62.9605 170.555 63.6645 170.96 64.4325 171.216C65.2432 171.429 66.0538 171.536 66.8645 171.536C68.3578 171.536 69.5312 171.259 70.3845 170.704C71.2378 170.107 71.6645 169.36 71.6645 168.464C71.6645 167.696 71.3658 167.099 70.7685 166.672C70.1712 166.203 69.4032 165.861 68.4645 165.648C67.5258 165.392 66.5658 165.136 65.5845 164.88C64.4325 164.581 63.1952 164.261 61.8725 163.92C60.5925 163.536 59.3765 163.003 58.2245 162.32C57.0725 161.637 56.1125 160.763 55.3445 159.696C54.5765 158.587 54.1925 157.2 54.1925 155.536C54.1925 153.573 54.7258 151.845 55.7925 150.352C56.9018 148.859 58.4165 147.685 60.3365 146.832C62.2992 145.979 64.5605 145.552 67.1205 145.552C70.1498 145.552 72.7098 146.192 74.8005 147.472C76.8912 148.752 78.4058 150.587 79.3445 152.976L72.1125 155.024C71.8992 154.427 71.5365 153.936 71.0245 153.552C70.5125 153.168 69.8938 152.891 69.1685 152.72C68.4858 152.549 67.7818 152.464 67.0565 152.464C65.8192 152.464 64.7952 152.72 63.9845 153.232C63.1738 153.701 62.7685 154.363 62.7685 155.216C62.7685 155.728 62.9178 156.155 63.2165 156.496C63.5152 156.795 63.9205 157.051 64.4325 157.264C64.9872 157.477 65.6058 157.669 66.2885 157.84C67.0138 158.011 67.8032 158.203 68.6565 158.416C69.9792 158.757 71.3018 159.163 72.6245 159.632C73.9898 160.059 75.2272 160.613 76.3365 161.296C77.4885 161.979 78.4058 162.896 79.0885 164.048C79.7712 165.2 80.1552 166.651 80.2405 168.4C80.2405 170.277 79.7072 171.984 78.6405 173.52C77.5738 175.013 76.0378 176.208 74.0325 177.104C72.0272 178 69.5952 178.448 66.7365 178.448C63.4085 178.448 60.5712 177.744 58.2245 176.336C55.9205 174.928 54.4058 172.731 53.6805 169.744L61.0405 167.568ZM100.611 178.448C97.4958 178.448 94.7652 177.765 92.4185 176.4C90.0718 175.035 88.2372 173.136 86.9145 170.704C85.5918 168.229 84.9305 165.371 84.9305 162.128C84.9305 158.843 85.5918 155.963 86.9145 153.488C88.2372 151.013 90.0932 149.072 92.4825 147.664C94.8718 146.256 97.6238 145.552 100.739 145.552C104.109 145.552 107.096 146.384 109.699 148.048C112.344 149.712 114.2 151.952 115.267 154.768L107.651 156.944C107.139 155.707 106.285 154.725 105.091 154C103.939 153.275 102.616 152.912 101.123 152.912C99.6292 152.912 98.3065 153.296 97.1545 154.064C96.0452 154.832 95.1705 155.899 94.5305 157.264C93.9332 158.629 93.6345 160.229 93.6345 162.064C93.6345 164.837 94.3172 167.035 95.6825 168.656C97.0478 170.277 98.8825 171.088 101.187 171.088C102.637 171.088 103.96 170.747 105.155 170.064C106.349 169.339 107.245 168.357 107.843 167.12L115.395 169.296C114.243 172.069 112.323 174.288 109.635 175.952C106.989 177.616 103.981 178.448 100.611 178.448ZM121.656 146H129.08L129.656 150.096C130.552 148.987 131.554 148.091 132.664 147.408C133.816 146.683 135.074 146.192 136.44 145.936C137.805 145.637 139.234 145.659 140.728 146V153.68C139.576 153.296 138.36 153.189 137.08 153.36C135.842 153.531 134.669 153.979 133.56 154.704C132.493 155.429 131.597 156.475 130.872 157.84C130.189 159.163 129.848 160.848 129.848 162.896V178H121.656V146ZM160.496 178.448C157.381 178.448 154.608 177.787 152.176 176.464C149.744 175.099 147.824 173.2 146.416 170.768C145.051 168.293 144.368 165.392 144.368 162.064C144.368 158.693 145.072 155.771 146.48 153.296C147.931 150.821 149.893 148.923 152.368 147.6C154.843 146.235 157.616 145.552 160.688 145.552C163.76 145.552 166.533 146.235 169.008 147.6C171.483 148.923 173.445 150.821 174.896 153.296C176.347 155.728 177.072 158.608 177.072 161.936C177.072 165.307 176.325 168.229 174.832 170.704C173.381 173.179 171.397 175.099 168.88 176.464C166.405 177.787 163.611 178.448 160.496 178.448ZM160.432 171.088C161.755 171.088 163.013 170.768 164.208 170.128C165.403 169.445 166.384 168.443 167.152 167.12C167.92 165.755 168.304 164.027 168.304 161.936C168.304 159.931 167.941 158.267 167.216 156.944C166.491 155.579 165.531 154.576 164.336 153.936C163.184 153.253 161.925 152.912 160.56 152.912C159.237 152.912 158 153.253 156.848 153.936C155.739 154.576 154.843 155.579 154.16 156.944C153.52 158.267 153.2 159.973 153.2 162.064C153.2 164.069 153.52 165.755 154.16 167.12C154.8 168.443 155.675 169.445 156.784 170.128C157.893 170.768 159.109 171.088 160.432 171.088ZM198.575 178H190.191L180.719 146H189.167L194.479 167.632L200.111 146H208.303L213.743 167.632L218.991 146H227.375L217.903 178H209.327L204.015 157.904L198.575 178Z" fill="#4364A1"/>
<path d="M61 54L144.024 7L229 54" stroke="#4364A1" stroke-width="12" stroke-linecap="square"/>
<path d="M9 56L92.2506 9L113.253 20.75" stroke="#4364A1" stroke-width="12" stroke-linecap="square"/>
<path d="M181 24.9362V12H197V31" stroke="#4364A1" stroke-width="12" stroke-linecap="square"/>
</svg>
