<svg width="903" height="400" viewBox="0 0 903 400" fill="none" xmlns="http://www.w3.org/2000/svg">
<path d="M580.471 340.195C510.779 331.326 360.471 422.698 331.471 391.195C302.471 359.693 166.97 422.693 103.971 371.693C40.9711 320.693 79.9704 289.693 16.9706 219.193C-46.0291 148.693 101.471 158.693 241.971 71.6934C382.471 -15.3066 461.971 52.1937 495.971 52.1937C529.971 52.1937 609.972 -3.80404 691.972 6.19596C773.972 16.196 720.971 88.6944 737.971 129.694C754.97 170.694 863.971 151.696 885.471 195.196C906.97 238.696 911.971 299.195 858.972 340.195C805.972 381.195 656.874 349.919 580.471 340.195Z" stroke="white" stroke-width="3"/>
<path d="M798.481 39H131.519C124.053 39 118 42.2703 118 46.3043V87.6956C118 91.7297 124.053 95 131.519 95H798.481C805.947 95 812 91.7297 812 87.6956V46.3043C812 42.2703 805.947 39 798.481 39Z" fill="#E6E6E6"/>
<path d="M386.812 200.77H127.153C124.727 200.767 122.4 199.707 120.684 197.824C118.968 195.94 118.003 193.386 118 190.722V160.048C118.003 157.384 118.968 154.83 120.684 152.947C122.4 151.063 124.727 150.003 127.153 150H386.812C389.239 150.003 391.565 151.063 393.281 152.947C394.997 154.83 395.963 157.384 395.966 160.048V190.723C395.963 193.387 394.997 195.941 393.281 197.825C391.565 199.708 389.239 200.768 386.812 200.771V200.77ZM127.153 151.051C124.982 151.054 122.9 152.002 121.365 153.687C119.83 155.373 118.966 157.658 118.964 160.042V190.716C118.966 193.1 119.83 195.385 121.365 197.071C122.9 198.756 124.982 199.704 127.153 199.707H386.812C388.984 199.704 391.065 198.756 392.601 197.071C394.136 195.385 395 193.1 395.002 190.716V160.048C395 157.664 394.137 155.379 392.601 153.693C391.066 152.007 388.984 151.058 386.812 151.056L127.153 151.051Z" fill="#CCCCCC"/>
<path d="M162.24 192.875C159.089 192.875 156.009 191.85 153.389 189.928C150.769 188.006 148.727 185.274 147.521 182.078C146.316 178.883 146 175.366 146.615 171.973C147.229 168.581 148.747 165.464 150.975 163.018C153.203 160.572 156.042 158.906 159.132 158.232C162.223 157.557 165.426 157.903 168.337 159.227C171.248 160.551 173.736 162.792 175.487 165.669C177.237 168.545 178.172 171.926 178.172 175.385C178.172 180.024 176.493 184.473 173.506 187.753C170.518 191.033 166.466 192.875 162.24 192.875Z" fill="#2B426D"/>
<path d="M363.292 189.665H193.237C192.726 189.674 192.218 189.572 191.743 189.363C191.269 189.155 190.836 188.844 190.472 188.451C190.107 188.057 189.818 187.587 189.62 187.07C189.423 186.552 189.321 185.996 189.321 185.435C189.321 184.873 189.423 184.317 189.62 183.799C189.818 183.282 190.107 182.812 190.472 182.418C190.836 182.025 191.269 181.714 191.743 181.506C192.218 181.297 192.726 181.195 193.237 181.204H363.292C364.314 181.204 365.294 181.649 366.017 182.443C366.74 183.237 367.146 184.313 367.146 185.435C367.146 186.557 366.74 187.634 366.017 188.427C365.294 189.221 364.314 189.666 363.292 189.666V189.665Z" fill="#2B426D"/>
<path d="M307.888 171.684H193.232C192.21 171.684 191.23 171.238 190.507 170.445C189.784 169.651 189.378 168.575 189.378 167.453C189.378 166.33 189.784 165.254 190.507 164.461C191.23 163.667 192.21 163.221 193.232 163.221H307.888C308.399 163.212 308.907 163.315 309.382 163.523C309.857 163.732 310.289 164.042 310.653 164.436C311.018 164.83 311.307 165.299 311.505 165.817C311.703 166.335 311.804 166.891 311.804 167.452C311.804 168.014 311.703 168.569 311.505 169.087C311.307 169.605 311.018 170.074 310.653 170.468C310.289 170.862 309.857 171.172 309.382 171.381C308.907 171.589 308.399 171.693 307.888 171.684Z" fill="#2B426D"/>
<path d="M386.812 286.884H127.153C124.727 286.881 122.4 285.822 120.684 283.938C118.968 282.054 118.003 279.5 118 276.836V246.163C118.003 243.499 118.968 240.945 120.684 239.061C122.4 237.177 124.727 236.117 127.153 236.114H386.812C389.239 236.117 391.565 237.177 393.281 239.061C394.997 240.945 395.963 243.499 395.966 246.163V276.837C395.963 279.501 394.997 282.055 393.281 283.939C391.565 285.823 389.239 286.882 386.812 286.886V286.884ZM127.153 237.165C124.982 237.168 122.9 238.116 121.365 239.802C119.83 241.487 118.966 243.772 118.964 246.156V276.83C118.966 279.214 119.83 281.499 121.365 283.185C122.9 284.87 124.982 285.818 127.153 285.821H386.812C388.984 285.818 391.065 284.87 392.601 283.185C394.136 281.499 395 279.214 395.002 276.83V246.163C395 243.779 394.137 241.493 392.601 239.807C391.066 238.121 388.984 237.173 386.812 237.17L127.153 237.165Z" fill="#CCCCCC"/>
<path d="M162.24 278.99C159.089 278.99 156.009 277.964 153.389 276.042C150.769 274.12 148.727 271.389 147.521 268.193C146.316 264.997 146 261.48 146.615 258.088C147.229 254.695 148.747 251.578 150.975 249.132C153.203 246.686 156.042 245.021 159.132 244.346C162.223 243.671 165.426 244.017 168.337 245.341C171.248 246.665 173.736 248.907 175.487 251.783C177.237 254.659 178.172 258.04 178.172 261.5C178.172 266.138 176.493 270.587 173.506 273.867C170.518 277.147 166.466 278.99 162.24 278.99Z" fill="#E6E6E6"/>
<path d="M363.292 275.779H193.237C192.726 275.788 192.218 275.685 191.743 275.476C191.269 275.268 190.836 274.958 190.472 274.564C190.107 274.17 189.818 273.701 189.62 273.183C189.423 272.665 189.321 272.109 189.321 271.548C189.321 270.986 189.423 270.431 189.62 269.913C189.818 269.395 190.107 268.925 190.472 268.532C190.836 268.138 191.269 267.828 191.743 267.619C192.218 267.411 192.726 267.308 193.237 267.317H363.292C364.314 267.317 365.294 267.763 366.017 268.556C366.74 269.35 367.146 270.426 367.146 271.548C367.146 272.671 366.74 273.747 366.017 274.54C365.294 275.334 364.314 275.78 363.292 275.78V275.779Z" fill="#E6E6E6"/>
<path d="M307.888 257.797H193.232C192.21 257.797 191.23 257.352 190.507 256.558C189.784 255.764 189.378 254.688 189.378 253.566C189.378 252.444 189.784 251.367 190.507 250.574C191.23 249.78 192.21 249.335 193.232 249.335H307.888C308.399 249.325 308.907 249.428 309.382 249.637C309.857 249.845 310.289 250.155 310.653 250.549C311.018 250.943 311.307 251.413 311.505 251.93C311.703 252.448 311.804 253.004 311.804 253.565C311.804 254.127 311.703 254.683 311.505 255.2C311.307 255.718 311.018 256.188 310.653 256.582C310.289 256.975 309.857 257.285 309.382 257.494C308.907 257.703 308.399 257.806 307.888 257.797Z" fill="#E6E6E6"/>
<path d="M386.812 372.999H127.153C124.727 372.996 122.4 371.936 120.684 370.052C118.968 368.168 118.003 365.614 118 362.95V332.277C118.003 329.613 118.968 327.059 120.684 325.175C122.4 323.291 124.727 322.232 127.153 322.229H386.812C389.239 322.232 391.565 323.291 393.281 325.175C394.997 327.059 395.963 329.613 395.966 332.277V362.951C395.963 365.615 394.997 368.169 393.281 370.053C391.565 371.937 389.239 372.997 386.812 373V372.999ZM127.153 323.28C124.982 323.282 122.9 324.23 121.365 325.916C119.83 327.601 118.966 329.887 118.964 332.27V362.945C118.966 365.328 119.83 367.614 121.365 369.299C122.9 370.985 124.982 371.933 127.153 371.935H386.812C388.984 371.933 391.065 370.985 392.601 369.299C394.136 367.614 395 365.328 395.002 362.945V332.277C395 329.893 394.137 327.607 392.601 325.921C391.066 324.235 388.984 323.287 386.812 323.284L127.153 323.28Z" fill="#CCCCCC"/>
<path d="M162.24 365.104C159.089 365.104 156.009 364.078 153.389 362.156C150.769 360.234 148.727 357.503 147.521 354.307C146.316 351.111 146 347.594 146.615 344.202C147.229 340.809 148.747 337.693 150.975 335.247C153.203 332.801 156.042 331.135 159.132 330.46C162.223 329.785 165.426 330.132 168.337 331.455C171.248 332.779 173.736 335.021 175.487 337.897C177.237 340.773 178.172 344.155 178.172 347.614C178.172 352.253 176.493 356.701 173.506 359.981C170.518 363.261 166.466 365.104 162.24 365.104Z" fill="#E6E6E6"/>
<path d="M363.292 361.894H193.237C192.726 361.903 192.218 361.8 191.743 361.592C191.269 361.383 190.836 361.073 190.472 360.679C190.107 360.285 189.818 359.816 189.62 359.298C189.423 358.78 189.321 358.224 189.321 357.663C189.321 357.102 189.423 356.546 189.62 356.028C189.818 355.51 190.107 355.041 190.472 354.647C190.836 354.253 191.269 353.943 191.743 353.734C192.218 353.526 192.726 353.423 193.237 353.432H363.292C364.314 353.432 365.294 353.878 366.017 354.672C366.74 355.465 367.146 356.541 367.146 357.664C367.146 358.786 366.74 359.862 366.017 360.656C365.294 361.449 364.314 361.895 363.292 361.895V361.894Z" fill="#E6E6E6"/>
<path d="M307.888 343.913H193.232C192.21 343.913 191.23 343.467 190.507 342.673C189.784 341.88 189.378 340.803 189.378 339.681C189.378 338.559 189.784 337.483 190.507 336.689C191.23 335.896 192.21 335.45 193.232 335.45H307.888C308.399 335.441 308.907 335.543 309.382 335.752C309.857 335.961 310.289 336.271 310.653 336.664C311.018 337.058 311.307 337.528 311.505 338.046C311.703 338.563 311.804 339.119 311.804 339.681C311.804 340.242 311.703 340.798 311.505 341.316C311.307 341.834 311.018 342.303 310.653 342.697C310.289 343.091 309.857 343.401 309.382 343.609C308.907 343.818 308.399 343.922 307.888 343.913Z" fill="#E6E6E6"/>
<path d="M550.36 264.128L544 250.848L603.36 187.103C647.244 160.64 700.143 168.275 756 187.103V205.695L700.88 280.065L637.279 296L550.36 264.128Z" fill="#2B426D"/>
<path d="M782.566 224.541C793.143 209.857 794.613 195.893 782.566 183H762.513V196.099L756.201 187.147L705.146 250.869L696.636 261.488L686 314.59L705.146 373H803V253.523L782.566 224.541Z" fill="#CCCCCC"/>
<path d="M544.12 251H705V373H544.12C524.657 346.617 534.768 298.53 544.12 251Z" fill="#F2F2F2"/>
<path d="M683 289H649V327H683V289Z" fill="#2B426D"/>
<path d="M635 288H606V373H635V288Z" fill="#CCCCCC"/>
<path d="M593 288H580V301H593V288Z" fill="#2B426D"/>
<path d="M593 312H580V325H593V312Z" fill="#2B426D"/>
<path d="M639 195.088L647.079 178.752C655.047 162.639 670.716 151.156 690.639 146.829C710.563 142.502 733.108 145.686 753.315 155.679L715.192 232.768L639 195.088Z" fill="#2B426D"/>
<path d="M623 194.093L756.146 186L812 243.923L802.125 255L713.678 252.527L623 194.093Z" fill="#2B426D"/>
<path d="M565.999 312H555V325H567V312H565.999Z" fill="#2B426D"/>
<path d="M567 302V288H555V302H565.999H567Z" fill="#2B426D"/>
<path d="M257 118C289.585 118 316 91.5848 316 59C316 26.4152 289.585 0 257 0C224.415 0 198 26.4152 198 59C198 91.5848 224.415 118 257 118Z" fill="#2B426D"/>
<path d="M255.393 91.5757V85.4547C250.928 85.394 246.61 83.8516 243.117 81.0698C241.586 79.7191 240.363 78.0553 239.53 76.1909C238.698 74.3265 238.276 72.3051 238.292 70.2634H247.006C247.038 71.2861 247.287 72.2903 247.738 73.2089C248.189 74.1275 248.83 74.9394 249.62 75.5904C251.291 76.8919 253.3 77.6861 255.409 77.8786V63.252L252.754 62.5531C249.19 61.7809 245.876 60.1331 243.109 57.7586C241.961 56.6823 241.059 55.3718 240.463 53.9161C239.866 52.4603 239.59 50.8934 239.652 49.3214C239.604 46.7879 240.312 44.2974 241.684 42.1675C243.09 40.0512 245.015 38.3314 247.276 37.1731C249.8 35.8726 252.561 35.0962 255.393 34.8905V28.6367H259.362V34.8583C262.272 34.9797 265.121 35.7243 267.717 37.0417C269.969 38.1925 271.889 39.9014 273.293 42.0053C274.644 44.0737 275.378 46.4837 275.411 48.9538H266.846C266.779 48.0942 266.542 47.2565 266.149 46.4889C265.756 45.7212 265.216 45.0388 264.558 44.4808C263.07 43.2878 261.262 42.5625 259.362 42.3967V56.1945L261.579 56.7536C263.99 57.3436 266.327 58.204 268.545 59.3186C270.683 60.3665 272.543 61.9043 273.975 63.8069C275.437 65.8839 276.173 68.3842 276.072 70.9217C276.122 72.8221 275.756 74.7104 274.998 76.4539C274.241 78.1974 273.11 79.7539 271.687 81.0139C268.764 83.6604 264.655 85.1384 259.361 85.4477V91.5687L255.393 91.5757ZM259.362 77.8493C261.456 77.6734 263.447 76.8657 265.071 75.5331C265.759 74.9675 266.311 74.2546 266.686 73.447C267.062 72.6394 267.25 71.7577 267.239 70.8672C267.275 70.0473 267.095 69.2324 266.718 68.5037C266.34 67.775 265.778 67.158 265.088 66.7143C263.322 65.6128 261.391 64.8029 259.368 64.3157L259.362 77.8493ZM255.393 55.1783V42.4401C253.534 42.6233 251.78 43.3872 250.38 44.6234C249.803 45.1517 249.343 45.7963 249.033 46.5146C248.722 47.233 248.567 48.009 248.577 48.7917C248.539 49.606 248.712 50.4163 249.079 51.144C249.446 51.8717 249.996 52.492 250.674 52.9446C252.123 53.9279 253.714 54.6823 255.393 55.1811V55.1783Z" fill="#F2F2F2"/>
</svg>
