<svg width="1493" height="722" viewBox="0 0 1493 722" fill="none" xmlns="http://www.w3.org/2000/svg">
<path d="M409.469 711.673C393.483 711.227 377.53 710.455 361.61 709.358C338.862 707.79 315.339 706.169 293.837 691.714C278.795 681.603 265.668 665.687 255.874 645.687C249.333 632.134 244.667 617.498 242.042 602.293C237.126 574.608 238.119 545.933 244.939 518.678C247.323 509.334 250.503 500.273 254.433 491.625C271.447 454.373 301.267 429.88 336.247 424.426C336.535 424.392 336.826 424.393 337.114 424.429C337.27 424.443 337.426 424.458 337.585 424.455L337.792 424.386C338.323 424.193 338.866 424.05 339.417 423.959C393.343 416.344 449.568 436.364 502.009 481.853C542.557 517.03 597.04 536.883 668.572 542.546L669.588 542.635C689.493 544.498 708.521 554.411 724.617 571.306C740.504 587.982 752.168 609.964 758.349 634.877C759.11 637.915 759.797 641.074 760.39 644.266C760.943 647.233 760.812 650.318 760.01 653.221C759.208 656.124 757.762 658.747 755.813 660.833L755.813 660.839L755.629 661.044C755.186 661.518 754.721 661.973 754.247 662.395L753.689 662.891C748.991 667.064 745.281 670.36 740.88 672.878C737.945 674.545 734.838 675.781 731.635 676.556C714.043 680.923 696.191 684.929 678.573 688.463C644.357 695.332 609.284 700.808 574.328 704.738C519.526 710.891 464.47 713.208 409.469 711.673ZM336.67 425.753C336.563 425.749 336.456 425.754 336.349 425.769C301.696 431.172 272.159 455.424 255.315 492.307C251.423 500.87 248.274 509.841 245.914 519.092C239.156 546.105 238.172 574.526 243.045 601.965C245.644 617.024 250.264 631.52 256.742 644.944C266.44 664.748 279.434 680.504 294.318 690.509C315.627 704.834 339.038 706.448 361.679 708.008C432.493 712.874 503.574 711.33 574.256 703.391C609.189 699.464 644.239 693.992 678.432 687.126C696.038 683.595 713.879 679.593 731.459 675.228C734.585 674.473 737.616 673.267 740.481 671.64C744.793 669.173 748.468 665.908 753.121 661.775L753.678 661.28C754.086 660.917 754.487 660.528 754.872 660.122L754.982 659.997C758.828 655.818 760.434 650.208 759.39 644.606L759.39 644.605C758.802 641.447 758.123 638.322 757.37 635.315C744.743 584.422 709.431 547.719 669.501 543.984L668.491 543.895C635.816 541.307 607.311 535.87 581.352 527.271C550.362 517.007 523.474 502.106 501.432 482.984C449.191 437.669 393.201 417.724 339.511 425.303C339.009 425.387 338.514 425.519 338.03 425.696L337.658 425.804C337.448 425.809 337.238 425.8 337.029 425.778C336.906 425.767 336.786 425.756 336.67 425.753Z" fill="#F0F0F0"/>
<path d="M1274.52 635.574L1281 629.869L1280.01 626.728L1274.47 631.6L1274.06 591.624V591.619L1274.05 590.772V590.621L1273.83 570.113L1273.53 541.209L1273.3 519H1273.18L1272.95 539.499V539.504L1272.62 569.743L1272.39 590.608L1272.39 590.782L1272.32 596.735L1271.01 716.154L1271 716.942L1275.39 719L1275.38 718.205L1274.52 635.574Z" fill="white"/>
<path d="M891 196C945.124 196 989 152.124 989 98C989 43.8761 945.124 0 891 0C836.876 0 793 43.8761 793 98C793 152.124 836.876 196 891 196Z" fill="#AEAEAE"/>
<path d="M844.169 94.0787C840.591 80.1638 833.669 67.7956 824.255 58.4955C814.842 49.1953 803.347 43.3687 791.184 41.7322C790.909 41.6862 790.648 41.747 790.374 41.726C790.021 41.5975 789.66 41.4987 789.295 41.4303C731.421 32.5387 664.615 65.4428 640.494 130.667C634.609 121.127 626.859 113.434 617.913 108.252C608.968 103.07 599.095 100.554 589.149 100.923C576.323 101.939 564.073 107.629 554.065 117.218C544.057 126.807 536.779 139.83 533.22 154.513C532.841 156.31 532.954 158.204 533.541 159.92C534.129 161.636 535.161 163.085 536.487 164.057C540.31 167.908 544.838 170.64 549.709 172.035C560.219 174.682 570.767 177.107 581.352 179.31C602.007 183.606 622.77 187.08 643.64 189.732C686.006 195.129 728.634 197.044 771.221 195.464C785.405 194.939 799.084 194.379 812.08 186.937C821.534 181.386 829.612 173.007 835.519 162.623C841.084 152.642 844.742 141.333 846.237 129.491C847.731 117.649 847.025 105.562 844.169 94.0787Z" fill="#F0F0F0"/>
<path d="M1368.35 430.864C1367.35 444.225 1363.11 457.293 1355.86 469.307C1341.92 492.292 1317.45 509.72 1286.96 516.221C1286.91 516.243 1286.85 516.253 1286.79 516.248C1279.12 517.879 1271.24 518.793 1263.32 518.973H1262.66C1261.83 519 1261 519 1260.17 519C1259.61 519 1259.05 519 1258.48 518.973C1230.09 518.616 1203.01 509.177 1183.09 492.692C1163.17 476.207 1152 453.999 1152 430.864V429.893C1152.05 424.268 1153.05 418.676 1154.98 413.274C1154.98 413.247 1155.01 413.22 1155.01 413.193C1158.61 403.807 1165.1 395.328 1173.85 388.563C1195.54 371.081 1229.88 360.101 1260.17 342.728C1326.53 304.689 1375.27 342.539 1368.35 430.864Z" fill="#E5E5E5"/>
<path d="M989.414 135.858H989.589V135.618C989.536 135.702 989.477 135.781 989.414 135.858ZM988.246 34.1693C987.859 33.6835 987.465 33.1978 987.056 32.7193C979.001 23.0572 968.882 15.1497 957.376 9.52487C945.869 3.90003 933.239 0.687368 920.33 0.101502C919.754 0.0724792 919.178 0.0507401 918.601 0.036267C917.737 0.0145136 916.872 1.23665e-05 916 1.23665e-05C903.458 -0.00639011 891.051 2.47332 879.563 7.28259C868.074 12.0919 857.753 19.1262 849.252 27.9415C848.728 28.4707 848.228 29.0073 847.735 29.5438C846.772 30.5805 845.841 31.639 844.944 32.7193C844.535 33.1978 844.141 33.6835 843.754 34.1693C830.938 50.1421 824.328 69.8767 825.054 89.9954C825.78 110.114 833.798 129.366 847.735 144.456C848.228 144.993 848.728 145.529 849.252 146.059C858.416 155.547 869.678 162.963 882.217 167.767C894.757 172.57 908.259 174.641 921.741 173.828C935.223 173.014 948.346 169.338 960.155 163.066C971.964 156.793 982.161 148.083 990.006 137.569C990.34 137.119 990.673 136.67 990.999 136.213C999.409 124.564 1004.69 111.117 1006.39 97.0557C1006.45 96.5772 1006.51 96.0915 1006.55 95.6057C1006.85 92.7783 1007 89.9097 1007 87C1007.02 67.893 1000.43 49.3162 988.246 34.1693ZM1004.86 97.0558C1003.21 110.553 998.191 123.472 990.226 134.727C990.021 135.024 989.808 135.321 989.589 135.618C989.536 135.702 989.477 135.781 989.414 135.858C989.361 135.937 989.301 136.017 989.24 136.097C981.504 146.664 971.367 155.42 959.587 161.708C947.808 167.996 934.693 171.653 921.225 172.405C907.757 173.157 894.285 170.984 881.82 166.049C869.356 161.115 858.221 153.547 849.251 143.912C848.728 143.361 848.22 142.81 847.735 142.245C834.4 127.225 826.909 108.258 826.532 88.5602C826.154 68.8625 832.914 49.6461 845.665 34.1692C846.067 33.6835 846.468 33.1977 846.885 32.7192C847.159 32.393 847.439 32.074 847.735 31.755C848.22 31.1895 848.728 30.6385 849.251 30.0875C857.629 21.0757 867.909 13.8639 879.415 8.92766C890.92 3.99143 903.389 1.44286 916 1.44998C917.13 1.44998 918.252 1.47172 919.367 1.51522C919.951 1.52971 920.527 1.55873 921.104 1.58772C933.445 2.26221 945.506 5.37717 956.524 10.7357C967.542 16.0942 977.277 23.5798 985.115 32.7192C985.531 33.1977 985.934 33.6835 986.335 34.1692C1000.64 51.5653 1007.35 73.5854 1005.04 95.6057C1004.98 96.0915 1004.93 96.5773 1004.86 97.0558ZM989.414 135.858H989.589V135.618C989.536 135.702 989.477 135.781 989.414 135.858Z" fill="#CCCCCC"/>
<path d="M1493 461.065C1493 463.119 1492.93 465.156 1492.78 467.176C1491.94 478.824 1488.63 490.226 1483.04 500.781C1482.99 500.871 1482.94 500.955 1482.9 501.039C1482.64 501.528 1482.37 502.018 1482.1 502.501C1480.43 505.486 1478.59 508.388 1476.57 511.194C1467.34 524.074 1454.69 534.731 1439.74 542.224C1424.79 549.717 1408 553.814 1390.85 554.155L1391.88 607.111L1405.37 600.787L1407.77 604.863L1391.98 612.268L1393.91 710.62L1393.94 711.933L1383.51 714L1383.53 712.68L1386.81 554.162C1373.01 553.985 1359.38 551.368 1346.72 546.463C1334.06 541.557 1322.62 534.46 1313.07 525.585C1312.41 524.98 1311.76 524.355 1311.12 523.737L1311.05 523.666C1303.09 515.934 1296.65 507.061 1292.01 497.42C1292.11 497.523 1292.22 497.62 1292.32 497.723C1249.24 401.299 1274.3 356.6 1341.9 377.71C1342.26 377.549 1342.63 377.395 1342.99 377.234C1366.64 367.091 1393.7 365.23 1418.81 372.019C1443.92 378.809 1465.25 393.754 1478.58 413.892C1479.21 414.845 1479.83 415.817 1480.42 416.796C1488.7 430.386 1493.02 445.605 1493 461.065Z" fill="#E5E5E5"/>
<path d="M1277.48 127.652C1273.04 107.671 1264.44 89.9115 1252.75 76.5573C1241.06 63.2031 1226.78 54.8367 1211.67 52.4873C1211.33 52.4211 1211.01 52.5085 1210.67 52.4784C1210.23 52.2938 1209.78 52.1519 1209.33 52.0538C1137.45 39.2863 1054.47 86.5335 1024.51 180.188C1017.2 166.491 1007.58 155.444 996.466 148.003C985.355 140.562 973.093 136.95 960.739 137.479C944.809 138.938 929.594 147.108 917.164 160.877C904.734 174.646 895.693 193.345 891.273 214.428C890.803 217.009 890.942 219.728 891.672 222.193C892.402 224.657 893.683 226.737 895.331 228.133C900.079 233.663 905.703 237.586 911.754 239.589C924.808 243.39 937.908 246.872 951.055 250.035C976.71 256.204 1002.5 261.193 1028.42 264.999C1081.04 272.749 1133.98 275.499 1186.88 273.231C1204.5 272.476 1221.49 271.673 1237.63 260.988C1249.37 253.016 1259.4 240.985 1266.74 226.074C1273.65 211.742 1278.2 195.504 1280.05 178.5C1281.91 161.496 1281.03 144.14 1277.48 127.652Z" fill="#F0F0F0"/>
<path opacity="0.2" d="M1355 469.594C1341.06 492.537 1316.59 509.932 1286.1 516.422C1286.05 516.443 1285.99 516.453 1285.93 516.449C1278.28 517.993 1270.44 518.842 1262.56 518.98H1261.8C1260.41 519.007 1259.02 519.007 1257.63 518.98C1229.16 518.402 1202.12 508.732 1182.35 492.061C1162.58 475.391 1151.68 453.061 1152.01 429.903C1152.11 424.45 1152.82 419.015 1154.13 413.666C1154.13 413.639 1154.16 413.612 1154.16 413.585C1157.76 404.216 1164.24 395.753 1173 389C1170.06 400.411 1169.93 412.183 1172.64 423.632C1175.34 435.082 1180.81 445.98 1188.74 455.694C1196.67 465.408 1206.89 473.744 1218.81 480.217C1230.73 486.689 1244.12 491.17 1258.19 493.399C1259.21 493.56 1260.24 493.722 1261.27 493.856C1264.25 494.26 1267.23 494.556 1270.24 494.745C1285.76 495.769 1301.37 494.052 1316 489.711C1330.63 485.37 1343.94 478.508 1355 469.594Z" fill="black"/>
<path d="M437.112 563.655L426.894 545.376L522.27 457.626C592.78 421.197 677.775 431.709 767.523 457.626V483.218L678.96 585.594L576.77 607.53L437.112 563.655Z" fill="#2B426D"/>
<path d="M809.74 509.121C826.677 488.899 829.03 469.671 809.74 451.916H777.63V469.955L767.523 457.627L685.772 545.376L672.145 560L655.115 633.125L685.772 713.559H842.46V549.032L809.74 509.121Z" fill="#CCCCCC"/>
<path d="M426.894 545.375H685.772V713.56H426.894C395.575 677.189 411.845 610.898 426.894 545.375Z" fill="#F2F2F2"/>
<path d="M650.006 598.39H595.505V649.576H650.006V598.39Z" fill="#2B426D"/>
<path d="M573.364 596.562H525.676V713.56H573.364V596.562Z" fill="#CCCCCC"/>
<path d="M505.239 596.562H484.801V614.843H505.239V596.562Z" fill="#2B426D"/>
<path d="M505.239 629.467H484.801V647.748H505.239V629.467Z" fill="#2B426D"/>
<path d="M759.007 616.672V598.39H738.568V616.672H757.303H759.007Z" fill="#2B426D"/>
<path d="M757.303 631.296H738.568V649.576H759.007V631.296H757.303Z" fill="#2B426D"/>
<path d="M793.07 598.39H772.632V616.671H793.07V598.39Z" fill="#2B426D"/>
<path d="M793.07 631.295H772.632V649.576H793.07V631.295Z" fill="#2B426D"/>
<path d="M585.817 344H615.175C644.13 344 671.9 356.346 692.374 378.323C712.849 400.3 724.351 430.107 724.351 461.187H585.817V344Z" fill="#2B426D"/>
<path d="M553.017 466.721L767.593 455.454L857.607 536.1L841.692 551.522L699.153 548.078L553.017 466.721Z" fill="#2B426D"/>
<path d="M1430.89 714H23V719.302H1430.89V714Z" fill="#AEAEAE"/>
<path d="M1104.66 455.754C1070.3 436.085 1034.81 418.756 998.423 403.871C1034.91 418.51 1070.4 435.846 1104.66 455.754Z" fill="#3F3D56"/>
<path d="M897.923 688.584C902.107 705.186 916.438 715.468 916.438 715.468C916.438 715.468 923.986 698.833 919.802 682.232C915.618 665.63 901.287 655.349 901.287 655.349C901.287 655.349 893.739 671.983 897.923 688.584Z" fill="#2B426D"/>
<path d="M1013.02 452.838H1151.83V524.632L1139.43 528.795L1098.19 542.614L1033.47 526.523L968.833 510.445L934.698 501.957L917.655 495.189C931.832 474.308 957.619 457.886 1013.02 452.838Z" fill="#2B426D"/>
<path d="M1151.83 495.189V713.703H917.654C917.58 713.568 917.531 713.445 917.457 713.31V713.297C917.401 713.145 917.335 712.997 917.259 712.855C913.604 704.957 910.327 697.08 907.429 689.223C882.853 622.736 885.52 558.004 917.654 495.189H1151.83Z" fill="#F2F2F2"/>
<path d="M1065.83 598.529H1018.14V713.699H1065.83V598.529Z" fill="#CCCCCC"/>
<path d="M967.047 631.435V613.155H946.61V631.435H965.345H967.047Z" fill="#2B426D"/>
<path d="M965.345 646.059H946.61V664.342H967.047V646.059H965.345Z" fill="#2B426D"/>
<path d="M1001.11 613.153H980.672V631.434H1001.11V613.153Z" fill="#2B426D"/>
<path d="M1001.11 646.059H980.672V664.34H1001.11V646.059Z" fill="#2B426D"/>
<path d="M1106.7 631.435V613.155H1086.27V631.435H1105H1106.7Z" fill="#2B426D"/>
<path d="M1105 646.059H1086.27V664.342H1106.7V646.059H1105Z" fill="#2B426D"/>
<path d="M1140.77 613.153H1120.33V631.434H1140.77V613.153Z" fill="#2B426D"/>
<path d="M1140.77 646.059H1120.33V664.34H1140.77V646.059Z" fill="#2B426D"/>
<path d="M968.839 368H998.197C1027.15 368 1054.92 380.346 1075.4 402.323C1095.87 424.3 1107.37 454.107 1107.37 485.187H968.839V368Z" fill="#2B426D"/>
<path d="M1107.37 529.061H968.839V572.935H1107.37V529.061Z" fill="#2B426D"/>
<path d="M1145.43 224.25C756.677 67.8298 282.54 220.326 8.79311 532.265C7.23702 534.015 5.68095 535.791 4.17426 537.567H0C1.43259 535.791 2.91454 534.015 4.37183 532.265C283.8 196.598 751.638 62.8192 1145.43 224.25Z" fill="#2B426D"/>
<path d="M244 466.065C244 468.119 243.925 470.156 243.776 472.176C242.938 483.824 239.634 495.226 234.037 505.781C233.994 505.871 233.943 505.955 233.9 506.039C233.639 506.528 233.372 507.018 233.097 507.501C231.433 510.486 229.587 513.388 227.567 516.194C218.339 529.074 205.691 539.731 190.741 547.224C175.791 554.717 158.999 558.814 141.848 559.155L142.882 612.111L156.366 605.787L158.774 609.863L142.983 617.268L144.914 715.62L144.935 716.933L134.51 719L134.531 717.68L137.814 559.162C124.009 558.985 110.382 556.368 97.7219 551.463C85.0623 546.557 73.623 539.46 64.0682 530.585C63.4104 529.98 62.7596 529.355 62.1231 528.737L62.0508 528.666C54.0899 520.934 47.6516 512.061 43.0072 502.42C43.1084 502.523 43.2168 502.62 43.3182 502.723C0.236054 406.299 25.3008 361.6 92.901 382.71C93.2624 382.549 93.6314 382.395 93.9928 382.234C117.637 372.091 144.697 370.23 169.81 377.019C194.922 383.809 216.254 398.754 229.576 418.892C230.213 419.845 230.827 420.817 231.42 421.796C239.696 435.386 244.02 450.605 244 466.065Z" fill="#E5E5E5"/>
</svg>
