<svg width="383" height="381" viewBox="0 0 383 381" fill="none" xmlns="http://www.w3.org/2000/svg">
<ellipse cx="191.5" cy="190.5" rx="191.5" ry="190.5" fill="#4364A1"/>
<path d="M203.428 195.927C205.691 192.106 208.374 188.466 211.477 185.008C214.58 181.551 217.974 178.366 221.659 175.454C215.97 174.969 210.313 174.271 204.689 173.361C199.129 172.391 193.601 171.45 188.106 170.54C182.675 169.631 177.31 168.842 172.008 168.175C166.707 167.507 161.503 167.174 156.395 167.174C150.642 167.174 145.793 167.659 141.849 168.63C137.906 169.6 134.673 170.965 132.152 172.724C129.695 174.423 127.917 176.485 126.818 178.912C125.719 181.338 125.17 184.038 125.17 187.01C125.17 189.982 125.655 192.561 126.624 194.744C127.594 196.928 128.984 198.748 130.794 200.204C132.604 201.599 134.738 202.661 137.195 203.389C139.716 204.056 142.496 204.389 145.534 204.389C147.603 204.389 149.769 204.238 152.032 203.934C154.294 203.631 156.525 203.207 158.723 202.661C160.986 202.054 163.184 201.356 165.317 200.568C167.45 199.779 169.422 198.9 171.232 197.929L173.172 200.113C168.905 202.418 164.315 204.207 159.402 205.481C154.488 206.755 149.801 207.392 145.34 207.392C141.591 207.392 138.229 206.937 135.255 206.027C132.281 205.057 129.728 203.692 127.594 201.933C125.525 200.174 123.941 198.02 122.842 195.472C121.743 192.924 121.194 190.043 121.194 186.828C121.194 178.275 125.008 171.723 132.637 167.174C140.33 162.624 151.417 160.349 165.899 160.349C171.717 160.349 177.406 160.683 182.966 161.35C188.591 162.018 194.183 162.776 199.743 163.625C205.367 164.414 211.024 165.172 216.713 165.9C222.403 166.628 228.253 167.083 234.266 167.265C239.502 164.474 244.868 162.291 250.363 160.713C255.859 159.136 261.322 158.348 266.752 158.348C269.532 158.348 271.407 158.59 272.377 159.076C273.411 159.561 273.928 160.471 273.928 161.805C273.928 163.807 272.926 165.688 270.922 167.447C268.918 169.145 266.138 170.631 262.582 171.905C259.091 173.179 254.921 174.18 250.073 174.908C245.224 175.636 239.987 176 234.363 176C233.458 176 232.552 176 231.647 176C230.742 176 229.837 175.97 228.932 175.909C228.027 176.758 227.187 177.608 226.411 178.457C225.7 179.306 225.021 180.186 224.374 181.096C223.792 181.884 223.211 182.824 222.629 183.916C222.047 184.948 221.368 186.312 220.592 188.011C219.817 189.649 218.911 191.711 217.877 194.198C216.843 196.685 215.582 199.81 214.095 203.571C212.673 207.271 210.96 211.699 208.955 216.855C206.951 221.951 204.624 227.956 201.973 234.872C196.801 248.157 191.532 259.591 186.166 269.176C180.865 278.699 175.208 286.525 169.196 292.652C163.184 298.718 156.719 303.207 149.801 306.118C142.884 308.969 135.255 310.395 126.915 310.395C115.925 310.395 107.456 308.12 101.508 303.571C95.6249 299.021 92.6833 292.5 92.6833 284.007C92.6833 280.914 93.0712 278.002 93.847 275.272C94.6228 272.542 95.6572 270.146 96.9502 268.084C98.2432 266.021 99.7301 264.383 101.411 263.17C103.157 261.957 104.999 261.35 106.939 261.35C108.619 261.35 109.912 261.836 110.818 262.806C111.787 263.716 112.272 265.051 112.272 266.81C112.272 267.659 112.111 268.387 111.787 268.994C111.529 269.6 111.044 270.146 110.333 270.632C109.622 271.117 108.652 271.632 107.423 272.178C106.195 272.724 104.644 273.361 102.769 274.089C100.894 274.878 99.5039 276 98.5988 277.456C97.6937 278.851 97.2411 281.096 97.2411 284.189C97.2411 291.651 99.6332 297.292 104.417 301.114C109.201 304.875 116.442 306.755 126.139 306.755C130.083 306.755 133.703 306.452 137.001 305.845C140.298 305.239 143.369 304.147 146.213 302.57C149.122 300.932 151.87 298.718 154.456 295.927C157.107 293.137 159.757 289.588 162.408 285.281C165.123 280.974 167.903 275.818 170.748 269.813C173.657 263.807 176.825 256.74 180.251 248.611C183.096 241.757 185.552 235.842 187.621 230.868C189.755 225.894 191.565 221.648 193.052 218.129C194.603 214.55 195.896 211.578 196.931 209.212C197.965 206.846 198.838 204.844 199.549 203.207C200.325 201.569 201.004 200.204 201.585 199.112C202.167 198.02 202.781 196.958 203.428 195.927ZM266.267 160.895C262.194 160.895 258.057 161.472 253.854 162.624C249.652 163.777 245.612 165.324 241.733 167.265C245.418 167.143 248.973 166.931 252.4 166.628C255.891 166.264 258.994 165.839 261.709 165.354C264.425 164.869 266.59 164.353 268.207 163.807C269.823 163.2 270.631 162.594 270.631 161.987C270.631 161.259 269.176 160.895 266.267 160.895Z" fill="white"/>
<path d="M232.229 171.632C225.57 172.421 219.558 174.21 214.192 177.001C208.826 179.731 204.236 183.31 200.422 187.738C196.672 192.106 193.763 197.201 191.694 203.025C189.69 208.848 188.688 215.217 188.688 222.133C188.688 232.203 190.918 239.664 195.379 244.517C199.84 249.37 206.66 251.796 215.841 251.796C221.982 251.796 228.124 250.795 234.266 248.793C240.472 246.792 246.452 243.91 252.206 240.149C257.96 236.328 263.423 231.687 268.595 226.227C273.831 220.707 278.551 214.429 282.753 207.392L287.795 199.021L290.317 200.75L285.371 209.121C280.716 217.007 275.609 223.892 270.049 229.776C264.554 235.66 258.736 240.574 252.594 244.517C246.517 248.46 240.149 251.402 233.49 253.343C226.896 255.345 220.204 256.346 213.416 256.346C207.21 256.346 201.65 255.497 196.737 253.798C191.823 252.1 187.621 249.673 184.13 246.519C180.704 243.304 178.053 239.452 176.178 234.963C174.368 230.413 173.463 225.348 173.463 219.767C173.463 213.034 174.788 206.816 177.439 201.114C180.089 195.412 183.774 190.437 188.494 186.191C193.278 181.884 198.999 178.396 205.658 175.727C212.317 172.997 219.655 171.299 227.671 170.631C222.823 168.084 219.105 164.626 216.519 160.258C213.933 155.891 212.64 150.947 212.64 145.427C212.64 140.089 213.836 135.054 216.229 130.322C218.621 125.591 221.853 121.466 225.926 117.947C230.063 114.429 234.88 111.669 240.375 109.667C245.87 107.604 251.721 106.573 257.927 106.573C261.871 106.573 265.491 107.089 268.789 108.12C272.15 109.151 275.027 110.607 277.419 112.488C279.876 114.368 281.751 116.613 283.044 119.221C284.401 121.769 285.08 124.59 285.08 127.683C285.08 133.507 283.141 138.784 279.262 143.516C275.447 148.187 270.275 152.281 263.746 155.8L262.388 153.07C264.91 151.736 267.172 150.128 269.176 148.247C271.181 146.367 272.861 144.305 274.219 142.06C275.641 139.755 276.74 137.328 277.516 134.781C278.292 132.172 278.68 129.534 278.68 126.864C278.68 121.405 277.128 117.25 274.025 114.399C270.987 111.547 266.59 110.122 260.837 110.122C255.794 110.122 251.01 111.214 246.484 113.398C242.024 115.521 238.112 118.433 234.751 122.133C231.389 125.773 228.706 130.049 226.702 134.963C224.762 139.816 223.792 144.972 223.792 150.431C223.792 155.163 224.536 159.258 226.023 162.715C227.51 166.112 229.611 168.539 232.326 169.995C232.649 169.873 233.167 169.752 233.878 169.631C234.589 169.509 235.268 169.449 235.914 169.449C237.724 169.449 238.63 169.873 238.63 170.722C238.63 171.693 237.692 172.178 235.817 172.178C235.171 172.178 234.524 172.118 233.878 171.996C233.231 171.875 232.682 171.754 232.229 171.632Z" fill="white"/>
<path d="M39.5266 141.411L139.021 57.4329M133.845 57.4681L190.915 111.807M266.351 42.948L343.473 126.927M172.156 127.169L270.873 42.6289M58.245 123.299V294.409" stroke="white" stroke-width="6"/>
</svg>
