<svg width="319" height="286" viewBox="0 0 319 286" fill="none" xmlns="http://www.w3.org/2000/svg">
<path d="M4 106.223L109.497 20.2057M101.036 20.2057L159.751 75.8876M232.848 5L314 82.1968M140.451 91.6289L242.013 5M23.2577 87.6629V263" stroke="#4364A1" stroke-width="12"/>
<path d="M176.357 168.664C178.51 164.747 181.063 161.016 184.015 157.472C186.967 153.927 190.196 150.663 193.702 147.678C188.289 147.181 182.908 146.465 177.557 145.533C172.267 144.538 167.009 143.574 161.781 142.641C156.614 141.709 151.51 140.9 146.466 140.216C141.423 139.532 136.472 139.19 131.613 139.19C126.139 139.19 121.526 139.688 117.774 140.683C114.022 141.678 110.947 143.077 108.549 144.88C106.211 146.621 104.52 148.735 103.474 151.222C102.429 153.71 101.906 156.477 101.906 159.524C101.906 162.57 102.367 165.213 103.29 167.452C104.212 169.69 105.535 171.556 107.257 173.048C108.979 174.478 111.009 175.566 113.346 176.312C115.745 176.996 118.389 177.338 121.28 177.338C123.248 177.338 125.309 177.183 127.461 176.872C129.614 176.561 131.736 176.126 133.827 175.566C135.98 174.944 138.071 174.229 140.1 173.421C142.13 172.613 144.006 171.711 145.728 170.716L147.573 172.955C143.514 175.318 139.147 177.152 134.473 178.458C129.798 179.763 125.339 180.416 121.096 180.416C117.528 180.416 114.33 179.95 111.501 179.017C108.672 178.022 106.242 176.623 104.212 174.82C102.244 173.017 100.737 170.809 99.6919 168.198C98.6463 165.586 98.1235 162.633 98.1235 159.337C98.1235 150.569 101.752 143.854 109.01 139.19C116.329 134.527 126.877 132.195 140.654 132.195C146.189 132.195 151.602 132.537 156.891 133.221C162.242 133.905 167.562 134.682 172.852 135.553C178.203 136.361 183.584 137.138 188.997 137.884C194.409 138.631 199.975 139.097 205.695 139.284C210.677 136.423 215.782 134.185 221.01 132.568C226.238 130.951 231.435 130.143 236.601 130.143C239.246 130.143 241.03 130.392 241.952 130.889C242.936 131.387 243.428 132.319 243.428 133.687C243.428 135.739 242.475 137.667 240.568 139.47C238.662 141.211 236.017 142.735 232.634 144.04C229.313 145.346 225.346 146.372 220.733 147.118C216.12 147.865 211.138 148.238 205.787 148.238C204.926 148.238 204.065 148.238 203.204 148.238C202.343 148.238 201.482 148.207 200.621 148.144C199.76 149.015 198.96 149.885 198.222 150.756C197.546 151.627 196.9 152.528 196.285 153.461C195.731 154.269 195.178 155.233 194.624 156.352C194.071 157.409 193.425 158.808 192.687 160.549C191.949 162.228 191.088 164.343 190.104 166.892C189.12 169.441 187.92 172.644 186.506 176.499C185.153 180.292 183.523 184.831 181.616 190.117C179.709 195.34 177.495 201.496 174.974 208.584C170.053 222.202 165.041 233.923 159.936 243.748C154.892 253.51 149.511 261.532 143.791 267.812C138.071 274.03 131.92 278.632 125.339 281.616C118.758 284.539 111.501 286 103.567 286C93.1109 286 85.0538 283.668 79.3954 279.005C73.7985 274.341 71 267.657 71 258.951C71 255.78 71.369 252.795 72.1071 249.997C72.8451 247.199 73.8292 244.743 75.0593 242.629C76.2894 240.514 77.704 238.836 79.3031 237.592C80.9637 236.348 82.7166 235.727 84.5618 235.727C86.1609 235.727 87.391 236.224 88.252 237.219C89.1746 238.152 89.6359 239.52 89.6359 241.323C89.6359 242.193 89.4821 242.94 89.1746 243.561C88.9286 244.183 88.4673 244.743 87.7908 245.24C87.1142 245.738 86.1916 246.266 85.0231 246.826C83.8545 247.385 82.3784 248.038 80.5947 248.785C78.8111 249.593 77.4887 250.743 76.6277 252.236C75.7666 253.666 75.3361 255.966 75.3361 259.138C75.3361 266.786 77.6117 272.569 82.1631 276.486C86.7144 280.342 93.6029 282.269 102.829 282.269C106.58 282.269 110.025 281.958 113.161 281.336C116.298 280.715 119.22 279.595 121.926 277.979C124.694 276.3 127.307 274.03 129.768 271.17C132.289 268.309 134.811 264.672 137.333 260.257C139.916 255.842 142.561 250.557 145.267 244.401C148.035 238.245 151.048 231.001 154.308 222.668C157.014 215.642 159.351 209.579 161.32 204.48C163.349 199.382 165.071 195.029 166.486 191.422C167.962 187.754 169.192 184.707 170.176 182.282C171.16 179.857 171.991 177.805 172.667 176.126C173.405 174.447 174.051 173.048 174.605 171.929C175.158 170.809 175.742 169.721 176.357 168.664ZM236.14 132.755C232.265 132.755 228.329 133.345 224.331 134.527C220.333 135.708 216.489 137.294 212.799 139.284C216.305 139.159 219.687 138.942 222.947 138.631C226.268 138.258 229.221 137.822 231.804 137.325C234.387 136.827 236.447 136.299 237.985 135.739C239.523 135.117 240.291 134.496 240.291 133.874C240.291 133.128 238.908 132.755 236.14 132.755Z" fill="#4364A1"/>
<path d="M213.738 139.689C207.403 140.498 201.683 142.332 196.578 145.192C191.473 147.99 187.107 151.659 183.478 156.198C179.911 160.675 177.143 165.899 175.175 171.868C173.268 177.837 172.315 184.366 172.315 191.455C172.315 201.777 174.437 209.425 178.68 214.4C182.924 219.374 189.413 221.862 198.147 221.862C203.99 221.862 209.833 220.836 215.675 218.784C221.58 216.732 227.269 213.778 232.743 209.923C238.217 206.005 243.414 201.249 248.334 195.652C253.316 189.994 257.806 183.558 261.804 176.345L266.601 167.764L269 169.536L264.295 178.117C259.867 186.201 255.008 193.258 249.718 199.29C244.49 205.322 238.955 210.358 233.112 214.4C227.331 218.442 221.272 221.458 214.937 223.447C208.664 225.499 202.298 226.525 195.84 226.525C189.936 226.525 184.646 225.655 179.972 223.914C175.298 222.173 171.3 219.685 167.979 216.452C164.719 213.156 162.197 209.208 160.414 204.606C158.691 199.943 157.83 194.751 157.83 189.03C157.83 182.128 159.091 175.754 161.613 169.909C164.135 164.064 167.64 158.965 172.13 154.613C176.682 150.198 182.125 146.622 188.46 143.887C194.795 141.088 201.775 139.347 209.402 138.663C204.789 136.052 201.253 132.507 198.792 128.03C196.332 123.553 195.102 118.486 195.102 112.827C195.102 107.355 196.24 102.194 198.516 97.3439C200.791 92.4938 203.867 88.2655 207.741 84.659C211.678 81.0525 216.26 78.2232 221.488 76.1712C226.716 74.0571 232.282 73 238.186 73C241.938 73 245.382 73.5285 248.519 74.5856C251.717 75.6427 254.454 77.135 256.73 79.0627C259.067 80.9903 260.851 83.291 262.081 85.9648C263.372 88.5764 264.018 91.4678 264.018 94.639C264.018 100.608 262.173 106.018 258.483 110.868C254.854 115.656 249.934 119.854 243.722 123.46L242.43 120.662C244.829 119.294 246.981 117.646 248.888 115.718C250.795 113.791 252.394 111.677 253.685 109.376C255.038 107.013 256.084 104.526 256.822 101.914C257.56 99.2405 257.929 96.5356 257.929 93.7996C257.929 88.2033 256.453 83.9439 253.501 81.0214C250.61 78.0989 246.428 76.6376 240.954 76.6376C236.157 76.6376 231.605 77.7569 227.3 79.9954C223.056 82.1717 219.335 85.1564 216.137 88.9495C212.939 92.6803 210.386 97.0641 208.479 102.101C206.634 107.075 205.712 112.361 205.712 117.957C205.712 122.807 206.419 127.004 207.834 130.549C209.248 134.031 211.247 136.518 213.83 138.01C214.138 137.886 214.63 137.762 215.306 137.637C215.983 137.513 216.629 137.451 217.244 137.451C218.966 137.451 219.827 137.886 219.827 138.757C219.827 139.751 218.935 140.249 217.152 140.249C216.537 140.249 215.922 140.187 215.306 140.062C214.691 139.938 214.169 139.814 213.738 139.689Z" fill="#4364A1"/>
</svg>
