<svg width="1206" height="385" viewBox="0 0 1206 385" fill="none" xmlns="http://www.w3.org/2000/svg">
<path d="M770.736 53.76H751.28V50.816C755.376 45.1413 758.448 39.8933 760.496 35.072C762.544 30.2507 763.781 24.96 764.208 19.2C764.592 19.1147 765.147 19.072 765.872 19.072C768.645 19.072 770.032 20.544 770.032 23.488C770.032 27.1147 768.752 31.36 766.192 36.224C763.675 41.088 760.837 45.3973 757.68 49.152H770.736V36.8H776.56V49.152H782.192V53.76H776.56V64H770.736V53.76Z" fill="black"/>
<path d="M268.296 40.768C268.296 45.0347 266.675 49.28 263.432 53.504C260.189 57.6853 255.389 62.3147 249.032 67.392H267.784V72H240.328V68.864C245.875 64.3413 250.205 60.5013 253.32 57.344C256.477 54.1867 258.781 51.264 260.232 48.576C261.725 45.8453 262.472 43.072 262.472 40.256C262.472 37.568 261.768 35.4773 260.36 33.984C258.952 32.4907 256.947 31.744 254.344 31.744C248.84 31.744 245.768 35.072 245.128 41.728C243.379 41.728 242.141 41.4507 241.416 40.896C240.733 40.3413 240.392 39.424 240.392 38.144C240.392 36.224 240.947 34.432 242.056 32.768C243.208 31.0613 244.829 29.7173 246.92 28.736C249.053 27.712 251.528 27.2 254.344 27.2C258.653 27.2 262.045 28.352 264.52 30.656C267.037 32.9173 268.296 36.288 268.296 40.768Z" fill="black"/>
<ellipse cx="1186.86" cy="330.962" rx="19.1381" ry="18.9484" fill="#95A1B5"/>
<ellipse cx="750.609" cy="90.5668" rx="19.0927" ry="18.6952" fill="#95A1B5"/>
<ellipse cx="46.1903" cy="223.401" rx="19.0927" ry="18.6952" fill="#95A1B5"/>
<ellipse cx="120.821" cy="261.942" rx="88.1595" ry="88.3894" fill="#4364A1"/>
<path d="M95.9873 159.944C144.856 159.944 184.475 199.664 184.475 248.664C184.474 297.663 144.856 337.382 95.9873 337.382C47.1185 337.382 7.50021 297.663 7.5 248.664C7.5 199.664 47.1184 159.944 95.9873 159.944Z" stroke="black"/>
<ellipse cx="365.006" cy="166.499" rx="88.1595" ry="88.3894" fill="#4364A1"/>
<path d="M340.173 64.5C389.042 64.5 428.66 104.22 428.66 153.22C428.66 202.219 389.041 241.938 340.173 241.938C291.304 241.938 251.686 202.219 251.685 153.22C251.685 104.22 291.304 64.5 340.173 64.5Z" stroke="black"/>
<ellipse cx="609.758" cy="261.942" rx="88.5981" ry="88.3894" fill="#4364A1"/>
<path d="M584.8 159.944C633.916 159.944 673.731 199.666 673.731 248.664C673.73 297.661 633.916 337.382 584.8 337.382C535.685 337.382 495.871 297.661 495.87 248.664C495.87 199.666 535.684 159.944 584.8 159.944Z" stroke="black"/>
<ellipse cx="854.381" cy="166.499" rx="88.1595" ry="88.3894" fill="#4364A1"/>
<path d="M829.548 64.5C878.417 64.5 918.035 104.22 918.035 153.22C918.035 202.219 878.417 241.938 829.548 241.938C780.679 241.938 741.061 202.219 741.061 153.22C741.061 104.22 780.679 64.5 829.548 64.5Z" stroke="black"/>
<ellipse cx="1098.57" cy="261.942" rx="88.1595" ry="88.3894" fill="#4364A1"/>
<path d="M1073.73 159.944C1122.6 159.944 1162.22 199.664 1162.22 248.664C1162.22 297.663 1122.6 337.382 1073.73 337.382C1024.86 337.382 985.246 297.663 985.246 248.664C985.246 199.664 1024.86 159.944 1073.73 159.944Z" stroke="black"/>
<ellipse cx="208.98" cy="109.262" rx="27.1317" ry="26.5669" fill="#C5D8FB"/>
<ellipse cx="468.239" cy="323.765" rx="27.1317" ry="26.5669" fill="#C5D8FB"/>
<ellipse cx="984.746" cy="109.262" rx="27.1317" ry="26.5669" fill="#C5D8FB"/>
<path d="M23.2361 178.75V183.102H2.11606V178.75H9.92406V145.47C8.85739 146.28 7.70539 146.984 6.46805 147.582C5.23072 148.136 4.10005 148.414 3.07606 148.414C2.13739 148.414 1.39072 148.158 0.836055 147.646C0.281388 147.134 0.00405478 146.43 0.00405478 145.534C0.00405478 144.894 0.110721 144.36 0.324055 143.934C2.11605 143.763 4.10006 143.187 6.27606 142.206C8.45206 141.224 10.3721 139.923 12.0361 138.302H15.7481V178.75H23.2361Z" fill="black"/>
<path d="M513.213 151.142C515.432 151.697 517.288 152.785 518.781 154.406C520.275 155.985 521.021 158.331 521.021 161.446C521.021 165.585 519.592 168.849 516.733 171.238C513.917 173.627 510.12 174.822 505.341 174.822C502.44 174.822 499.88 174.481 497.661 173.798C495.485 173.115 493.8 172.219 492.605 171.11C491.411 169.958 490.813 168.721 490.813 167.398C490.813 166.374 491.155 165.563 491.837 164.966C492.52 164.326 493.309 164.006 494.205 164.006C495.443 166.011 496.893 167.547 498.557 168.614C500.264 169.681 502.589 170.214 505.533 170.214C508.605 170.214 510.973 169.446 512.637 167.91C514.301 166.331 515.133 164.198 515.133 161.51C515.133 158.822 514.387 156.817 512.893 155.494C511.4 154.129 509.395 153.446 506.877 153.446L504.829 153.51C503.891 153.595 503.144 153.638 502.589 153.638C501.864 153.638 501.224 153.254 500.669 152.486C500.157 151.675 499.901 150.907 499.901 150.182C499.901 149.499 500.136 149.158 500.605 149.158H505.853C508.456 149.158 510.44 148.475 511.805 147.11C513.213 145.745 513.917 143.675 513.917 140.902C513.917 138.726 513.213 137.041 511.805 135.846C510.397 134.609 508.328 133.99 505.597 133.99C503.208 133.99 501.267 134.587 499.773 135.782C498.323 136.934 497.043 138.641 495.933 140.902C494.696 140.902 493.715 140.625 492.989 140.07C492.307 139.473 491.965 138.662 491.965 137.638C491.965 136.486 492.541 135.27 493.693 133.99C494.845 132.71 496.467 131.643 498.557 130.79C500.691 129.894 503.08 129.446 505.725 129.446C510.035 129.446 513.448 130.449 515.965 132.454C518.525 134.417 519.805 137.233 519.805 140.902C519.805 143.547 519.187 145.723 517.949 147.43C516.712 149.137 515.133 150.374 513.213 151.142Z" fill="black"/>
<path d="M1030.37 130.047C1033.19 130.047 1035.69 130.644 1037.86 131.839C1040.04 132.991 1041.72 134.676 1042.92 136.895C1044.15 139.071 1044.77 141.652 1044.77 144.639C1044.77 149.375 1043.41 153.129 1040.68 155.903C1037.95 158.676 1034.28 160.063 1029.67 160.063C1026.9 160.063 1024.49 159.679 1022.44 158.911C1020.39 158.1 1018.81 157.076 1017.7 155.839C1016.63 154.601 1016.1 153.343 1016.1 152.063C1016.1 150.015 1017.19 148.841 1019.37 148.543C1021.16 153.193 1024.53 155.519 1029.48 155.519C1032.55 155.519 1034.87 154.559 1036.45 152.639C1038.07 150.676 1038.89 148.095 1038.89 144.895C1038.89 141.439 1038.07 138.879 1036.45 137.215C1034.87 135.551 1032.61 134.719 1029.67 134.719C1027.71 134.719 1026.02 135.103 1024.61 135.871C1023.21 136.639 1021.93 137.833 1020.77 139.455L1016.61 138.751L1018.15 114.687H1041.7V119.231H1023.21L1022.31 132.415C1024.49 130.836 1027.17 130.047 1030.37 130.047Z" fill="black"/>
<ellipse cx="1017.19" cy="358.332" rx="28.4026" ry="26.6682" fill="#C5D8FB"/>
<path d="M75.2 249.3C72.36 249.3 70.17 248.36 68.63 246.48C67.11 244.58 66.35 241.88 66.35 238.38C66.35 234.96 67.11 232.33 68.63 230.49C70.17 228.63 72.36 227.7 75.2 227.7C78.04 227.7 80.22 228.63 81.74 230.49C83.28 232.33 84.05 234.96 84.05 238.38C84.05 241.88 83.28 244.58 81.74 246.48C80.22 248.36 78.04 249.3 75.2 249.3ZM75.2 246.93C79.06 246.93 80.99 244.08 80.99 238.38C80.99 235.58 80.51 233.5 79.55 232.14C78.61 230.76 77.16 230.07 75.2 230.07C73.24 230.07 71.78 230.76 70.82 232.14C69.88 233.5 69.41 235.58 69.41 238.38C69.41 244.08 71.34 246.93 75.2 246.93ZM95.4706 232.2C97.6706 232.2 99.3506 232.92 100.511 234.36C101.671 235.8 102.251 237.89 102.251 240.63C102.251 242.37 101.941 243.9 101.321 245.22C100.701 246.52 99.8106 247.53 98.6506 248.25C97.5106 248.95 96.1706 249.3 94.6306 249.3C93.2506 249.3 91.9406 249.06 90.7006 248.58V255.69H87.8506V238.35C87.8506 235.45 87.6606 233.67 87.2806 233.01C87.6606 232.81 88.0506 232.66 88.4506 232.56C88.8506 232.44 89.2006 232.38 89.5006 232.38C90.1606 232.38 90.5506 232.97 90.6706 234.15C92.0106 232.85 93.6106 232.2 95.4706 232.2ZM94.4206 247.23C95.9806 247.23 97.1806 246.66 98.0206 245.52C98.8806 244.38 99.3106 242.75 99.3106 240.63C99.3106 238.49 98.9606 236.9 98.2606 235.86C97.5806 234.8 96.5406 234.27 95.1406 234.27C94.3206 234.27 93.5206 234.46 92.7406 234.84C91.9606 235.22 91.2806 235.74 90.7006 236.4V246.45C91.2206 246.69 91.8006 246.88 92.4406 247.02C93.1006 247.16 93.7606 247.23 94.4206 247.23ZM119.22 239.61C119.22 240.01 119.19 240.53 119.13 241.17H107.61C107.69 243.07 108.13 244.55 108.93 245.61C109.73 246.65 110.83 247.17 112.23 247.17C113.17 247.17 113.95 246.98 114.57 246.6C115.21 246.22 115.83 245.56 116.43 244.62C116.59 244.4 116.81 244.29 117.09 244.29C117.55 244.29 118.15 244.56 118.89 245.1C118.37 246.42 117.53 247.45 116.37 248.19C115.21 248.93 113.83 249.3 112.23 249.3C110.69 249.3 109.35 248.96 108.21 248.28C107.09 247.58 106.23 246.59 105.63 245.31C105.03 244.01 104.73 242.48 104.73 240.72C104.73 238.06 105.4 235.98 106.74 234.48C108.1 232.96 109.97 232.2 112.35 232.2C114.53 232.2 116.22 232.85 117.42 234.15C118.62 235.45 119.22 237.27 119.22 239.61ZM116.31 239.25C116.31 235.95 114.96 234.3 112.26 234.3C110.92 234.3 109.86 234.72 109.08 235.56C108.3 236.4 107.83 237.63 107.67 239.25H116.31ZM136.152 245.07C136.152 246.19 136.172 246.98 136.212 247.44C136.272 247.9 136.372 248.32 136.512 248.7C135.792 249 135.042 249.15 134.262 249.15C133.882 249.15 133.622 248.93 133.482 248.49C133.362 248.03 133.302 247.18 133.302 245.94V237.9C133.302 236.62 133.072 235.71 132.612 235.17C132.172 234.61 131.432 234.33 130.392 234.33C128.852 234.33 127.252 235.08 125.592 236.58V249H122.742V238.05C122.742 235.29 122.622 233.58 122.382 232.92C123.322 232.56 124.062 232.38 124.602 232.38C125.262 232.38 125.592 232.96 125.592 234.12V234.42C126.552 233.64 127.452 233.08 128.292 232.74C129.152 232.38 130.062 232.2 131.022 232.2C132.742 232.2 134.022 232.67 134.862 233.61C135.722 234.53 136.152 235.94 136.152 237.84V245.07ZM80.9 278.61C80.9 279.01 80.87 279.53 80.81 280.17H69.29C69.37 282.07 69.81 283.55 70.61 284.61C71.41 285.65 72.51 286.17 73.91 286.17C74.85 286.17 75.63 285.98 76.25 285.6C76.89 285.22 77.51 284.56 78.11 283.62C78.27 283.4 78.49 283.29 78.77 283.29C79.23 283.29 79.83 283.56 80.57 284.1C80.05 285.42 79.21 286.45 78.05 287.19C76.89 287.93 75.51 288.3 73.91 288.3C72.37 288.3 71.03 287.96 69.89 287.28C68.77 286.58 67.91 285.59 67.31 284.31C66.71 283.01 66.41 281.48 66.41 279.72C66.41 277.06 67.08 274.98 68.42 273.48C69.78 271.96 71.65 271.2 74.03 271.2C76.21 271.2 77.9 271.85 79.1 273.15C80.3 274.45 80.9 276.27 80.9 278.61ZM77.99 278.25C77.99 274.95 76.64 273.3 73.94 273.3C72.6 273.3 71.54 273.72 70.76 274.56C69.98 275.4 69.51 276.63 69.35 278.25H77.99ZM89.3715 288.3C88.3315 288.3 87.3315 288.15 86.3715 287.85C85.4115 287.55 84.6315 287.16 84.0315 286.68C83.4515 286.18 83.1615 285.64 83.1615 285.06C83.1615 284.7 83.2815 284.39 83.5215 284.13C83.7815 283.85 84.1115 283.68 84.5115 283.62C85.1315 284.52 85.8315 285.18 86.6115 285.6C87.3915 286.02 88.3515 286.23 89.4915 286.23C90.6315 286.23 91.4915 285.98 92.0715 285.48C92.6515 284.96 92.9415 284.28 92.9415 283.44C92.9415 282.9 92.7615 282.46 92.4015 282.12C92.0615 281.76 91.6215 281.48 91.0815 281.28C90.5615 281.06 89.8515 280.83 88.9515 280.59C87.7715 280.27 86.8215 279.96 86.1015 279.66C85.4015 279.34 84.7915 278.88 84.2715 278.28C83.7715 277.66 83.5215 276.85 83.5215 275.85C83.5215 274.85 83.8015 274 84.3615 273.3C84.9215 272.6 85.6415 272.08 86.5215 271.74C87.4015 271.38 88.3215 271.2 89.2815 271.2C90.6215 271.2 91.8115 271.47 92.8515 272.01C93.9115 272.53 94.7315 273.26 95.3115 274.2C95.0715 274.54 94.8115 274.81 94.5315 275.01C94.2515 275.21 93.9915 275.31 93.7515 275.31C93.4515 275.31 93.1815 275.17 92.9415 274.89C91.9815 273.77 90.7515 273.21 89.2515 273.21C88.3315 273.21 87.6015 273.42 87.0615 273.84C86.5215 274.26 86.2515 274.9 86.2515 275.76C86.2515 276.3 86.4215 276.74 86.7615 277.08C87.1015 277.4 87.5315 277.66 88.0515 277.86C88.5715 278.04 89.2715 278.24 90.1515 278.46C91.3515 278.78 92.3115 279.09 93.0315 279.39C93.7515 279.69 94.3715 280.16 94.8915 280.8C95.4115 281.44 95.6715 282.29 95.6715 283.35C95.6715 284.89 95.1015 286.1 93.9615 286.98C92.8415 287.86 91.3115 288.3 89.3715 288.3ZM105.757 288.3C103.237 288.3 101.297 287.56 99.9371 286.08C98.5771 284.58 97.8971 282.44 97.8971 279.66C97.8971 277.94 98.2071 276.44 98.8271 275.16C99.4471 273.88 100.337 272.9 101.497 272.22C102.657 271.54 104.027 271.2 105.607 271.2C107.487 271.2 109.027 271.68 110.227 272.64C111.447 273.58 112.167 274.85 112.387 276.45C112.067 276.63 111.727 276.78 111.367 276.9C111.007 277 110.687 277.05 110.407 277.05C110.167 277.05 109.977 276.98 109.837 276.84C109.717 276.7 109.607 276.44 109.507 276.06C109.247 275.14 108.787 274.45 108.127 273.99C107.467 273.51 106.627 273.27 105.607 273.27C104.127 273.27 102.947 273.85 102.067 275.01C101.207 276.15 100.777 277.7 100.777 279.66C100.777 281.72 101.217 283.32 102.097 284.46C102.977 285.6 104.197 286.17 105.757 286.17C108.117 286.17 109.687 284.95 110.467 282.51C111.007 282.51 111.417 282.66 111.697 282.96C111.997 283.24 112.147 283.64 112.147 284.16C112.147 284.88 111.847 285.56 111.247 286.2C110.667 286.84 109.887 287.35 108.907 287.73C107.927 288.11 106.877 288.3 105.757 288.3ZM123.054 271.29C124.634 271.29 125.424 271.88 125.424 273.06C125.424 273.54 125.294 273.93 125.034 274.23C124.514 273.97 123.834 273.84 122.994 273.84C121.674 273.84 120.634 274.33 119.874 275.31C119.134 276.27 118.764 277.6 118.764 279.3V288H115.914V271.5H118.764V274.26C119.204 273.36 119.804 272.64 120.564 272.1C121.344 271.56 122.174 271.29 123.054 271.29ZM134.277 288.3C131.917 288.3 130.127 287.57 128.907 286.11C127.687 284.65 127.077 282.52 127.077 279.72C127.077 276.92 127.687 274.8 128.907 273.36C130.127 271.92 131.917 271.2 134.277 271.2C136.637 271.2 138.427 271.92 139.647 273.36C140.887 274.8 141.507 276.92 141.507 279.72C141.507 282.52 140.887 284.65 139.647 286.11C138.427 287.57 136.637 288.3 134.277 288.3ZM134.277 286.23C135.777 286.23 136.867 285.71 137.547 284.67C138.247 283.63 138.597 281.98 138.597 279.72C138.597 277.48 138.247 275.85 137.547 274.83C136.867 273.79 135.777 273.27 134.277 273.27C132.777 273.27 131.677 273.79 130.977 274.83C130.297 275.85 129.957 277.48 129.957 279.72C129.957 281.98 130.307 283.63 131.007 284.67C131.707 285.71 132.797 286.23 134.277 286.23ZM164.837 271.5C164.177 277.78 162.677 283.28 160.337 288H158.057C157.097 286.08 156.317 284.25 155.717 282.51C155.117 280.77 154.627 278.94 154.247 277.02C153.887 278.94 153.397 280.77 152.777 282.51C152.157 284.25 151.357 286.08 150.377 288H148.067C146.867 285.68 145.897 283.19 145.157 280.53C144.437 277.87 143.877 274.86 143.477 271.5H146.357C146.657 274.28 147.027 276.71 147.467 278.79C147.927 280.85 148.567 282.77 149.387 284.55C151.187 280.79 152.387 276.44 152.987 271.5H155.567C156.207 276.56 157.407 280.94 159.167 284.64C159.987 282.72 160.607 280.68 161.027 278.52C161.467 276.36 161.757 274.02 161.897 271.5H164.837Z" fill="white"/>
<path d="M297.86 148.3C294.88 148.3 292.58 147.37 290.96 145.51C289.36 143.63 288.56 140.96 288.56 137.5C288.56 134.06 289.37 131.4 290.99 129.52C292.61 127.64 294.9 126.7 297.86 126.7C299.06 126.7 300.18 126.91 301.22 127.33C302.28 127.73 303.17 128.3 303.89 129.04C303.77 129.5 303.57 129.89 303.29 130.21C303.01 130.53 302.72 130.69 302.42 130.69C302.14 130.69 301.88 130.6 301.64 130.42C301.04 129.96 300.43 129.63 299.81 129.43C299.21 129.21 298.54 129.1 297.8 129.1C295.76 129.1 294.22 129.81 293.18 131.23C292.14 132.63 291.62 134.72 291.62 137.5C291.62 140.24 292.14 142.32 293.18 143.74C294.24 145.16 295.78 145.87 297.8 145.87C298.72 145.87 299.57 145.73 300.35 145.45C301.13 145.15 301.87 144.69 302.57 144.07C302.89 144.15 303.16 144.32 303.38 144.58C303.6 144.84 303.71 145.13 303.71 145.45C303.71 145.95 303.44 146.42 302.9 146.86C302.36 147.28 301.63 147.63 300.71 147.91C299.81 148.17 298.86 148.3 297.86 148.3ZM313.591 148.3C311.231 148.3 309.441 147.57 308.221 146.11C307.001 144.65 306.391 142.52 306.391 139.72C306.391 136.92 307.001 134.8 308.221 133.36C309.441 131.92 311.231 131.2 313.591 131.2C315.951 131.2 317.741 131.92 318.961 133.36C320.201 134.8 320.821 136.92 320.821 139.72C320.821 142.52 320.201 144.65 318.961 146.11C317.741 147.57 315.951 148.3 313.591 148.3ZM313.591 146.23C315.091 146.23 316.181 145.71 316.861 144.67C317.561 143.63 317.911 141.98 317.911 139.72C317.911 137.48 317.561 135.85 316.861 134.83C316.181 133.79 315.091 133.27 313.591 133.27C312.091 133.27 310.991 133.79 310.291 134.83C309.611 135.85 309.271 137.48 309.271 139.72C309.271 141.98 309.621 143.63 310.321 144.67C311.021 145.71 312.111 146.23 313.591 146.23ZM341.842 131.2C343.322 131.2 344.512 131.66 345.412 132.58C346.312 133.5 346.762 134.72 346.762 136.24V148H343.882V136.33C343.882 135.23 343.662 134.44 343.222 133.96C342.802 133.46 342.102 133.21 341.122 133.21C339.642 133.21 338.272 133.9 337.012 135.28C337.032 135.42 337.042 135.62 337.042 135.88V148H334.222V136.03C334.222 135.13 333.992 134.44 333.532 133.96C333.072 133.46 332.422 133.21 331.582 133.21C330.842 133.21 330.122 133.4 329.422 133.78C328.742 134.14 328.042 134.71 327.322 135.49V148H324.472V137.2C324.472 134.3 324.352 132.55 324.112 131.95C324.452 131.79 324.802 131.66 325.162 131.56C325.542 131.44 325.872 131.38 326.152 131.38C326.552 131.38 326.842 131.54 327.022 131.86C327.202 132.16 327.302 132.65 327.322 133.33C328.062 132.59 328.832 132.05 329.632 131.71C330.432 131.37 331.342 131.2 332.362 131.2C333.282 131.2 334.102 131.41 334.822 131.83C335.542 132.23 336.092 132.79 336.472 133.51C337.212 132.71 338.012 132.13 338.872 131.77C339.752 131.39 340.742 131.2 341.842 131.2ZM359.365 131.2C361.565 131.2 363.245 131.92 364.405 133.36C365.565 134.8 366.145 136.89 366.145 139.63C366.145 141.37 365.835 142.9 365.215 144.22C364.595 145.52 363.705 146.53 362.545 147.25C361.405 147.95 360.065 148.3 358.525 148.3C357.145 148.3 355.835 148.06 354.595 147.58V154.69H351.745V137.35C351.745 134.45 351.555 132.67 351.175 132.01C351.555 131.81 351.945 131.66 352.345 131.56C352.745 131.44 353.095 131.38 353.395 131.38C354.055 131.38 354.445 131.97 354.565 133.15C355.905 131.85 357.505 131.2 359.365 131.2ZM358.315 146.23C359.875 146.23 361.075 145.66 361.915 144.52C362.775 143.38 363.205 141.75 363.205 139.63C363.205 137.49 362.855 135.9 362.155 134.86C361.475 133.8 360.435 133.27 359.035 133.27C358.215 133.27 357.415 133.46 356.635 133.84C355.855 134.22 355.175 134.74 354.595 135.4V145.45C355.115 145.69 355.695 145.88 356.335 146.02C356.995 146.16 357.655 146.23 358.315 146.23ZM369.825 124.27H372.645V148H369.825V124.27ZM391.142 138.61C391.142 139.01 391.112 139.53 391.052 140.17H379.532C379.612 142.07 380.052 143.55 380.852 144.61C381.652 145.65 382.752 146.17 384.152 146.17C385.092 146.17 385.872 145.98 386.492 145.6C387.132 145.22 387.752 144.56 388.352 143.62C388.512 143.4 388.732 143.29 389.012 143.29C389.472 143.29 390.072 143.56 390.812 144.1C390.292 145.42 389.452 146.45 388.292 147.19C387.132 147.93 385.752 148.3 384.152 148.3C382.612 148.3 381.272 147.96 380.132 147.28C379.012 146.58 378.152 145.59 377.552 144.31C376.952 143.01 376.652 141.48 376.652 139.72C376.652 137.06 377.322 134.98 378.662 133.48C380.022 131.96 381.892 131.2 384.272 131.2C386.452 131.2 388.142 131.85 389.342 133.15C390.542 134.45 391.142 136.27 391.142 138.61ZM388.232 138.25C388.232 134.95 386.882 133.3 384.182 133.3C382.842 133.3 381.782 133.72 381.002 134.56C380.222 135.4 379.752 136.63 379.592 138.25H388.232ZM402.824 145.69C402.984 145.77 403.114 145.91 403.214 146.11C403.314 146.29 403.364 146.5 403.364 146.74C403.364 147.14 403.214 147.43 402.914 147.61C402.614 147.83 402.194 148 401.654 148.12C401.134 148.24 400.564 148.3 399.944 148.3C398.604 148.3 397.534 147.94 396.734 147.22C395.934 146.48 395.534 145.5 395.534 144.28V133.51H392.624V131.5H395.534V127H398.384V131.5H402.314V133.51H398.384V143.89C398.384 144.69 398.544 145.28 398.864 145.66C399.184 146.02 399.674 146.2 400.334 146.2C401.134 146.2 401.964 146.03 402.824 145.69ZM419.677 138.61C419.677 139.01 419.647 139.53 419.587 140.17H408.067C408.147 142.07 408.587 143.55 409.387 144.61C410.187 145.65 411.287 146.17 412.687 146.17C413.627 146.17 414.407 145.98 415.027 145.6C415.667 145.22 416.287 144.56 416.887 143.62C417.047 143.4 417.267 143.29 417.547 143.29C418.007 143.29 418.607 143.56 419.347 144.1C418.827 145.42 417.987 146.45 416.827 147.19C415.667 147.93 414.287 148.3 412.687 148.3C411.147 148.3 409.807 147.96 408.667 147.28C407.547 146.58 406.687 145.59 406.087 144.31C405.487 143.01 405.187 141.48 405.187 139.72C405.187 137.06 405.857 134.98 407.197 133.48C408.557 131.96 410.427 131.2 412.807 131.2C414.987 131.2 416.677 131.85 417.877 133.15C419.077 134.45 419.677 136.27 419.677 138.61ZM416.767 138.25C416.767 134.95 415.417 133.3 412.717 133.3C411.377 133.3 410.317 133.72 409.537 134.56C408.757 135.4 408.287 136.63 408.127 138.25H416.767ZM290.75 166H293.75V187H290.75V166ZM313.298 183.07C313.298 184.19 313.318 184.98 313.358 185.44C313.418 185.9 313.518 186.32 313.658 186.7C312.938 187 312.188 187.15 311.408 187.15C311.028 187.15 310.768 186.93 310.628 186.49C310.508 186.03 310.448 185.18 310.448 183.94V175.9C310.448 174.62 310.218 173.71 309.758 173.17C309.318 172.61 308.578 172.33 307.538 172.33C305.998 172.33 304.398 173.08 302.738 174.58V187H299.888V176.05C299.888 173.29 299.768 171.58 299.528 170.92C300.468 170.56 301.208 170.38 301.748 170.38C302.408 170.38 302.738 170.96 302.738 172.12V172.42C303.698 171.64 304.598 171.08 305.438 170.74C306.298 170.38 307.208 170.2 308.168 170.2C309.888 170.2 311.168 170.67 312.008 171.61C312.868 172.53 313.298 173.94 313.298 175.84V183.07ZM323.149 187.3C322.109 187.3 321.109 187.15 320.149 186.85C319.189 186.55 318.409 186.16 317.809 185.68C317.229 185.18 316.939 184.64 316.939 184.06C316.939 183.7 317.059 183.39 317.299 183.13C317.559 182.85 317.889 182.68 318.289 182.62C318.909 183.52 319.609 184.18 320.389 184.6C321.169 185.02 322.129 185.23 323.269 185.23C324.409 185.23 325.269 184.98 325.849 184.48C326.429 183.96 326.719 183.28 326.719 182.44C326.719 181.9 326.539 181.46 326.179 181.12C325.839 180.76 325.399 180.48 324.859 180.28C324.339 180.06 323.629 179.83 322.729 179.59C321.549 179.27 320.599 178.96 319.879 178.66C319.179 178.34 318.569 177.88 318.049 177.28C317.549 176.66 317.299 175.85 317.299 174.85C317.299 173.85 317.579 173 318.139 172.3C318.699 171.6 319.419 171.08 320.299 170.74C321.179 170.38 322.099 170.2 323.059 170.2C324.399 170.2 325.589 170.47 326.629 171.01C327.689 171.53 328.509 172.26 329.089 173.2C328.849 173.54 328.589 173.81 328.309 174.01C328.029 174.21 327.769 174.31 327.529 174.31C327.229 174.31 326.959 174.17 326.719 173.89C325.759 172.77 324.529 172.21 323.029 172.21C322.109 172.21 321.379 172.42 320.839 172.84C320.299 173.26 320.029 173.9 320.029 174.76C320.029 175.3 320.199 175.74 320.539 176.08C320.879 176.4 321.309 176.66 321.829 176.86C322.349 177.04 323.049 177.24 323.929 177.46C325.129 177.78 326.089 178.09 326.809 178.39C327.529 178.69 328.149 179.16 328.669 179.8C329.189 180.44 329.449 181.29 329.449 182.35C329.449 183.89 328.879 185.1 327.739 185.98C326.619 186.86 325.089 187.3 323.149 187.3ZM340.644 170.2C342.844 170.2 344.524 170.92 345.684 172.36C346.844 173.8 347.424 175.89 347.424 178.63C347.424 180.37 347.114 181.9 346.494 183.22C345.874 184.52 344.984 185.53 343.824 186.25C342.684 186.95 341.344 187.3 339.804 187.3C338.424 187.3 337.114 187.06 335.874 186.58V193.69H333.024V176.35C333.024 173.45 332.834 171.67 332.454 171.01C332.834 170.81 333.224 170.66 333.624 170.56C334.024 170.44 334.374 170.38 334.674 170.38C335.334 170.38 335.724 170.97 335.844 172.15C337.184 170.85 338.784 170.2 340.644 170.2ZM339.594 185.23C341.154 185.23 342.354 184.66 343.194 183.52C344.054 182.38 344.484 180.75 344.484 178.63C344.484 176.49 344.134 174.9 343.434 173.86C342.754 172.8 341.714 172.27 340.314 172.27C339.494 172.27 338.694 172.46 337.914 172.84C337.134 173.22 336.454 173.74 335.874 174.4V184.45C336.394 184.69 336.974 184.88 337.614 185.02C338.274 185.16 338.934 185.23 339.594 185.23ZM364.394 177.61C364.394 178.01 364.364 178.53 364.304 179.17H352.784C352.864 181.07 353.304 182.55 354.104 183.61C354.904 184.65 356.004 185.17 357.404 185.17C358.344 185.17 359.124 184.98 359.744 184.6C360.384 184.22 361.004 183.56 361.604 182.62C361.764 182.4 361.984 182.29 362.264 182.29C362.724 182.29 363.324 182.56 364.064 183.1C363.544 184.42 362.704 185.45 361.544 186.19C360.384 186.93 359.004 187.3 357.404 187.3C355.864 187.3 354.524 186.96 353.384 186.28C352.264 185.58 351.404 184.59 350.804 183.31C350.204 182.01 349.904 180.48 349.904 178.72C349.904 176.06 350.574 173.98 351.914 172.48C353.274 170.96 355.144 170.2 357.524 170.2C359.704 170.2 361.394 170.85 362.594 172.15C363.794 173.45 364.394 175.27 364.394 177.61ZM361.484 177.25C361.484 173.95 360.134 172.3 357.434 172.3C356.094 172.3 355.034 172.72 354.254 173.56C353.474 174.4 353.004 175.63 352.844 177.25H361.484ZM374.486 187.3C371.966 187.3 370.026 186.56 368.666 185.08C367.306 183.58 366.626 181.44 366.626 178.66C366.626 176.94 366.936 175.44 367.556 174.16C368.176 172.88 369.066 171.9 370.226 171.22C371.386 170.54 372.756 170.2 374.336 170.2C376.216 170.2 377.756 170.68 378.956 171.64C380.176 172.58 380.896 173.85 381.116 175.45C380.796 175.63 380.456 175.78 380.096 175.9C379.736 176 379.416 176.05 379.136 176.05C378.896 176.05 378.706 175.98 378.566 175.84C378.446 175.7 378.336 175.44 378.236 175.06C377.976 174.14 377.516 173.45 376.856 172.99C376.196 172.51 375.356 172.27 374.336 172.27C372.856 172.27 371.676 172.85 370.796 174.01C369.936 175.15 369.506 176.7 369.506 178.66C369.506 180.72 369.946 182.32 370.826 183.46C371.706 184.6 372.926 185.17 374.486 185.17C376.846 185.17 378.416 183.95 379.196 181.51C379.736 181.51 380.146 181.66 380.426 181.96C380.726 182.24 380.876 182.64 380.876 183.16C380.876 183.88 380.576 184.56 379.976 185.2C379.396 185.84 378.616 186.35 377.636 186.73C376.656 187.11 375.606 187.3 374.486 187.3ZM392.863 184.69C393.023 184.77 393.153 184.91 393.253 185.11C393.353 185.29 393.403 185.5 393.403 185.74C393.403 186.14 393.253 186.43 392.953 186.61C392.653 186.83 392.233 187 391.693 187.12C391.173 187.24 390.603 187.3 389.983 187.3C388.643 187.3 387.573 186.94 386.773 186.22C385.973 185.48 385.573 184.5 385.573 183.28V172.51H382.663V170.5H385.573V166H388.423V170.5H392.353V172.51H388.423V182.89C388.423 183.69 388.583 184.28 388.903 184.66C389.223 185.02 389.713 185.2 390.373 185.2C391.173 185.2 392.003 185.03 392.863 184.69ZM396.726 170.5H399.546V187H396.726V170.5ZM397.986 167.47C396.866 167.47 396.306 166.91 396.306 165.79V165.46C396.306 164.34 396.866 163.78 397.986 163.78H398.286C399.406 163.78 399.966 164.34 399.966 165.46V165.79C399.966 166.91 399.406 167.47 398.286 167.47H397.986ZM410.769 187.3C408.409 187.3 406.619 186.57 405.399 185.11C404.179 183.65 403.569 181.52 403.569 178.72C403.569 175.92 404.179 173.8 405.399 172.36C406.619 170.92 408.409 170.2 410.769 170.2C413.129 170.2 414.919 170.92 416.139 172.36C417.379 173.8 417.999 175.92 417.999 178.72C417.999 181.52 417.379 183.65 416.139 185.11C414.919 186.57 413.129 187.3 410.769 187.3ZM410.769 185.23C412.269 185.23 413.359 184.71 414.039 183.67C414.739 182.63 415.089 180.98 415.089 178.72C415.089 176.48 414.739 174.85 414.039 173.83C413.359 172.79 412.269 172.27 410.769 172.27C409.269 172.27 408.169 172.79 407.469 173.83C406.789 174.85 406.449 176.48 406.449 178.72C406.449 180.98 406.799 182.63 407.499 183.67C408.199 184.71 409.289 185.23 410.769 185.23ZM434.91 183.07C434.91 184.19 434.93 184.98 434.97 185.44C435.03 185.9 435.13 186.32 435.27 186.7C434.55 187 433.8 187.15 433.02 187.15C432.64 187.15 432.38 186.93 432.24 186.49C432.12 186.03 432.06 185.18 432.06 183.94V175.9C432.06 174.62 431.83 173.71 431.37 173.17C430.93 172.61 430.19 172.33 429.15 172.33C427.61 172.33 426.01 173.08 424.35 174.58V187H421.5V176.05C421.5 173.29 421.38 171.58 421.14 170.92C422.08 170.56 422.82 170.38 423.36 170.38C424.02 170.38 424.35 170.96 424.35 172.12V172.42C425.31 171.64 426.21 171.08 427.05 170.74C427.91 170.38 428.82 170.2 429.78 170.2C431.5 170.2 432.78 170.67 433.62 171.61C434.48 172.53 434.91 173.94 434.91 175.84V183.07ZM444.76 187.3C443.72 187.3 442.72 187.15 441.76 186.85C440.8 186.55 440.02 186.16 439.42 185.68C438.84 185.18 438.55 184.64 438.55 184.06C438.55 183.7 438.67 183.39 438.91 183.13C439.17 182.85 439.5 182.68 439.9 182.62C440.52 183.52 441.22 184.18 442 184.6C442.78 185.02 443.74 185.23 444.88 185.23C446.02 185.23 446.88 184.98 447.46 184.48C448.04 183.96 448.33 183.28 448.33 182.44C448.33 181.9 448.15 181.46 447.79 181.12C447.45 180.76 447.01 180.48 446.47 180.28C445.95 180.06 445.24 179.83 444.34 179.59C443.16 179.27 442.21 178.96 441.49 178.66C440.79 178.34 440.18 177.88 439.66 177.28C439.16 176.66 438.91 175.85 438.91 174.85C438.91 173.85 439.19 173 439.75 172.3C440.31 171.6 441.03 171.08 441.91 170.74C442.79 170.38 443.71 170.2 444.67 170.2C446.01 170.2 447.2 170.47 448.24 171.01C449.3 171.53 450.12 172.26 450.7 173.2C450.46 173.54 450.2 173.81 449.92 174.01C449.64 174.21 449.38 174.31 449.14 174.31C448.84 174.31 448.57 174.17 448.33 173.89C447.37 172.77 446.14 172.21 444.64 172.21C443.72 172.21 442.99 172.42 442.45 172.84C441.91 173.26 441.64 173.9 441.64 174.76C441.64 175.3 441.81 175.74 442.15 176.08C442.49 176.4 442.92 176.66 443.44 176.86C443.96 177.04 444.66 177.24 445.54 177.46C446.74 177.78 447.7 178.09 448.42 178.39C449.14 178.69 449.76 179.16 450.28 179.8C450.8 180.44 451.06 181.29 451.06 182.35C451.06 183.89 450.49 185.1 449.35 185.98C448.23 186.86 446.7 187.3 444.76 187.3Z" fill="white"/>
<path d="M547.94 246.75V249H535.58V228H538.55V246.75H547.94ZM556.691 249.3C554.331 249.3 552.541 248.57 551.321 247.11C550.101 245.65 549.491 243.52 549.491 240.72C549.491 237.92 550.101 235.8 551.321 234.36C552.541 232.92 554.331 232.2 556.691 232.2C559.051 232.2 560.841 232.92 562.061 234.36C563.301 235.8 563.921 237.92 563.921 240.72C563.921 243.52 563.301 245.65 562.061 247.11C560.841 248.57 559.051 249.3 556.691 249.3ZM556.691 247.23C558.191 247.23 559.281 246.71 559.961 245.67C560.661 244.63 561.011 242.98 561.011 240.72C561.011 238.48 560.661 236.85 559.961 235.83C559.281 234.79 558.191 234.27 556.691 234.27C555.191 234.27 554.091 234.79 553.391 235.83C552.711 236.85 552.371 238.48 552.371 240.72C552.371 242.98 552.721 244.63 553.421 245.67C554.121 246.71 555.211 247.23 556.691 247.23ZM579.601 244.2C579.601 245.36 579.671 246.24 579.811 246.84C579.971 247.44 580.241 247.96 580.621 248.4C580.341 248.62 580.001 248.81 579.601 248.97C579.201 249.11 578.831 249.18 578.491 249.18C577.571 249.18 577.021 248.36 576.841 246.72C576.241 247.54 575.471 248.18 574.531 248.64C573.611 249.08 572.571 249.3 571.411 249.3C569.911 249.3 568.701 248.91 567.781 248.13C566.881 247.35 566.431 246.31 566.431 245.01C566.431 241.33 569.871 239.32 576.751 238.98V237.81C576.751 236.65 576.461 235.79 575.881 235.23C575.301 234.67 574.401 234.39 573.181 234.39C572.381 234.39 571.631 234.55 570.931 234.87C570.231 235.19 569.431 235.75 568.531 236.55C568.391 236.65 568.261 236.7 568.141 236.7C567.881 236.7 567.601 236.57 567.301 236.31C567.001 236.03 566.721 235.65 566.461 235.17C567.301 234.23 568.341 233.5 569.581 232.98C570.821 232.46 572.111 232.2 573.451 232.2C575.371 232.2 576.871 232.7 577.951 233.7C579.051 234.68 579.601 236.05 579.601 237.81V244.2ZM572.041 247.23C572.961 247.23 573.821 246.96 574.621 246.42C575.421 245.86 576.131 245.07 576.751 244.05V240.84C571.791 241.06 569.311 242.39 569.311 244.83C569.311 245.61 569.541 246.21 570.001 246.63C570.481 247.03 571.161 247.23 572.041 247.23ZM597.648 245.07C597.648 246.19 597.668 246.98 597.708 247.44C597.768 247.9 597.868 248.32 598.008 248.7C597.288 249 596.538 249.15 595.758 249.15C595.378 249.15 595.118 248.93 594.978 248.49C594.858 248.03 594.798 247.18 594.798 245.94V237.9C594.798 236.62 594.568 235.71 594.108 235.17C593.668 234.61 592.928 234.33 591.888 234.33C590.348 234.33 588.748 235.08 587.088 236.58V249H584.238V238.05C584.238 235.29 584.118 233.58 583.878 232.92C584.818 232.56 585.558 232.38 586.098 232.38C586.758 232.38 587.088 232.96 587.088 234.12V234.42C588.048 233.64 588.948 233.08 589.788 232.74C590.648 232.38 591.558 232.2 592.518 232.2C594.238 232.2 595.518 232.67 596.358 233.61C597.218 234.53 597.648 235.94 597.648 237.84V245.07ZM622.463 244.2C622.463 245.36 622.533 246.24 622.673 246.84C622.833 247.44 623.103 247.96 623.483 248.4C623.203 248.62 622.863 248.81 622.463 248.97C622.063 249.11 621.693 249.18 621.353 249.18C620.433 249.18 619.883 248.36 619.703 246.72C619.103 247.54 618.333 248.18 617.393 248.64C616.473 249.08 615.433 249.3 614.273 249.3C612.773 249.3 611.563 248.91 610.643 248.13C609.743 247.35 609.293 246.31 609.293 245.01C609.293 241.33 612.733 239.32 619.613 238.98V237.81C619.613 236.65 619.323 235.79 618.743 235.23C618.163 234.67 617.263 234.39 616.043 234.39C615.243 234.39 614.493 234.55 613.793 234.87C613.093 235.19 612.293 235.75 611.393 236.55C611.253 236.65 611.123 236.7 611.003 236.7C610.743 236.7 610.463 236.57 610.163 236.31C609.863 236.03 609.583 235.65 609.323 235.17C610.163 234.23 611.203 233.5 612.443 232.98C613.683 232.46 614.973 232.2 616.313 232.2C618.233 232.2 619.733 232.7 620.813 233.7C621.913 234.68 622.463 236.05 622.463 237.81V244.2ZM614.903 247.23C615.823 247.23 616.683 246.96 617.483 246.42C618.283 245.86 618.993 245.07 619.613 244.05V240.84C614.653 241.06 612.173 242.39 612.173 244.83C612.173 245.61 612.403 246.21 612.863 246.63C613.343 247.03 614.023 247.23 614.903 247.23ZM640.509 245.07C640.509 246.19 640.529 246.98 640.569 247.44C640.629 247.9 640.729 248.32 640.869 248.7C640.149 249 639.399 249.15 638.619 249.15C638.239 249.15 637.979 248.93 637.839 248.49C637.719 248.03 637.659 247.18 637.659 245.94V237.9C637.659 236.62 637.429 235.71 636.969 235.17C636.529 234.61 635.789 234.33 634.749 234.33C633.209 234.33 631.609 235.08 629.949 236.58V249H627.099V238.05C627.099 235.29 626.979 233.58 626.739 232.92C627.679 232.56 628.419 232.38 628.959 232.38C629.619 232.38 629.949 232.96 629.949 234.12V234.42C630.909 233.64 631.809 233.08 632.649 232.74C633.509 232.38 634.419 232.2 635.379 232.2C637.099 232.2 638.379 232.67 639.219 233.61C640.079 234.53 640.509 235.94 640.509 237.84V245.07ZM658.52 244.38C658.52 246.3 658.72 247.7 659.12 248.58C658.4 248.96 657.7 249.15 657.02 249.15C656.36 249.15 655.94 248.47 655.76 247.11C655.16 247.87 654.48 248.43 653.72 248.79C652.96 249.13 652.05 249.3 650.99 249.3C648.85 249.3 647.17 248.55 645.95 247.05C644.73 245.55 644.12 243.47 644.12 240.81C644.12 238.13 644.79 236.03 646.13 234.51C647.47 232.97 649.32 232.2 651.68 232.2C652.36 232.2 653.07 232.32 653.81 232.56C654.57 232.78 655.19 233.06 655.67 233.4V225.27H658.52V244.38ZM651.35 247.23C652.27 247.23 653.08 247.03 653.78 246.63C654.48 246.21 655.11 245.57 655.67 244.71V235.71C655.25 235.27 654.68 234.91 653.96 234.63C653.26 234.35 652.55 234.21 651.83 234.21C650.27 234.21 649.07 234.78 648.23 235.92C647.41 237.04 647 238.67 647 240.81C647 242.93 647.37 244.53 648.11 245.61C648.85 246.69 649.93 247.23 651.35 247.23ZM548.57 288C548.17 285.82 547.74 283.89 547.28 282.21H537.71C537.25 283.89 536.82 285.82 536.42 288H533.45C534.27 283.96 535.28 280.25 536.48 276.87C537.7 273.47 539.2 270.18 540.98 267H544.04C545.82 270.16 547.31 273.43 548.51 276.81C549.73 280.19 550.74 283.92 551.54 288H548.57ZM546.65 279.9C545.57 276.22 544.19 272.78 542.51 269.58C540.81 272.74 539.42 276.18 538.34 279.9H546.65ZM562.064 271.2C564.264 271.2 565.944 271.92 567.104 273.36C568.264 274.8 568.844 276.89 568.844 279.63C568.844 281.37 568.534 282.9 567.914 284.22C567.294 285.52 566.404 286.53 565.244 287.25C564.104 287.95 562.764 288.3 561.224 288.3C559.844 288.3 558.534 288.06 557.294 287.58V294.69H554.444V277.35C554.444 274.45 554.254 272.67 553.874 272.01C554.254 271.81 554.644 271.66 555.044 271.56C555.444 271.44 555.794 271.38 556.094 271.38C556.754 271.38 557.144 271.97 557.264 273.15C558.604 271.85 560.204 271.2 562.064 271.2ZM561.014 286.23C562.574 286.23 563.774 285.66 564.614 284.52C565.474 283.38 565.904 281.75 565.904 279.63C565.904 277.49 565.554 275.9 564.854 274.86C564.174 273.8 563.134 273.27 561.734 273.27C560.914 273.27 560.114 273.46 559.334 273.84C558.554 274.22 557.874 274.74 557.294 275.4V285.45C557.814 285.69 558.394 285.88 559.034 286.02C559.694 286.16 560.354 286.23 561.014 286.23ZM579.994 271.2C582.194 271.2 583.874 271.92 585.034 273.36C586.194 274.8 586.774 276.89 586.774 279.63C586.774 281.37 586.464 282.9 585.844 284.22C585.224 285.52 584.334 286.53 583.174 287.25C582.034 287.95 580.694 288.3 579.154 288.3C577.774 288.3 576.464 288.06 575.224 287.58V294.69H572.374V277.35C572.374 274.45 572.184 272.67 571.804 272.01C572.184 271.81 572.574 271.66 572.974 271.56C573.374 271.44 573.724 271.38 574.024 271.38C574.684 271.38 575.074 271.97 575.194 273.15C576.534 271.85 578.134 271.2 579.994 271.2ZM578.944 286.23C580.504 286.23 581.704 285.66 582.544 284.52C583.404 283.38 583.834 281.75 583.834 279.63C583.834 277.49 583.484 275.9 582.784 274.86C582.104 273.8 581.064 273.27 579.664 273.27C578.844 273.27 578.044 273.46 577.264 273.84C576.484 274.22 575.804 274.74 575.224 275.4V285.45C575.744 285.69 576.324 285.88 576.964 286.02C577.624 286.16 578.284 286.23 578.944 286.23ZM597.324 271.29C598.904 271.29 599.694 271.88 599.694 273.06C599.694 273.54 599.564 273.93 599.304 274.23C598.784 273.97 598.104 273.84 597.264 273.84C595.944 273.84 594.904 274.33 594.144 275.31C593.404 276.27 593.034 277.6 593.034 279.3V288H590.184V271.5H593.034V274.26C593.474 273.36 594.074 272.64 594.834 272.1C595.614 271.56 596.444 271.29 597.324 271.29ZM614.816 283.2C614.816 284.36 614.886 285.24 615.026 285.84C615.186 286.44 615.456 286.96 615.836 287.4C615.556 287.62 615.216 287.81 614.816 287.97C614.416 288.11 614.046 288.18 613.706 288.18C612.786 288.18 612.236 287.36 612.056 285.72C611.456 286.54 610.686 287.18 609.746 287.64C608.826 288.08 607.786 288.3 606.626 288.3C605.126 288.3 603.916 287.91 602.996 287.13C602.096 286.35 601.646 285.31 601.646 284.01C601.646 280.33 605.086 278.32 611.966 277.98V276.81C611.966 275.65 611.676 274.79 611.096 274.23C610.516 273.67 609.616 273.39 608.396 273.39C607.596 273.39 606.846 273.55 606.146 273.87C605.446 274.19 604.646 274.75 603.746 275.55C603.606 275.65 603.476 275.7 603.356 275.7C603.096 275.7 602.816 275.57 602.516 275.31C602.216 275.03 601.936 274.65 601.676 274.17C602.516 273.23 603.556 272.5 604.796 271.98C606.036 271.46 607.326 271.2 608.666 271.2C610.586 271.2 612.086 271.7 613.166 272.7C614.266 273.68 614.816 275.05 614.816 276.81V283.2ZM607.256 286.23C608.176 286.23 609.036 285.96 609.836 285.42C610.636 284.86 611.346 284.07 611.966 283.05V279.84C607.006 280.06 604.526 281.39 604.526 283.83C604.526 284.61 604.756 285.21 605.216 285.63C605.696 286.03 606.376 286.23 607.256 286.23ZM619.963 271.5H622.783V288H619.963V271.5ZM621.223 268.47C620.103 268.47 619.543 267.91 619.543 266.79V266.46C619.543 265.34 620.103 264.78 621.223 264.78H621.523C622.643 264.78 623.203 265.34 623.203 266.46V266.79C623.203 267.91 622.643 268.47 621.523 268.47H621.223ZM633.045 288.3C632.005 288.3 631.005 288.15 630.045 287.85C629.085 287.55 628.305 287.16 627.705 286.68C627.125 286.18 626.835 285.64 626.835 285.06C626.835 284.7 626.955 284.39 627.195 284.13C627.455 283.85 627.785 283.68 628.185 283.62C628.805 284.52 629.505 285.18 630.285 285.6C631.065 286.02 632.025 286.23 633.165 286.23C634.305 286.23 635.165 285.98 635.745 285.48C636.325 284.96 636.615 284.28 636.615 283.44C636.615 282.9 636.435 282.46 636.075 282.12C635.735 281.76 635.295 281.48 634.755 281.28C634.235 281.06 633.525 280.83 632.625 280.59C631.445 280.27 630.495 279.96 629.775 279.66C629.075 279.34 628.465 278.88 627.945 278.28C627.445 277.66 627.195 276.85 627.195 275.85C627.195 274.85 627.475 274 628.035 273.3C628.595 272.6 629.315 272.08 630.195 271.74C631.075 271.38 631.995 271.2 632.955 271.2C634.295 271.2 635.485 271.47 636.525 272.01C637.585 272.53 638.405 273.26 638.985 274.2C638.745 274.54 638.485 274.81 638.205 275.01C637.925 275.21 637.665 275.31 637.425 275.31C637.125 275.31 636.855 275.17 636.615 274.89C635.655 273.77 634.425 273.21 632.925 273.21C632.005 273.21 631.275 273.42 630.735 273.84C630.195 274.26 629.925 274.9 629.925 275.76C629.925 276.3 630.095 276.74 630.435 277.08C630.775 277.4 631.205 277.66 631.725 277.86C632.245 278.04 632.945 278.24 633.825 278.46C635.025 278.78 635.985 279.09 636.705 279.39C637.425 279.69 638.045 280.16 638.565 280.8C639.085 281.44 639.345 282.29 639.345 283.35C639.345 284.89 638.775 286.1 637.635 286.98C636.515 287.86 634.985 288.3 633.045 288.3ZM655.041 283.2C655.041 284.36 655.111 285.24 655.251 285.84C655.411 286.44 655.681 286.96 656.061 287.4C655.781 287.62 655.441 287.81 655.041 287.97C654.641 288.11 654.271 288.18 653.931 288.18C653.011 288.18 652.461 287.36 652.281 285.72C651.681 286.54 650.911 287.18 649.971 287.64C649.051 288.08 648.011 288.3 646.851 288.3C645.351 288.3 644.141 287.91 643.221 287.13C642.321 286.35 641.871 285.31 641.871 284.01C641.871 280.33 645.311 278.32 652.191 277.98V276.81C652.191 275.65 651.901 274.79 651.321 274.23C650.741 273.67 649.841 273.39 648.621 273.39C647.821 273.39 647.071 273.55 646.371 273.87C645.671 274.19 644.871 274.75 643.971 275.55C643.831 275.65 643.701 275.7 643.581 275.7C643.321 275.7 643.041 275.57 642.741 275.31C642.441 275.03 642.161 274.65 641.901 274.17C642.741 273.23 643.781 272.5 645.021 271.98C646.261 271.46 647.551 271.2 648.891 271.2C650.811 271.2 652.311 271.7 653.391 272.7C654.491 273.68 655.041 275.05 655.041 276.81V283.2ZM647.481 286.23C648.401 286.23 649.261 285.96 650.061 285.42C650.861 284.86 651.571 284.07 652.191 283.05V279.84C647.231 280.06 644.751 281.39 644.751 283.83C644.751 284.61 644.981 285.21 645.441 285.63C645.921 286.03 646.601 286.23 647.481 286.23ZM659.887 264.27H662.707V288H659.887V264.27ZM672.655 288.3C671.615 288.3 670.615 288.15 669.655 287.85C668.695 287.55 667.915 287.16 667.315 286.68C666.735 286.18 666.445 285.64 666.445 285.06C666.445 284.7 666.565 284.39 666.805 284.13C667.065 283.85 667.395 283.68 667.795 283.62C668.415 284.52 669.115 285.18 669.895 285.6C670.675 286.02 671.635 286.23 672.775 286.23C673.915 286.23 674.775 285.98 675.355 285.48C675.935 284.96 676.225 284.28 676.225 283.44C676.225 282.9 676.045 282.46 675.685 282.12C675.345 281.76 674.905 281.48 674.365 281.28C673.845 281.06 673.135 280.83 672.235 280.59C671.055 280.27 670.105 279.96 669.385 279.66C668.685 279.34 668.075 278.88 667.555 278.28C667.055 277.66 666.805 276.85 666.805 275.85C666.805 274.85 667.085 274 667.645 273.3C668.205 272.6 668.925 272.08 669.805 271.74C670.685 271.38 671.605 271.2 672.565 271.2C673.905 271.2 675.095 271.47 676.135 272.01C677.195 272.53 678.015 273.26 678.595 274.2C678.355 274.54 678.095 274.81 677.815 275.01C677.535 275.21 677.275 275.31 677.035 275.31C676.735 275.31 676.465 275.17 676.225 274.89C675.265 273.77 674.035 273.21 672.535 273.21C671.615 273.21 670.885 273.42 670.345 273.84C669.805 274.26 669.535 274.9 669.535 275.76C669.535 276.3 669.705 276.74 670.045 277.08C670.385 277.4 670.815 277.66 671.335 277.86C671.855 278.04 672.555 278.24 673.435 278.46C674.635 278.78 675.595 279.09 676.315 279.39C677.035 279.69 677.655 280.16 678.175 280.8C678.695 281.44 678.955 282.29 678.955 283.35C678.955 284.89 678.385 286.1 677.245 286.98C676.125 287.86 674.595 288.3 672.655 288.3Z" fill="white"/>
<path d="M796.75 157.3C795.29 157.3 793.97 157.1 792.79 156.7C791.63 156.28 790.72 155.71 790.06 154.99C789.4 154.25 789.07 153.42 789.07 152.5C789.07 152 789.26 151.6 789.64 151.3C790.04 151 790.58 150.84 791.26 150.82C791.52 152.16 792.12 153.19 793.06 153.91C794.02 154.61 795.27 154.96 796.81 154.96C798.35 154.96 799.56 154.63 800.44 153.97C801.34 153.29 801.79 152.38 801.79 151.24C801.79 150.26 801.39 149.48 800.59 148.9C799.79 148.3 798.39 147.73 796.39 147.19C794.71 146.73 793.38 146.24 792.4 145.72C791.42 145.18 790.7 144.56 790.24 143.86C789.8 143.14 789.58 142.28 789.58 141.28C789.58 139.56 790.23 138.2 791.53 137.2C792.83 136.2 794.61 135.7 796.87 135.7C798.79 135.7 800.4 136.15 801.7 137.05C803.02 137.95 803.91 139.22 804.37 140.86C804.17 141.06 803.9 141.23 803.56 141.37C803.22 141.49 802.89 141.55 802.57 141.55C802.27 141.55 802.01 141.48 801.79 141.34C801.59 141.2 801.42 140.97 801.28 140.65C800.86 139.81 800.26 139.16 799.48 138.7C798.72 138.24 797.85 138.01 796.87 138.01C795.45 138.01 794.38 138.27 793.66 138.79C792.94 139.31 792.58 140.09 792.58 141.13C792.58 141.71 792.71 142.2 792.97 142.6C793.25 142.98 793.71 143.34 794.35 143.68C795.01 144 795.95 144.34 797.17 144.7C799.27 145.32 800.86 145.9 801.94 146.44C803.02 146.98 803.77 147.59 804.19 148.27C804.63 148.93 804.85 149.78 804.85 150.82C804.85 152.12 804.51 153.26 803.83 154.24C803.17 155.22 802.23 155.98 801.01 156.52C799.79 157.04 798.37 157.3 796.75 157.3ZM809.158 140.5H811.978V157H809.158V140.5ZM810.418 137.47C809.298 137.47 808.738 136.91 808.738 135.79V135.46C808.738 134.34 809.298 133.78 810.418 133.78H810.718C811.838 133.78 812.398 134.34 812.398 135.46V135.79C812.398 136.91 811.838 137.47 810.718 137.47H810.418ZM830.701 139.33C831.161 139.33 831.491 139.47 831.691 139.75C831.911 140.01 832.021 140.45 832.021 141.07C832.021 141.37 832.011 141.6 831.991 141.76C830.551 141.76 829.541 141.95 828.961 142.33C829.721 143.27 830.101 144.4 830.101 145.72C830.101 147.62 829.521 149.06 828.361 150.04C827.201 151 825.501 151.48 823.261 151.48C822.041 151.48 821.161 151.57 820.621 151.75C820.101 151.91 819.841 152.18 819.841 152.56C819.841 152.98 820.171 153.29 820.831 153.49C821.511 153.67 822.621 153.76 824.161 153.76C826.461 153.76 828.231 154.15 829.471 154.93C830.731 155.71 831.361 156.81 831.361 158.23C831.361 159.77 830.681 160.97 829.321 161.83C827.961 162.69 826.041 163.12 823.561 163.12C821.181 163.12 819.351 162.74 818.071 161.98C816.811 161.24 816.181 160.16 816.181 158.74C816.181 157.9 816.471 157.19 817.051 156.61C817.651 156.01 818.501 155.59 819.601 155.35V155.26C818.941 155.1 818.411 154.81 818.011 154.39C817.631 153.95 817.441 153.44 817.441 152.86C817.441 152.36 817.641 151.91 818.041 151.51C818.461 151.11 819.021 150.82 819.721 150.64C818.821 150.16 818.111 149.53 817.591 148.75C817.091 147.95 816.841 147.06 816.841 146.08C816.841 144.16 817.431 142.7 818.611 141.7C819.811 140.7 821.551 140.2 823.831 140.2C825.151 140.2 826.321 140.47 827.341 141.01C827.821 140.49 828.361 140.08 828.961 139.78C829.561 139.48 830.141 139.33 830.701 139.33ZM823.441 149.41C824.761 149.41 825.711 149.13 826.291 148.57C826.871 148.01 827.161 147.1 827.161 145.84C827.161 144.58 826.861 143.66 826.261 143.08C825.681 142.5 824.741 142.21 823.441 142.21C822.181 142.21 821.251 142.51 820.651 143.11C820.051 143.69 819.751 144.6 819.751 145.84C819.751 148.22 820.981 149.41 823.441 149.41ZM823.681 155.92C820.641 155.92 819.121 156.75 819.121 158.41C819.121 160.15 820.601 161.02 823.561 161.02C825.201 161.02 826.441 160.8 827.281 160.36C828.121 159.92 828.541 159.27 828.541 158.41C828.541 157.55 828.151 156.92 827.371 156.52C826.611 156.12 825.381 155.92 823.681 155.92ZM848.249 153.07C848.249 154.19 848.269 154.98 848.309 155.44C848.369 155.9 848.469 156.32 848.609 156.7C847.889 157 847.139 157.15 846.359 157.15C845.979 157.15 845.719 156.93 845.579 156.49C845.459 156.03 845.399 155.18 845.399 153.94V145.9C845.399 144.62 845.169 143.71 844.709 143.17C844.269 142.61 843.529 142.33 842.489 142.33C840.949 142.33 839.349 143.08 837.689 144.58V157H834.839V146.05C834.839 143.29 834.719 141.58 834.479 140.92C835.419 140.56 836.159 140.38 836.699 140.38C837.359 140.38 837.689 140.96 837.689 142.12V142.42C838.649 141.64 839.549 141.08 840.389 140.74C841.249 140.38 842.159 140.2 843.119 140.2C844.839 140.2 846.119 140.67 846.959 141.61C847.819 142.53 848.249 143.94 848.249 145.84V153.07ZM873.064 152.2C873.064 153.36 873.134 154.24 873.274 154.84C873.434 155.44 873.704 155.96 874.084 156.4C873.804 156.62 873.464 156.81 873.064 156.97C872.664 157.11 872.294 157.18 871.954 157.18C871.034 157.18 870.484 156.36 870.304 154.72C869.704 155.54 868.934 156.18 867.994 156.64C867.074 157.08 866.034 157.3 864.874 157.3C863.374 157.3 862.164 156.91 861.244 156.13C860.344 155.35 859.894 154.31 859.894 153.01C859.894 149.33 863.334 147.32 870.214 146.98V145.81C870.214 144.65 869.924 143.79 869.344 143.23C868.764 142.67 867.864 142.39 866.644 142.39C865.844 142.39 865.094 142.55 864.394 142.87C863.694 143.19 862.894 143.75 861.994 144.55C861.854 144.65 861.724 144.7 861.604 144.7C861.344 144.7 861.064 144.57 860.764 144.31C860.464 144.03 860.184 143.65 859.924 143.17C860.764 142.23 861.804 141.5 863.044 140.98C864.284 140.46 865.574 140.2 866.914 140.2C868.834 140.2 870.334 140.7 871.414 141.7C872.514 142.68 873.064 144.05 873.064 145.81V152.2ZM865.504 155.23C866.424 155.23 867.284 154.96 868.084 154.42C868.884 153.86 869.594 153.07 870.214 152.05V148.84C865.254 149.06 862.774 150.39 862.774 152.83C862.774 153.61 863.004 154.21 863.464 154.63C863.944 155.03 864.624 155.23 865.504 155.23ZM891.111 153.07C891.111 154.19 891.131 154.98 891.171 155.44C891.231 155.9 891.331 156.32 891.471 156.7C890.751 157 890.001 157.15 889.221 157.15C888.841 157.15 888.581 156.93 888.441 156.49C888.321 156.03 888.261 155.18 888.261 153.94V145.9C888.261 144.62 888.031 143.71 887.571 143.17C887.131 142.61 886.391 142.33 885.351 142.33C883.811 142.33 882.211 143.08 880.551 144.58V157H877.701V146.05C877.701 143.29 877.581 141.58 877.341 140.92C878.281 140.56 879.021 140.38 879.561 140.38C880.221 140.38 880.551 140.96 880.551 142.12V142.42C881.511 141.64 882.411 141.08 883.251 140.74C884.111 140.38 885.021 140.2 885.981 140.2C887.701 140.2 888.981 140.67 889.821 141.61C890.681 142.53 891.111 143.94 891.111 145.84V153.07ZM909.121 152.38C909.121 154.3 909.321 155.7 909.721 156.58C909.001 156.96 908.301 157.15 907.621 157.15C906.961 157.15 906.541 156.47 906.361 155.11C905.761 155.87 905.081 156.43 904.321 156.79C903.561 157.13 902.651 157.3 901.591 157.3C899.451 157.3 897.771 156.55 896.551 155.05C895.331 153.55 894.721 151.47 894.721 148.81C894.721 146.13 895.391 144.03 896.731 142.51C898.071 140.97 899.921 140.2 902.281 140.2C902.961 140.2 903.671 140.32 904.411 140.56C905.171 140.78 905.791 141.06 906.271 141.4V133.27H909.121V152.38ZM901.951 155.23C902.871 155.23 903.681 155.03 904.381 154.63C905.081 154.21 905.711 153.57 906.271 152.71V143.71C905.851 143.27 905.281 142.91 904.561 142.63C903.861 142.35 903.151 142.21 902.431 142.21C900.871 142.21 899.671 142.78 898.831 143.92C898.011 145.04 897.601 146.67 897.601 148.81C897.601 150.93 897.971 152.53 898.711 153.61C899.451 154.69 900.531 155.23 901.951 155.23ZM792.37 177.25V184.06H800.65V186.31H792.37V196H789.37V175H801.94V177.25H792.37ZM818.808 192.4C818.808 193.7 818.958 194.8 819.258 195.7C818.698 196 818.078 196.15 817.398 196.15C816.918 196.15 816.568 195.99 816.348 195.67C816.148 195.35 816.028 194.76 815.988 193.9C815.408 194.64 814.638 195.23 813.678 195.67C812.738 196.09 811.708 196.3 810.588 196.3C808.868 196.3 807.568 195.84 806.688 194.92C805.828 193.98 805.398 192.59 805.398 190.75V179.5H808.248V190.54C808.248 191.86 808.478 192.82 808.938 193.42C809.418 194 810.188 194.29 811.248 194.29C812.188 194.29 813.068 194.05 813.888 193.57C814.708 193.07 815.398 192.37 815.958 191.47V179.5H818.808V192.4ZM837.234 192.07C837.234 193.19 837.254 193.98 837.294 194.44C837.354 194.9 837.454 195.32 837.594 195.7C836.874 196 836.124 196.15 835.344 196.15C834.964 196.15 834.704 195.93 834.564 195.49C834.444 195.03 834.384 194.18 834.384 192.94V184.9C834.384 183.62 834.154 182.71 833.694 182.17C833.254 181.61 832.514 181.33 831.474 181.33C829.934 181.33 828.334 182.08 826.674 183.58V196H823.824V185.05C823.824 182.29 823.704 180.58 823.464 179.92C824.404 179.56 825.144 179.38 825.684 179.38C826.344 179.38 826.674 179.96 826.674 181.12V181.42C827.634 180.64 828.534 180.08 829.374 179.74C830.234 179.38 831.144 179.2 832.104 179.2C833.824 179.2 835.104 179.67 835.944 180.61C836.804 181.53 837.234 182.94 837.234 184.84V192.07ZM855.244 191.38C855.244 193.3 855.444 194.7 855.844 195.58C855.124 195.96 854.424 196.15 853.744 196.15C853.084 196.15 852.664 195.47 852.484 194.11C851.884 194.87 851.204 195.43 850.444 195.79C849.684 196.13 848.774 196.3 847.714 196.3C845.574 196.3 843.894 195.55 842.674 194.05C841.454 192.55 840.844 190.47 840.844 187.81C840.844 185.13 841.514 183.03 842.854 181.51C844.194 179.97 846.044 179.2 848.404 179.2C849.084 179.2 849.794 179.32 850.534 179.56C851.294 179.78 851.914 180.06 852.394 180.4V172.27H855.244V191.38ZM848.074 194.23C848.994 194.23 849.804 194.03 850.504 193.63C851.204 193.21 851.834 192.57 852.394 191.71V182.71C851.974 182.27 851.404 181.91 850.684 181.63C849.984 181.35 849.274 181.21 848.554 181.21C846.994 181.21 845.794 181.78 844.954 182.92C844.134 184.04 843.724 185.67 843.724 187.81C843.724 189.93 844.094 191.53 844.834 192.61C845.574 193.69 846.654 194.23 848.074 194.23Z" fill="white"/>
<path d="M1052.86 249.3C1049.88 249.3 1047.58 248.37 1045.96 246.51C1044.36 244.63 1043.56 241.96 1043.56 238.5C1043.56 235.06 1044.37 232.4 1045.99 230.52C1047.61 228.64 1049.9 227.7 1052.86 227.7C1054.06 227.7 1055.18 227.91 1056.22 228.33C1057.28 228.73 1058.17 229.3 1058.89 230.04C1058.77 230.5 1058.57 230.89 1058.29 231.21C1058.01 231.53 1057.72 231.69 1057.42 231.69C1057.14 231.69 1056.88 231.6 1056.64 231.42C1056.04 230.96 1055.43 230.63 1054.81 230.43C1054.21 230.21 1053.54 230.1 1052.8 230.1C1050.76 230.1 1049.22 230.81 1048.18 232.23C1047.14 233.63 1046.62 235.72 1046.62 238.5C1046.62 241.24 1047.14 243.32 1048.18 244.74C1049.24 246.16 1050.78 246.87 1052.8 246.87C1053.72 246.87 1054.57 246.73 1055.35 246.45C1056.13 246.15 1056.87 245.69 1057.57 245.07C1057.89 245.15 1058.16 245.32 1058.38 245.58C1058.6 245.84 1058.71 246.13 1058.71 246.45C1058.71 246.95 1058.44 247.42 1057.9 247.86C1057.36 248.28 1056.63 248.63 1055.71 248.91C1054.81 249.17 1053.86 249.3 1052.86 249.3ZM1062.89 225.27H1065.71V249H1062.89V225.27ZM1076.62 249.3C1074.26 249.3 1072.47 248.57 1071.25 247.11C1070.03 245.65 1069.42 243.52 1069.42 240.72C1069.42 237.92 1070.03 235.8 1071.25 234.36C1072.47 232.92 1074.26 232.2 1076.62 232.2C1078.98 232.2 1080.77 232.92 1081.99 234.36C1083.23 235.8 1083.85 237.92 1083.85 240.72C1083.85 243.52 1083.23 245.65 1081.99 247.11C1080.77 248.57 1078.98 249.3 1076.62 249.3ZM1076.62 247.23C1078.12 247.23 1079.21 246.71 1079.89 245.67C1080.59 244.63 1080.94 242.98 1080.94 240.72C1080.94 238.48 1080.59 236.85 1079.89 235.83C1079.21 234.79 1078.12 234.27 1076.62 234.27C1075.12 234.27 1074.02 234.79 1073.32 235.83C1072.64 236.85 1072.3 238.48 1072.3 240.72C1072.3 242.98 1072.65 244.63 1073.35 245.67C1074.05 246.71 1075.14 247.23 1076.62 247.23ZM1092.3 249.3C1091.26 249.3 1090.26 249.15 1089.3 248.85C1088.34 248.55 1087.56 248.16 1086.96 247.68C1086.38 247.18 1086.09 246.64 1086.09 246.06C1086.09 245.7 1086.21 245.39 1086.45 245.13C1086.71 244.85 1087.04 244.68 1087.44 244.62C1088.06 245.52 1088.76 246.18 1089.54 246.6C1090.32 247.02 1091.28 247.23 1092.42 247.23C1093.56 247.23 1094.42 246.98 1095 246.48C1095.58 245.96 1095.87 245.28 1095.87 244.44C1095.87 243.9 1095.69 243.46 1095.33 243.12C1094.99 242.76 1094.55 242.48 1094.01 242.28C1093.49 242.06 1092.78 241.83 1091.88 241.59C1090.7 241.27 1089.75 240.96 1089.03 240.66C1088.33 240.34 1087.72 239.88 1087.2 239.28C1086.7 238.66 1086.45 237.85 1086.45 236.85C1086.45 235.85 1086.73 235 1087.29 234.3C1087.85 233.6 1088.57 233.08 1089.45 232.74C1090.33 232.38 1091.25 232.2 1092.21 232.2C1093.55 232.2 1094.74 232.47 1095.78 233.01C1096.84 233.53 1097.66 234.26 1098.24 235.2C1098 235.54 1097.74 235.81 1097.46 236.01C1097.18 236.21 1096.92 236.31 1096.68 236.31C1096.38 236.31 1096.11 236.17 1095.87 235.89C1094.91 234.77 1093.68 234.21 1092.18 234.21C1091.26 234.21 1090.53 234.42 1089.99 234.84C1089.45 235.26 1089.18 235.9 1089.18 236.76C1089.18 237.3 1089.35 237.74 1089.69 238.08C1090.03 238.4 1090.46 238.66 1090.98 238.86C1091.5 239.04 1092.2 239.24 1093.08 239.46C1094.28 239.78 1095.24 240.09 1095.96 240.39C1096.68 240.69 1097.3 241.16 1097.82 241.8C1098.34 242.44 1098.6 243.29 1098.6 244.35C1098.6 245.89 1098.03 247.1 1096.89 247.98C1095.77 248.86 1094.24 249.3 1092.3 249.3ZM1115.61 239.61C1115.61 240.01 1115.58 240.53 1115.52 241.17H1104C1104.08 243.07 1104.52 244.55 1105.32 245.61C1106.12 246.65 1107.22 247.17 1108.62 247.17C1109.56 247.17 1110.34 246.98 1110.96 246.6C1111.6 246.22 1112.22 245.56 1112.82 244.62C1112.98 244.4 1113.2 244.29 1113.48 244.29C1113.94 244.29 1114.54 244.56 1115.28 245.1C1114.76 246.42 1113.92 247.45 1112.76 248.19C1111.6 248.93 1110.22 249.3 1108.62 249.3C1107.08 249.3 1105.74 248.96 1104.6 248.28C1103.48 247.58 1102.62 246.59 1102.02 245.31C1101.42 244.01 1101.12 242.48 1101.12 240.72C1101.12 238.06 1101.79 235.98 1103.13 234.48C1104.49 232.96 1106.36 232.2 1108.74 232.2C1110.92 232.2 1112.61 232.85 1113.81 234.15C1115.01 235.45 1115.61 237.27 1115.61 239.61ZM1112.7 239.25C1112.7 235.95 1111.35 234.3 1108.65 234.3C1107.31 234.3 1106.25 234.72 1105.47 235.56C1104.69 236.4 1104.22 237.63 1104.06 239.25H1112.7ZM1057.9 278.61C1057.9 279.01 1057.87 279.53 1057.81 280.17H1046.29C1046.37 282.07 1046.81 283.55 1047.61 284.61C1048.41 285.65 1049.51 286.17 1050.91 286.17C1051.85 286.17 1052.63 285.98 1053.25 285.6C1053.89 285.22 1054.51 284.56 1055.11 283.62C1055.27 283.4 1055.49 283.29 1055.77 283.29C1056.23 283.29 1056.83 283.56 1057.57 284.1C1057.05 285.42 1056.21 286.45 1055.05 287.19C1053.89 287.93 1052.51 288.3 1050.91 288.3C1049.37 288.3 1048.03 287.96 1046.89 287.28C1045.77 286.58 1044.91 285.59 1044.31 284.31C1043.71 283.01 1043.41 281.48 1043.41 279.72C1043.41 277.06 1044.08 274.98 1045.42 273.48C1046.78 271.96 1048.65 271.2 1051.03 271.2C1053.21 271.2 1054.9 271.85 1056.1 273.15C1057.3 274.45 1057.9 276.27 1057.9 278.61ZM1054.99 278.25C1054.99 274.95 1053.64 273.3 1050.94 273.3C1049.6 273.3 1048.54 273.72 1047.76 274.56C1046.98 275.4 1046.51 276.63 1046.35 278.25H1054.99ZM1066.37 288.3C1065.33 288.3 1064.33 288.15 1063.37 287.85C1062.41 287.55 1061.63 287.16 1061.03 286.68C1060.45 286.18 1060.16 285.64 1060.16 285.06C1060.16 284.7 1060.28 284.39 1060.52 284.13C1060.78 283.85 1061.11 283.68 1061.51 283.62C1062.13 284.52 1062.83 285.18 1063.61 285.6C1064.39 286.02 1065.35 286.23 1066.49 286.23C1067.63 286.23 1068.49 285.98 1069.07 285.48C1069.65 284.96 1069.94 284.28 1069.94 283.44C1069.94 282.9 1069.76 282.46 1069.4 282.12C1069.06 281.76 1068.62 281.48 1068.08 281.28C1067.56 281.06 1066.85 280.83 1065.95 280.59C1064.77 280.27 1063.82 279.96 1063.1 279.66C1062.4 279.34 1061.79 278.88 1061.27 278.28C1060.77 277.66 1060.52 276.85 1060.52 275.85C1060.52 274.85 1060.8 274 1061.36 273.3C1061.92 272.6 1062.64 272.08 1063.52 271.74C1064.4 271.38 1065.32 271.2 1066.28 271.2C1067.62 271.2 1068.81 271.47 1069.85 272.01C1070.91 272.53 1071.73 273.26 1072.31 274.2C1072.07 274.54 1071.81 274.81 1071.53 275.01C1071.25 275.21 1070.99 275.31 1070.75 275.31C1070.45 275.31 1070.18 275.17 1069.94 274.89C1068.98 273.77 1067.75 273.21 1066.25 273.21C1065.33 273.21 1064.6 273.42 1064.06 273.84C1063.52 274.26 1063.25 274.9 1063.25 275.76C1063.25 276.3 1063.42 276.74 1063.76 277.08C1064.1 277.4 1064.53 277.66 1065.05 277.86C1065.57 278.04 1066.27 278.24 1067.15 278.46C1068.35 278.78 1069.31 279.09 1070.03 279.39C1070.75 279.69 1071.37 280.16 1071.89 280.8C1072.41 281.44 1072.67 282.29 1072.67 283.35C1072.67 284.89 1072.1 286.1 1070.96 286.98C1069.84 287.86 1068.31 288.3 1066.37 288.3ZM1082.76 288.3C1080.24 288.3 1078.3 287.56 1076.94 286.08C1075.58 284.58 1074.9 282.44 1074.9 279.66C1074.9 277.94 1075.21 276.44 1075.83 275.16C1076.45 273.88 1077.34 272.9 1078.5 272.22C1079.66 271.54 1081.03 271.2 1082.61 271.2C1084.49 271.2 1086.03 271.68 1087.23 272.64C1088.45 273.58 1089.17 274.85 1089.39 276.45C1089.07 276.63 1088.73 276.78 1088.37 276.9C1088.01 277 1087.69 277.05 1087.41 277.05C1087.17 277.05 1086.98 276.98 1086.84 276.84C1086.72 276.7 1086.61 276.44 1086.51 276.06C1086.25 275.14 1085.79 274.45 1085.13 273.99C1084.47 273.51 1083.63 273.27 1082.61 273.27C1081.13 273.27 1079.95 273.85 1079.07 275.01C1078.21 276.15 1077.78 277.7 1077.78 279.66C1077.78 281.72 1078.22 283.32 1079.1 284.46C1079.98 285.6 1081.2 286.17 1082.76 286.17C1085.12 286.17 1086.69 284.95 1087.47 282.51C1088.01 282.51 1088.42 282.66 1088.7 282.96C1089 283.24 1089.15 283.64 1089.15 284.16C1089.15 284.88 1088.85 285.56 1088.25 286.2C1087.67 286.84 1086.89 287.35 1085.91 287.73C1084.93 288.11 1083.88 288.3 1082.76 288.3ZM1100.05 271.29C1101.63 271.29 1102.42 271.88 1102.42 273.06C1102.42 273.54 1102.29 273.93 1102.03 274.23C1101.51 273.97 1100.83 273.84 1099.99 273.84C1098.67 273.84 1097.63 274.33 1096.87 275.31C1096.13 276.27 1095.76 277.6 1095.76 279.3V288H1092.91V271.5H1095.76V274.26C1096.2 273.36 1096.8 272.64 1097.56 272.1C1098.34 271.56 1099.17 271.29 1100.05 271.29ZM1111.28 288.3C1108.92 288.3 1107.13 287.57 1105.91 286.11C1104.69 284.65 1104.08 282.52 1104.08 279.72C1104.08 276.92 1104.69 274.8 1105.91 273.36C1107.13 271.92 1108.92 271.2 1111.28 271.2C1113.64 271.2 1115.43 271.92 1116.65 273.36C1117.89 274.8 1118.51 276.92 1118.51 279.72C1118.51 282.52 1117.89 284.65 1116.65 286.11C1115.43 287.57 1113.64 288.3 1111.28 288.3ZM1111.28 286.23C1112.78 286.23 1113.87 285.71 1114.55 284.67C1115.25 283.63 1115.6 281.98 1115.6 279.72C1115.6 277.48 1115.25 275.85 1114.55 274.83C1113.87 273.79 1112.78 273.27 1111.28 273.27C1109.78 273.27 1108.68 273.79 1107.98 274.83C1107.3 275.85 1106.96 277.48 1106.96 279.72C1106.96 281.98 1107.31 283.63 1108.01 284.67C1108.71 285.71 1109.8 286.23 1111.28 286.23ZM1141.84 271.5C1141.18 277.78 1139.68 283.28 1137.34 288H1135.06C1134.1 286.08 1133.32 284.25 1132.72 282.51C1132.12 280.77 1131.63 278.94 1131.25 277.02C1130.89 278.94 1130.4 280.77 1129.78 282.51C1129.16 284.25 1128.36 286.08 1127.38 288H1125.07C1123.87 285.68 1122.9 283.19 1122.16 280.53C1121.44 277.87 1120.88 274.86 1120.48 271.5H1123.36C1123.66 274.28 1124.03 276.71 1124.47 278.79C1124.93 280.85 1125.57 282.77 1126.39 284.55C1128.19 280.79 1129.39 276.44 1129.99 271.5H1132.57C1133.21 276.56 1134.41 280.94 1136.17 284.64C1136.99 282.72 1137.61 280.68 1138.03 278.52C1138.47 276.36 1138.76 274.02 1138.9 271.5H1141.84Z" fill="white"/>
</svg>
