<svg xmlns="http://www.w3.org/2000/svg" xmlns:xlink="http://www.w3.org/1999/xlink" width="596" zoomAndPan="magnify" viewBox="0 0 446.88 335.999987" height="448" preserveAspectRatio="xMidYMid meet" version="1.2"><defs><clipPath id="057d64fa9f"><path d="M 100.613281 11.617188 L 407.363281 11.617188 L 407.363281 318.367188 L 100.613281 318.367188 Z M 100.613281 11.617188 "/></clipPath><clipPath id="6ecc81a8ae"><path d="M 253.988281 11.617188 C 169.28125 11.617188 100.613281 80.285156 100.613281 164.992188 C 100.613281 249.699219 169.28125 318.367188 253.988281 318.367188 C 338.691406 318.367188 407.363281 249.699219 407.363281 164.992188 C 407.363281 80.285156 338.691406 11.617188 253.988281 11.617188 Z M 253.988281 11.617188 "/></clipPath></defs><g id="ef7a8abadd"><g clip-rule="nonzero" clip-path="url(#057d64fa9f)"><g clip-rule="nonzero" clip-path="url(#6ecc81a8ae)"><path style=" stroke:none;fill-rule:nonzero;fill:#4364a1;fill-opacity:1;" d="M 100.613281 11.617188 L 407.363281 11.617188 L 407.363281 318.367188 L 100.613281 318.367188 Z M 100.613281 11.617188 "/></g></g><g style="fill:#ffffff;fill-opacity:1;"><g transform="translate(118.451986, 200.779455)"><path style="stroke:none" d="M 208.140625 -116.65625 C 208.140625 -114.769531 207.015625 -113.175781 204.765625 -111.875 C 202.523438 -110.570312 198.863281 -109.921875 193.78125 -109.921875 C 189.644531 -109.921875 185.65625 -110.039062 181.8125 -110.28125 C 177.976562 -110.519531 174.703125 -110.640625 171.984375 -110.640625 C 170.441406 -110.640625 168.3125 -110.367188 165.59375 -109.828125 C 162.875 -109.296875 159.445312 -107.492188 155.3125 -104.421875 C 150.113281 -100.523438 144.765625 -94.203125 139.265625 -85.453125 C 133.765625 -76.710938 127.941406 -66.664062 121.796875 -55.3125 C 116.484375 -45.625 111.046875 -37.203125 105.484375 -30.046875 C 99.929688 -22.898438 94.019531 -16.960938 87.75 -12.234375 C 81.488281 -7.503906 74.8125 -3.988281 67.71875 -1.6875 C 60.632812 0.613281 52.953125 1.765625 44.671875 1.765625 C 40.304688 1.765625 35.9375 1.320312 31.5625 0.4375 C 27.1875 -0.445312 23.222656 -1.863281 19.671875 -3.8125 C 16.128906 -5.757812 13.265625 -8.238281 11.078125 -11.25 C 8.890625 -14.269531 7.796875 -17.90625 7.796875 -22.15625 C 7.796875 -25.46875 8.828125 -28.304688 10.890625 -30.671875 C 12.960938 -33.035156 15.710938 -34.21875 19.140625 -34.21875 C 22.097656 -34.21875 24.316406 -33.507812 25.796875 -32.09375 C 27.273438 -30.675781 28.015625 -28.722656 28.015625 -26.234375 C 28.015625 -23.867188 27.394531 -22.035156 26.15625 -20.734375 C 24.914062 -19.441406 23.289062 -18.5 21.28125 -17.90625 C 21.75 -11.875 23.84375 -7.441406 27.5625 -4.609375 C 31.289062 -1.773438 37.113281 -0.359375 45.03125 -0.359375 C 49.644531 -0.359375 54.195312 -1.15625 58.6875 -2.75 C 63.175781 -4.34375 67.664062 -7.03125 72.15625 -10.8125 C 76.644531 -14.59375 81.222656 -19.644531 85.890625 -25.96875 C 90.566406 -32.289062 95.503906 -40.242188 100.703125 -49.828125 C 106.023438 -59.753906 110.898438 -68.113281 115.328125 -74.90625 C 119.765625 -81.707031 124.34375 -87.410156 129.0625 -92.015625 C 133.789062 -96.628906 138.90625 -100.410156 144.40625 -103.359375 C 149.90625 -106.316406 156.4375 -108.976562 164 -111.34375 L 164 -111.703125 C 162.457031 -111.929688 160.359375 -112.132812 157.703125 -112.3125 C 155.046875 -112.488281 152.148438 -112.632812 149.015625 -112.75 C 145.878906 -112.875 142.65625 -112.960938 139.34375 -113.015625 C 136.039062 -113.078125 132.910156 -113.109375 129.953125 -113.109375 C 109.628906 -113.109375 91.988281 -111.570312 77.03125 -108.5 C 62.082031 -105.425781 50.765625 -100.878906 43.078125 -94.859375 C 36.109375 -89.535156 32.625 -83.09375 32.625 -75.53125 C 32.625 -72.6875 33.390625 -70.050781 34.921875 -67.625 C 36.460938 -65.207031 38.503906 -63.140625 41.046875 -61.421875 C 43.585938 -59.710938 46.570312 -58.382812 50 -57.4375 C 53.425781 -56.5 57.03125 -56.03125 60.8125 -56.03125 C 66.25 -56.03125 71.535156 -56.796875 76.671875 -58.328125 C 81.816406 -59.867188 86.367188 -62.054688 90.328125 -64.890625 C 94.285156 -67.722656 97.476562 -71.148438 99.90625 -75.171875 C 102.332031 -79.191406 103.546875 -83.6875 103.546875 -88.65625 C 103.546875 -91.007812 103.367188 -93.609375 103.015625 -96.453125 L 104.953125 -96.625 C 105.191406 -95.445312 105.367188 -93.820312 105.484375 -91.75 C 105.609375 -89.6875 105.671875 -88.179688 105.671875 -87.234375 C 105.671875 -82.265625 104.425781 -77.414062 101.9375 -72.6875 C 99.457031 -67.957031 96.085938 -63.789062 91.828125 -60.1875 C 87.578125 -56.582031 82.644531 -53.6875 77.03125 -51.5 C 71.414062 -49.3125 65.476562 -48.21875 59.21875 -48.21875 C 55.195312 -48.21875 51.441406 -48.804688 47.953125 -49.984375 C 44.472656 -51.171875 41.429688 -52.890625 38.828125 -55.140625 C 36.222656 -57.390625 34.179688 -60.109375 32.703125 -63.296875 C 31.234375 -66.484375 30.5 -70.085938 30.5 -74.109375 C 30.5 -82.023438 33.394531 -89.203125 39.1875 -95.640625 C 44.976562 -102.085938 53.78125 -107.554688 65.59375 -112.046875 C 71.507812 -114.296875 77.832031 -116.25 84.5625 -117.90625 C 91.300781 -119.5625 98.1875 -120.921875 105.21875 -121.984375 C 112.257812 -123.046875 119.234375 -123.84375 126.140625 -124.375 C 133.054688 -124.90625 139.648438 -125.171875 145.921875 -125.171875 C 150.285156 -125.171875 154.863281 -125.082031 159.65625 -124.90625 C 164.445312 -124.726562 169.5 -124.519531 174.8125 -124.28125 L 199.453125 -123.046875 C 205.242188 -122.691406 208.140625 -120.5625 208.140625 -116.65625 Z M 208.140625 -116.65625 "/></g></g><g style="fill:#ffffff;fill-opacity:1;"><g transform="translate(224.063919, 205.145587)"><path style="stroke:none" d="M 133.6875 -107.96875 C 133.6875 -104.070312 132.769531 -100.554688 130.9375 -97.421875 C 129.101562 -94.285156 126.707031 -91.625 123.75 -89.4375 C 120.800781 -87.257812 117.375 -85.578125 113.46875 -84.390625 C 109.570312 -83.210938 105.613281 -82.625 101.59375 -82.625 C 99.34375 -82.625 97.125 -82.769531 94.9375 -83.0625 C 92.75 -83.351562 90.59375 -83.859375 88.46875 -84.578125 L 88.65625 -86.171875 C 90.070312 -85.691406 91.425781 -85.332031 92.71875 -85.09375 C 94.019531 -84.863281 95.378906 -84.75 96.796875 -84.75 C 104.242188 -84.75 110.125 -86.695312 114.4375 -90.59375 C 118.757812 -94.5 120.921875 -100.351562 120.921875 -108.15625 C 120.921875 -113.820312 119.410156 -118.191406 116.390625 -121.265625 C 113.378906 -124.335938 109.097656 -125.875 103.546875 -125.875 C 101.054688 -125.875 98.539062 -125.429688 96 -124.546875 C 93.457031 -123.660156 91.09375 -122.242188 88.90625 -120.296875 C 86.726562 -118.347656 84.8125 -115.863281 83.15625 -112.84375 C 81.5 -109.832031 80.316406 -106.203125 79.609375 -101.953125 C 79.128906 -99.234375 78.65625 -96.453125 78.1875 -93.609375 C 77.71875 -90.773438 76.953125 -88.054688 75.890625 -85.453125 C 74.347656 -81.671875 72.15625 -78.628906 69.3125 -76.328125 C 66.476562 -74.023438 62.992188 -71.867188 58.859375 -69.859375 C 55.078125 -68.085938 51.675781 -66.34375 48.65625 -64.625 C 45.644531 -62.90625 43.019531 -61.160156 40.78125 -59.390625 C 35.582031 -55.253906 32.09375 -50.703125 30.3125 -45.734375 C 28.539062 -40.773438 27.65625 -35.398438 27.65625 -29.609375 C 27.65625 -25.117188 28.570312 -21.070312 30.40625 -17.46875 C 32.238281 -13.863281 34.691406 -10.789062 37.765625 -8.25 C 40.835938 -5.707031 44.472656 -3.753906 48.671875 -2.390625 C 52.867188 -1.035156 57.269531 -0.359375 61.875 -0.359375 C 66.71875 -0.359375 71.238281 -1.09375 75.4375 -2.5625 C 79.632812 -4.039062 83.296875 -6.109375 86.421875 -8.765625 C 89.554688 -11.429688 92.007812 -14.6875 93.78125 -18.53125 C 95.5625 -22.375 96.453125 -26.71875 96.453125 -31.5625 C 96.453125 -36.519531 95.179688 -40.414062 92.640625 -43.25 C 90.097656 -46.09375 86.34375 -47.515625 81.375 -47.515625 C 77 -47.515625 73.066406 -46.390625 69.578125 -44.140625 C 66.097656 -41.898438 62.941406 -39.242188 60.109375 -36.171875 L 58.859375 -37.0625 C 63.117188 -41.425781 67.550781 -44.789062 72.15625 -47.15625 C 76.769531 -49.519531 82.269531 -50.703125 88.65625 -50.703125 C 95.382812 -50.703125 100.847656 -48.835938 105.046875 -45.109375 C 109.242188 -41.390625 111.34375 -36.519531 111.34375 -30.5 C 111.34375 -24.582031 109.363281 -19.523438 105.40625 -15.328125 C 101.445312 -11.140625 96.484375 -7.710938 90.515625 -5.046875 C 84.546875 -2.390625 78.070312 -0.410156 71.09375 0.890625 C 64.125 2.191406 57.625 2.84375 51.59375 2.84375 C 45.207031 2.84375 39.441406 2.160156 34.296875 0.796875 C 29.160156 -0.554688 24.757812 -2.503906 21.09375 -5.046875 C 17.4375 -7.585938 14.601562 -10.78125 12.59375 -14.625 C 10.582031 -18.46875 9.578125 -22.867188 9.578125 -27.828125 C 9.578125 -33.265625 10.609375 -37.816406 12.671875 -41.484375 C 14.742188 -45.148438 17.429688 -48.34375 20.734375 -51.0625 C 24.046875 -53.78125 27.738281 -56.171875 31.8125 -58.234375 C 35.894531 -60.304688 39.945312 -62.40625 43.96875 -64.53125 C 48.457031 -66.894531 52.003906 -69.492188 54.609375 -72.328125 C 57.210938 -75.171875 58.628906 -78.484375 58.859375 -82.265625 C 58.984375 -84.390625 59.25 -86.957031 59.65625 -89.96875 C 60.070312 -92.988281 60.8125 -96.210938 61.875 -99.640625 C 62.9375 -103.066406 64.472656 -106.460938 66.484375 -109.828125 C 68.492188 -113.203125 71.210938 -116.25 74.640625 -118.96875 C 78.066406 -121.6875 82.234375 -123.875 87.140625 -125.53125 C 92.046875 -127.1875 97.984375 -128.015625 104.953125 -128.015625 C 113.941406 -128.015625 120.976562 -126.269531 126.0625 -122.78125 C 131.144531 -119.289062 133.6875 -114.351562 133.6875 -107.96875 Z M 133.6875 -107.96875 "/></g></g><g style="fill:#ffffff;fill-opacity:1;"><g transform="translate(144.367243, 246.056973)"><path style="stroke:none" d="M 1.03125 -16.890625 L 0.625 -16.890625 L 1.65625 -22.796875 L 21.484375 -22.796875 L 22.515625 -16.890625 L 22.109375 -16.890625 C 21.859375 -18.285156 21.429688 -19.382812 20.828125 -20.1875 C 20.222656 -20.988281 19.472656 -21.554688 18.578125 -21.890625 C 17.679688 -22.222656 16.671875 -22.390625 15.546875 -22.390625 L 13.28125 -22.390625 L 13.28125 -2.09375 C 13.28125 -1.382812 13.457031 -0.925781 13.8125 -0.71875 C 14.164062 -0.507812 14.71875 -0.40625 15.46875 -0.40625 L 15.46875 0 L 7.6875 0 L 7.6875 -0.40625 C 8.4375 -0.40625 8.984375 -0.507812 9.328125 -0.71875 C 9.671875 -0.925781 9.84375 -1.382812 9.84375 -2.09375 L 9.84375 -22.390625 L 7.5625 -22.390625 C 6.457031 -22.390625 5.457031 -22.222656 4.5625 -21.890625 C 3.664062 -21.554688 2.921875 -20.988281 2.328125 -20.1875 C 1.734375 -19.382812 1.300781 -18.285156 1.03125 -16.890625 Z M 1.03125 -16.890625 "/></g></g><g style="fill:#ffffff;fill-opacity:1;"><g transform="translate(167.507527, 246.056973)"><path style="stroke:none" d="M 1.5625 -11.4375 C 1.5625 -13.0625 1.851562 -14.582031 2.4375 -16 C 3.019531 -17.425781 3.820312 -18.671875 4.84375 -19.734375 C 5.863281 -20.796875 7.050781 -21.628906 8.40625 -22.234375 C 9.757812 -22.835938 11.207031 -23.140625 12.75 -23.140625 C 14.289062 -23.140625 15.742188 -22.835938 17.109375 -22.234375 C 18.484375 -21.628906 19.691406 -20.796875 20.734375 -19.734375 C 21.773438 -18.671875 22.585938 -17.425781 23.171875 -16 C 23.753906 -14.582031 24.046875 -13.0625 24.046875 -11.4375 C 24.046875 -9.8125 23.753906 -8.285156 23.171875 -6.859375 C 22.585938 -5.429688 21.773438 -4.175781 20.734375 -3.09375 C 19.691406 -2.007812 18.484375 -1.160156 17.109375 -0.546875 C 15.742188 0.0664062 14.289062 0.375 12.75 0.375 C 11.207031 0.375 9.757812 0.0664062 8.40625 -0.546875 C 7.050781 -1.160156 5.863281 -2.007812 4.84375 -3.09375 C 3.820312 -4.175781 3.019531 -5.429688 2.4375 -6.859375 C 1.851562 -8.285156 1.5625 -9.8125 1.5625 -11.4375 Z M 12.4375 -22.703125 C 11.25 -22.703125 10.210938 -22.410156 9.328125 -21.828125 C 8.441406 -21.242188 7.703125 -20.441406 7.109375 -19.421875 C 6.515625 -18.398438 6.066406 -17.226562 5.765625 -15.90625 C 5.460938 -14.59375 5.3125 -13.21875 5.3125 -11.78125 C 5.3125 -10.28125 5.460938 -8.828125 5.765625 -7.421875 C 6.066406 -6.015625 6.53125 -4.757812 7.15625 -3.65625 C 7.78125 -2.550781 8.582031 -1.675781 9.5625 -1.03125 C 10.539062 -0.382812 11.707031 -0.0625 13.0625 -0.0625 C 14.3125 -0.0625 15.390625 -0.351562 16.296875 -0.9375 C 17.210938 -1.519531 17.96875 -2.316406 18.5625 -3.328125 C 19.15625 -4.335938 19.59375 -5.507812 19.875 -6.84375 C 20.15625 -8.175781 20.296875 -9.59375 20.296875 -11.09375 C 20.296875 -12.550781 20.148438 -13.96875 19.859375 -15.34375 C 19.566406 -16.726562 19.109375 -17.972656 18.484375 -19.078125 C 17.859375 -20.179688 17.039062 -21.0625 16.03125 -21.71875 C 15.03125 -22.375 13.832031 -22.703125 12.4375 -22.703125 Z M 12.4375 -22.703125 "/></g></g><g style="fill:#ffffff;fill-opacity:1;"><g transform="translate(193.118199, 246.056973)"><path style="stroke:none" d="M 0.9375 -22.390625 L 0.9375 -22.796875 L 9.8125 -22.796875 C 10.976562 -22.796875 12.117188 -22.738281 13.234375 -22.625 C 14.347656 -22.507812 15.363281 -22.265625 16.28125 -21.890625 C 17.207031 -21.515625 17.941406 -20.957031 18.484375 -20.21875 C 19.023438 -19.476562 19.296875 -18.484375 19.296875 -17.234375 C 19.296875 -15.992188 19.039062 -15 18.53125 -14.25 C 18.019531 -13.5 17.347656 -12.925781 16.515625 -12.53125 C 15.691406 -12.132812 14.800781 -11.867188 13.84375 -11.734375 C 12.882812 -11.597656 11.945312 -11.53125 11.03125 -11.53125 L 6.53125 -11.53125 L 6.53125 -2.09375 C 6.53125 -1.382812 6.707031 -0.925781 7.0625 -0.71875 C 7.414062 -0.507812 7.957031 -0.40625 8.6875 -0.40625 L 8.6875 0 L 0.9375 0 L 0.9375 -0.40625 C 1.664062 -0.40625 2.207031 -0.507812 2.5625 -0.71875 C 2.914062 -0.925781 3.09375 -1.382812 3.09375 -2.09375 L 3.09375 -20.703125 C 3.09375 -21.429688 2.914062 -21.894531 2.5625 -22.09375 C 2.207031 -22.289062 1.664062 -22.390625 0.9375 -22.390625 Z M 9.8125 -22.390625 L 6.53125 -22.390625 L 6.53125 -11.9375 L 9.875 -11.9375 C 11.25 -11.9375 12.375 -12.078125 13.25 -12.359375 C 14.125 -12.640625 14.773438 -13.140625 15.203125 -13.859375 C 15.640625 -14.578125 15.859375 -15.578125 15.859375 -16.859375 C 15.859375 -20.546875 13.84375 -22.390625 9.8125 -22.390625 Z M 9.8125 -22.390625 "/></g></g><g style="fill:#ffffff;fill-opacity:1;"><g transform="translate(213.819382, 246.056973)"><path style="stroke:none" d=""/></g></g><g style="fill:#ffffff;fill-opacity:1;"><g transform="translate(222.575164, 246.056973)"><path style="stroke:none" d="M 0.9375 0 L 0.9375 -0.40625 C 1.625 -0.40625 2.144531 -0.488281 2.5 -0.65625 C 2.851562 -0.820312 3.0625 -1.195312 3.125 -1.78125 L 3.09375 -20.703125 C 3.09375 -21.429688 2.921875 -21.894531 2.578125 -22.09375 C 2.234375 -22.289062 1.6875 -22.390625 0.9375 -22.390625 L 0.9375 -22.796875 L 17.109375 -22.796875 L 18.765625 -17.859375 L 18.359375 -17.859375 C 17.984375 -19.046875 17.554688 -19.96875 17.078125 -20.625 C 16.597656 -21.28125 15.984375 -21.734375 15.234375 -21.984375 C 14.492188 -22.234375 13.53125 -22.359375 12.34375 -22.359375 C 10.84375 -22.359375 9.675781 -22.320312 8.84375 -22.25 C 8.007812 -22.175781 7.421875 -22.023438 7.078125 -21.796875 C 6.734375 -21.566406 6.5625 -21.203125 6.5625 -20.703125 L 6.5625 -12.15625 L 10.15625 -12.15625 C 11.28125 -12.175781 12.097656 -12.363281 12.609375 -12.71875 C 13.117188 -13.070312 13.4375 -13.601562 13.5625 -14.3125 C 13.6875 -15.019531 13.75 -15.898438 13.75 -16.953125 L 14.15625 -16.953125 L 14.15625 -6.59375 L 13.75 -6.59375 C 13.75 -7.65625 13.695312 -8.570312 13.59375 -9.34375 C 13.488281 -10.113281 13.191406 -10.707031 12.703125 -11.125 C 12.210938 -11.539062 11.363281 -11.75 10.15625 -11.75 L 6.5625 -11.75 L 6.5625 -2.09375 C 6.5625 -1.382812 6.863281 -0.925781 7.46875 -0.71875 C 8.070312 -0.507812 9.164062 -0.40625 10.75 -0.40625 C 12.539062 -0.40625 14.003906 -0.785156 15.140625 -1.546875 C 16.285156 -2.304688 17.207031 -3.335938 17.90625 -4.640625 C 18.601562 -5.941406 19.191406 -7.382812 19.671875 -8.96875 L 20.078125 -8.96875 L 17.859375 0 Z M 0.9375 0 "/></g></g><g style="fill:#ffffff;fill-opacity:1;"><g transform="translate(243.46397, 246.056973)"><path style="stroke:none" d="M 1.5625 0 L 1.5625 -9.375 L 1.96875 -9.375 C 1.96875 -7.289062 2.269531 -5.585938 2.875 -4.265625 C 3.476562 -2.941406 4.300781 -1.96875 5.34375 -1.34375 C 6.382812 -0.71875 7.539062 -0.40625 8.8125 -0.40625 C 9.601562 -0.40625 10.328125 -0.523438 10.984375 -0.765625 C 11.640625 -1.003906 12.164062 -1.398438 12.5625 -1.953125 C 12.957031 -2.503906 13.15625 -3.238281 13.15625 -4.15625 C 13.15625 -5.03125 12.878906 -5.832031 12.328125 -6.5625 C 11.773438 -7.289062 11.054688 -7.988281 10.171875 -8.65625 C 9.285156 -9.320312 8.351562 -9.984375 7.375 -10.640625 C 6.394531 -11.296875 5.460938 -11.976562 4.578125 -12.6875 C 3.691406 -13.394531 2.972656 -14.164062 2.421875 -15 C 1.867188 -15.84375 1.59375 -16.765625 1.59375 -17.765625 C 1.59375 -18.972656 1.921875 -19.972656 2.578125 -20.765625 C 3.234375 -21.554688 4.0625 -22.148438 5.0625 -22.546875 C 6.0625 -22.941406 7.070312 -23.140625 8.09375 -23.140625 C 8.882812 -23.140625 9.554688 -23.0625 10.109375 -22.90625 C 10.660156 -22.75 11.132812 -22.5625 11.53125 -22.34375 C 11.925781 -22.125 12.285156 -21.9375 12.609375 -21.78125 C 12.929688 -21.625 13.25 -21.546875 13.5625 -21.546875 C 13.976562 -21.546875 14.257812 -21.640625 14.40625 -21.828125 C 14.550781 -22.015625 14.625 -22.335938 14.625 -22.796875 L 15.03125 -22.796875 L 15.03125 -15.40625 L 14.625 -15.40625 C 14.625 -16.8125 14.359375 -18.039062 13.828125 -19.09375 C 13.296875 -20.144531 12.570312 -20.960938 11.65625 -21.546875 C 10.738281 -22.128906 9.695312 -22.421875 8.53125 -22.421875 C 7.28125 -22.421875 6.382812 -22.125 5.84375 -21.53125 C 5.300781 -20.9375 5.03125 -20.179688 5.03125 -19.265625 C 5.03125 -18.242188 5.300781 -17.335938 5.84375 -16.546875 C 6.382812 -15.765625 7.082031 -15.054688 7.9375 -14.421875 C 8.789062 -13.785156 9.695312 -13.164062 10.65625 -12.5625 C 11.613281 -11.957031 12.519531 -11.316406 13.375 -10.640625 C 14.226562 -9.960938 14.925781 -9.207031 15.46875 -8.375 C 16.019531 -7.539062 16.296875 -6.5625 16.296875 -5.4375 C 16.296875 -4.375 16.078125 -3.40625 15.640625 -2.53125 C 15.210938 -1.65625 14.5 -0.953125 13.5 -0.421875 C 12.5 0.109375 11.113281 0.375 9.34375 0.375 C 8.488281 0.375 7.769531 0.300781 7.1875 0.15625 C 6.601562 0.0078125 6.097656 -0.160156 5.671875 -0.359375 C 5.242188 -0.554688 4.851562 -0.726562 4.5 -0.875 C 4.144531 -1.019531 3.78125 -1.09375 3.40625 -1.09375 C 2.445312 -1.09375 1.96875 -0.726562 1.96875 0 Z M 1.5625 0 "/></g></g><g style="fill:#ffffff;fill-opacity:1;"><g transform="translate(261.006806, 246.056973)"><path style="stroke:none" d="M 12.5 0.375 C 10.351562 0.375 8.457031 -0.109375 6.8125 -1.078125 C 5.164062 -2.046875 3.878906 -3.378906 2.953125 -5.078125 C 2.023438 -6.773438 1.5625 -8.71875 1.5625 -10.90625 C 1.5625 -12.59375 1.8125 -14.175781 2.3125 -15.65625 C 2.8125 -17.144531 3.539062 -18.453125 4.5 -19.578125 C 5.457031 -20.703125 6.617188 -21.578125 7.984375 -22.203125 C 9.347656 -22.828125 10.894531 -23.140625 12.625 -23.140625 C 13.625 -23.140625 14.457031 -23.023438 15.125 -22.796875 C 15.800781 -22.566406 16.367188 -22.335938 16.828125 -22.109375 C 17.285156 -21.878906 17.679688 -21.765625 18.015625 -21.765625 C 18.203125 -21.765625 18.390625 -21.832031 18.578125 -21.96875 C 18.765625 -22.101562 18.859375 -22.378906 18.859375 -22.796875 L 19.265625 -22.796875 L 19.265625 -14.9375 L 18.890625 -14.9375 C 18.890625 -17.570312 18.359375 -19.472656 17.296875 -20.640625 C 16.234375 -21.804688 14.769531 -22.390625 12.90625 -22.390625 C 11.507812 -22.390625 10.238281 -22.015625 9.09375 -21.265625 C 7.945312 -20.515625 7.03125 -19.398438 6.34375 -17.921875 C 5.65625 -16.441406 5.3125 -14.601562 5.3125 -12.40625 C 5.3125 -10.238281 5.65625 -8.316406 6.34375 -6.640625 C 7.03125 -4.960938 8.023438 -3.65625 9.328125 -2.71875 C 10.628906 -1.78125 12.175781 -1.3125 13.96875 -1.3125 C 15.476562 -1.3125 16.71875 -1.644531 17.6875 -2.3125 C 18.65625 -2.976562 19.367188 -3.847656 19.828125 -4.921875 C 20.285156 -5.992188 20.515625 -7.144531 20.515625 -8.375 L 20.921875 -8.375 C 20.921875 -7.289062 20.757812 -6.226562 20.4375 -5.1875 C 20.113281 -4.144531 19.609375 -3.203125 18.921875 -2.359375 C 18.234375 -1.515625 17.359375 -0.847656 16.296875 -0.359375 C 15.242188 0.128906 13.976562 0.375 12.5 0.375 Z M 12.5 0.375 "/></g></g><g style="fill:#ffffff;fill-opacity:1;"><g transform="translate(283.334053, 246.056973)"><path style="stroke:none" d="M 0.9375 0 L 0.9375 -0.40625 C 1.664062 -0.40625 2.207031 -0.507812 2.5625 -0.71875 C 2.914062 -0.925781 3.09375 -1.382812 3.09375 -2.09375 L 3.09375 -20.703125 C 3.09375 -21.429688 2.914062 -21.894531 2.5625 -22.09375 C 2.207031 -22.289062 1.664062 -22.390625 0.9375 -22.390625 L 0.9375 -22.796875 L 9.8125 -22.796875 C 10.976562 -22.796875 12.117188 -22.738281 13.234375 -22.625 C 14.347656 -22.507812 15.359375 -22.265625 16.265625 -21.890625 C 17.179688 -21.515625 17.910156 -20.957031 18.453125 -20.21875 C 18.992188 -19.476562 19.265625 -18.484375 19.265625 -17.234375 C 19.265625 -15.992188 19.015625 -15 18.515625 -14.25 C 18.015625 -13.5 17.347656 -12.925781 16.515625 -12.53125 C 15.691406 -12.132812 14.800781 -11.867188 13.84375 -11.734375 C 12.882812 -11.597656 11.945312 -11.53125 11.03125 -11.53125 L 9.71875 -11.53125 C 10.132812 -10.882812 10.597656 -10.410156 11.109375 -10.109375 C 11.617188 -9.804688 12.125 -9.65625 12.625 -9.65625 C 13.207031 -9.65625 13.75 -9.851562 14.25 -10.25 L 19.890625 -2.09375 C 20.367188 -1.425781 20.867188 -0.976562 21.390625 -0.75 C 21.910156 -0.519531 22.460938 -0.40625 23.046875 -0.40625 L 23.046875 0 L 19.953125 0 C 19.097656 0 18.351562 -0.179688 17.71875 -0.546875 C 17.082031 -0.910156 16.519531 -1.367188 16.03125 -1.921875 C 15.550781 -2.472656 15.113281 -3.03125 14.71875 -3.59375 L 9.25 -11.53125 L 6.53125 -11.53125 L 6.53125 -2.09375 C 6.53125 -1.382812 6.703125 -0.925781 7.046875 -0.71875 C 7.390625 -0.507812 7.9375 -0.40625 8.6875 -0.40625 L 8.6875 0 Z M 6.53125 -11.9375 L 9.84375 -11.9375 C 10.945312 -11.9375 11.953125 -12.082031 12.859375 -12.375 C 13.765625 -12.664062 14.488281 -13.191406 15.03125 -13.953125 C 15.582031 -14.710938 15.859375 -15.796875 15.859375 -17.203125 C 15.859375 -18.890625 15.382812 -20.175781 14.4375 -21.0625 C 13.5 -21.945312 12.164062 -22.390625 10.4375 -22.390625 L 6.53125 -22.390625 Z M 6.53125 -11.9375 "/></g></g><g style="fill:#ffffff;fill-opacity:1;"><g transform="translate(305.442392, 246.056973)"><path style="stroke:none" d="M 1.5625 -11.4375 C 1.5625 -13.0625 1.851562 -14.582031 2.4375 -16 C 3.019531 -17.425781 3.820312 -18.671875 4.84375 -19.734375 C 5.863281 -20.796875 7.050781 -21.628906 8.40625 -22.234375 C 9.757812 -22.835938 11.207031 -23.140625 12.75 -23.140625 C 14.289062 -23.140625 15.742188 -22.835938 17.109375 -22.234375 C 18.484375 -21.628906 19.691406 -20.796875 20.734375 -19.734375 C 21.773438 -18.671875 22.585938 -17.425781 23.171875 -16 C 23.753906 -14.582031 24.046875 -13.0625 24.046875 -11.4375 C 24.046875 -9.8125 23.753906 -8.285156 23.171875 -6.859375 C 22.585938 -5.429688 21.773438 -4.175781 20.734375 -3.09375 C 19.691406 -2.007812 18.484375 -1.160156 17.109375 -0.546875 C 15.742188 0.0664062 14.289062 0.375 12.75 0.375 C 11.207031 0.375 9.757812 0.0664062 8.40625 -0.546875 C 7.050781 -1.160156 5.863281 -2.007812 4.84375 -3.09375 C 3.820312 -4.175781 3.019531 -5.429688 2.4375 -6.859375 C 1.851562 -8.285156 1.5625 -9.8125 1.5625 -11.4375 Z M 12.4375 -22.703125 C 11.25 -22.703125 10.210938 -22.410156 9.328125 -21.828125 C 8.441406 -21.242188 7.703125 -20.441406 7.109375 -19.421875 C 6.515625 -18.398438 6.066406 -17.226562 5.765625 -15.90625 C 5.460938 -14.59375 5.3125 -13.21875 5.3125 -11.78125 C 5.3125 -10.28125 5.460938 -8.828125 5.765625 -7.421875 C 6.066406 -6.015625 6.53125 -4.757812 7.15625 -3.65625 C 7.78125 -2.550781 8.582031 -1.675781 9.5625 -1.03125 C 10.539062 -0.382812 11.707031 -0.0625 13.0625 -0.0625 C 14.3125 -0.0625 15.390625 -0.351562 16.296875 -0.9375 C 17.210938 -1.519531 17.96875 -2.316406 18.5625 -3.328125 C 19.15625 -4.335938 19.59375 -5.507812 19.875 -6.84375 C 20.15625 -8.175781 20.296875 -9.59375 20.296875 -11.09375 C 20.296875 -12.550781 20.148438 -13.96875 19.859375 -15.34375 C 19.566406 -16.726562 19.109375 -17.972656 18.484375 -19.078125 C 17.859375 -20.179688 17.039062 -21.0625 16.03125 -21.71875 C 15.03125 -22.375 13.832031 -22.703125 12.4375 -22.703125 Z M 12.4375 -22.703125 "/></g></g><g style="fill:#ffffff;fill-opacity:1;"><g transform="translate(329.802221, 246.056973)"><path style="stroke:none" d="M 0 -22.796875 L 8.65625 -22.796875 L 8.65625 -22.421875 C 7.613281 -22.421875 6.910156 -22.328125 6.546875 -22.140625 C 6.179688 -21.953125 6.164062 -21.503906 6.5 -20.796875 L 14.46875 -4.3125 L 17.203125 -12.09375 L 13.09375 -20.546875 C 12.757812 -21.273438 12.421875 -21.765625 12.078125 -22.015625 C 11.734375 -22.265625 11.132812 -22.390625 10.28125 -22.390625 L 10.28125 -22.796875 L 23.453125 -22.796875 L 23.453125 -22.390625 C 22.578125 -22.390625 21.945312 -22.265625 21.5625 -22.015625 C 21.175781 -21.765625 20.847656 -21.265625 20.578125 -20.515625 L 19.046875 -16.171875 L 24.765625 -4.3125 L 30.453125 -20.546875 C 30.679688 -21.210938 30.679688 -21.6875 30.453125 -21.96875 C 30.222656 -22.25 29.617188 -22.390625 28.640625 -22.390625 L 28.640625 -22.796875 L 33.765625 -22.796875 L 33.765625 -22.390625 C 32.867188 -22.390625 32.226562 -22.265625 31.84375 -22.015625 C 31.457031 -21.765625 31.128906 -21.265625 30.859375 -20.515625 L 23.703125 0 L 23.046875 0 L 17.453125 -11.5625 L 13.375 0 L 12.71875 0 L 2.8125 -20.546875 C 2.582031 -21.046875 2.359375 -21.425781 2.140625 -21.6875 C 1.921875 -21.945312 1.648438 -22.128906 1.328125 -22.234375 C 1.003906 -22.335938 0.5625 -22.390625 0 -22.390625 Z M 18.796875 -16.671875 L 20.171875 -20.546875 C 20.398438 -21.210938 20.398438 -21.6875 20.171875 -21.96875 C 19.941406 -22.25 19.335938 -22.390625 18.359375 -22.390625 C 17.546875 -22.367188 17.007812 -22.253906 16.75 -22.046875 C 16.488281 -21.835938 16.515625 -21.421875 16.828125 -20.796875 Z M 18.796875 -16.671875 "/></g></g></g></svg>