<svg width="369" height="369" viewBox="0 0 369 369" fill="none" xmlns="http://www.w3.org/2000/svg">
<circle cx="184.5" cy="184.5" r="184.5" fill="#4364A1"/>
<path d="M127.551 155.2H163.903V162.432H150.079V200H141.439V162.432H127.551V155.2ZM184.496 200.448C181.381 200.448 178.608 199.787 176.176 198.464C173.744 197.099 171.824 195.2 170.416 192.768C169.051 190.293 168.368 187.392 168.368 184.064C168.368 180.693 169.072 177.771 170.48 175.296C171.931 172.821 173.893 170.923 176.368 169.6C178.843 168.235 181.616 167.552 184.688 167.552C187.76 167.552 190.533 168.235 193.008 169.6C195.483 170.923 197.445 172.821 198.896 175.296C200.347 177.728 201.072 180.608 201.072 183.936C201.072 187.307 200.325 190.229 198.832 192.704C197.381 195.179 195.397 197.099 192.88 198.464C190.405 199.787 187.611 200.448 184.496 200.448ZM184.432 193.088C185.755 193.088 187.013 192.768 188.208 192.128C189.403 191.445 190.384 190.443 191.152 189.12C191.92 187.755 192.304 186.027 192.304 183.936C192.304 181.931 191.941 180.267 191.216 178.944C190.491 177.579 189.531 176.576 188.336 175.936C187.184 175.253 185.925 174.912 184.56 174.912C183.237 174.912 182 175.253 180.848 175.936C179.739 176.576 178.843 177.579 178.16 178.944C177.52 180.267 177.2 181.973 177.2 184.064C177.2 186.069 177.52 187.755 178.16 189.12C178.8 190.443 179.675 191.445 180.784 192.128C181.893 192.768 183.109 193.088 184.432 193.088ZM214.511 195.2L215.535 195.072V212.8H207.343V168H214.767L215.279 171.968C216.218 170.731 217.54 169.685 219.247 168.832C220.954 167.979 222.916 167.552 225.135 167.552C227.908 167.552 230.362 168.235 232.495 169.6C234.628 170.965 236.292 172.885 237.487 175.36C238.724 177.792 239.343 180.672 239.343 184C239.343 187.328 238.724 190.229 237.487 192.704C236.292 195.179 234.628 197.099 232.495 198.464C230.404 199.787 227.951 200.448 225.135 200.448C222.66 200.448 220.506 199.936 218.671 198.912C216.879 197.888 215.492 196.651 214.511 195.2ZM230.511 184C230.511 181.312 229.807 179.157 228.399 177.536C227.034 175.872 225.242 175.04 223.023 175.04C221.658 175.04 220.399 175.403 219.247 176.128C218.138 176.811 217.242 177.813 216.559 179.136C215.876 180.416 215.535 182.037 215.535 184C215.535 185.92 215.876 187.541 216.559 188.864C217.242 190.187 218.138 191.211 219.247 191.936C220.399 192.619 221.658 192.96 223.023 192.96C225.242 192.96 227.034 192.149 228.399 190.528C229.807 188.864 230.511 186.688 230.511 184Z" fill="white"/>
<path d="M114.215 223.432H91.367V234.824H108.455V241.8H91.367V253.768H114.215V261H82.727V216.2H114.215V223.432ZM127.041 250.568C127.297 251.635 127.723 252.445 128.321 253C128.961 253.555 129.665 253.96 130.433 254.216C131.243 254.429 132.054 254.536 132.865 254.536C134.358 254.536 135.531 254.259 136.385 253.704C137.238 253.107 137.665 252.36 137.665 251.464C137.665 250.696 137.366 250.099 136.769 249.672C136.171 249.203 135.403 248.861 134.465 248.648C133.526 248.392 132.566 248.136 131.585 247.88C130.433 247.581 129.195 247.261 127.873 246.92C126.593 246.536 125.377 246.003 124.225 245.32C123.073 244.637 122.113 243.763 121.345 242.696C120.577 241.587 120.193 240.2 120.193 238.536C120.193 236.573 120.726 234.845 121.793 233.352C122.902 231.859 124.417 230.685 126.337 229.832C128.299 228.979 130.561 228.552 133.121 228.552C136.15 228.552 138.71 229.192 140.801 230.472C142.891 231.752 144.406 233.587 145.345 235.976L138.113 238.024C137.899 237.427 137.537 236.936 137.025 236.552C136.513 236.168 135.894 235.891 135.169 235.72C134.486 235.549 133.782 235.464 133.057 235.464C131.819 235.464 130.795 235.72 129.985 236.232C129.174 236.701 128.769 237.363 128.769 238.216C128.769 238.728 128.918 239.155 129.217 239.496C129.515 239.795 129.921 240.051 130.433 240.264C130.987 240.477 131.606 240.669 132.289 240.84C133.014 241.011 133.803 241.203 134.657 241.416C135.979 241.757 137.302 242.163 138.625 242.632C139.99 243.059 141.227 243.613 142.337 244.296C143.489 244.979 144.406 245.896 145.089 247.048C145.771 248.2 146.155 249.651 146.241 251.4C146.241 253.277 145.707 254.984 144.641 256.52C143.574 258.013 142.038 259.208 140.033 260.104C138.027 261 135.595 261.448 132.737 261.448C129.409 261.448 126.571 260.744 124.225 259.336C121.921 257.928 120.406 255.731 119.681 252.744L127.041 250.568ZM166.611 261.448C163.496 261.448 160.765 260.765 158.419 259.4C156.072 258.035 154.237 256.136 152.915 253.704C151.592 251.229 150.931 248.371 150.931 245.128C150.931 241.843 151.592 238.963 152.915 236.488C154.237 234.013 156.093 232.072 158.483 230.664C160.872 229.256 163.624 228.552 166.739 228.552C170.109 228.552 173.096 229.384 175.699 231.048C178.344 232.712 180.2 234.952 181.267 237.768L173.651 239.944C173.139 238.707 172.285 237.725 171.091 237C169.939 236.275 168.616 235.912 167.123 235.912C165.629 235.912 164.307 236.296 163.155 237.064C162.045 237.832 161.171 238.899 160.531 240.264C159.933 241.629 159.635 243.229 159.635 245.064C159.635 247.837 160.317 250.035 161.683 251.656C163.048 253.277 164.883 254.088 167.187 254.088C168.637 254.088 169.96 253.747 171.155 253.064C172.349 252.339 173.245 251.357 173.843 250.12L181.395 252.296C180.243 255.069 178.323 257.288 175.635 258.952C172.989 260.616 169.981 261.448 166.611 261.448ZM187.656 229H195.08L195.656 233.096C196.552 231.987 197.554 231.091 198.664 230.408C199.816 229.683 201.074 229.192 202.44 228.936C203.805 228.637 205.234 228.659 206.728 229V236.68C205.576 236.296 204.36 236.189 203.08 236.36C201.842 236.531 200.669 236.979 199.56 237.704C198.493 238.429 197.597 239.475 196.872 240.84C196.189 242.163 195.848 243.848 195.848 245.896V261H187.656V229ZM226.496 261.448C223.381 261.448 220.608 260.787 218.176 259.464C215.744 258.099 213.824 256.2 212.416 253.768C211.051 251.293 210.368 248.392 210.368 245.064C210.368 241.693 211.072 238.771 212.48 236.296C213.931 233.821 215.893 231.923 218.368 230.6C220.843 229.235 223.616 228.552 226.688 228.552C229.76 228.552 232.533 229.235 235.008 230.6C237.483 231.923 239.445 233.821 240.896 236.296C242.347 238.728 243.072 241.608 243.072 244.936C243.072 248.307 242.325 251.229 240.832 253.704C239.381 256.179 237.397 258.099 234.88 259.464C232.405 260.787 229.611 261.448 226.496 261.448ZM226.432 254.088C227.755 254.088 229.013 253.768 230.208 253.128C231.403 252.445 232.384 251.443 233.152 250.12C233.92 248.755 234.304 247.027 234.304 244.936C234.304 242.931 233.941 241.267 233.216 239.944C232.491 238.579 231.531 237.576 230.336 236.936C229.184 236.253 227.925 235.912 226.56 235.912C225.237 235.912 224 236.253 222.848 236.936C221.739 237.576 220.843 238.579 220.16 239.944C219.52 241.267 219.2 242.973 219.2 245.064C219.2 247.069 219.52 248.755 220.16 250.12C220.8 251.443 221.675 252.445 222.784 253.128C223.893 253.768 225.109 254.088 226.432 254.088ZM264.575 261H256.191L246.719 229H255.167L260.479 250.632L266.111 229H274.303L279.743 250.632L284.991 229H293.375L283.903 261H275.327L270.015 240.904L264.575 261Z" fill="white"/>
<path d="M127 137L210.024 90L295 137" stroke="white" stroke-width="12" stroke-linecap="square"/>
<path d="M75 139L158.251 92L179.253 103.75" stroke="white" stroke-width="12" stroke-linecap="square"/>
<path d="M247 107.936V95H263V114" stroke="white" stroke-width="12" stroke-linecap="square"/>
</svg>
