<svg width="758" height="758" viewBox="0 0 758 758" fill="none" xmlns="http://www.w3.org/2000/svg">
<mask id="mask0_32_11" style="mask-type:luminance" maskUnits="userSpaceOnUse" x="0" y="0" width="758" height="758">
<path d="M0 0H758V758H0V0Z" fill="white"/>
</mask>
<g mask="url(#mask0_32_11)">
<mask id="mask1_32_11" style="mask-type:luminance" maskUnits="userSpaceOnUse" x="0" y="0" width="758" height="758">
<path d="M379 0C169.688 0 0 169.668 0 378.987C0 588.306 169.688 758 379 758C588.312 758 758 588.306 758 378.987C758 169.668 588.312 0 379 0Z" fill="white"/>
</mask>
<g mask="url(#mask1_32_11)">
<path d="M0 0H758V758H0V0Z" fill="#4364A1"/>
</g>
</g>
<path d="M558.426 223.525C558.426 228.172 555.627 232.132 550.084 235.352C544.514 238.599 535.459 240.21 522.946 240.21C512.73 240.21 502.884 239.946 493.38 239.365C483.877 238.731 475.773 238.415 469.094 238.415C465.292 238.415 460.013 239.101 453.255 240.421C446.55 241.688 438.102 246.123 427.912 253.726C415.03 263.388 401.778 279.017 388.209 300.611C374.614 322.232 360.227 347.074 345.022 375.162C331.928 399.107 318.518 419.909 304.791 437.57C291.064 455.258 276.439 469.936 260.97 481.604C245.474 493.299 228.975 501.984 211.447 507.686C193.918 513.309 174.938 516.134 154.532 516.134C143.682 516.134 132.833 515.025 122.009 512.861C111.239 510.696 101.445 507.211 92.6544 502.407C83.9165 497.549 76.8418 491.424 71.4302 484.033C66.0713 476.588 63.4051 467.56 63.4051 457C63.4051 448.843 65.9393 441.847 71.0078 435.986C76.1291 430.152 82.9398 427.222 91.3873 427.222C98.6996 427.222 104.19 428.99 107.86 432.501C111.503 436.039 113.351 440.844 113.351 446.968C113.351 452.829 111.793 457.37 108.705 460.59C105.59 463.758 101.577 466.081 96.6669 467.56C97.7756 482.502 102.95 493.484 112.189 500.506C121.402 507.475 135.789 510.96 155.377 510.96C166.781 510.96 178 509.006 189.061 505.046C200.175 501.113 211.262 494.46 222.323 485.089C233.436 475.743 244.761 463.23 256.324 447.602C267.86 431.974 280.082 412.333 292.964 388.679C306.058 364.18 318.096 343.536 329.077 326.694C340.059 309.877 351.357 295.806 362.973 284.455C374.641 273.05 387.286 263.705 400.881 256.366C414.449 249.053 430.605 242.48 449.348 236.619V235.775C445.546 235.22 440.32 234.719 433.72 234.296C427.173 233.821 420.019 233.425 412.285 233.135C404.524 232.871 396.578 232.66 388.421 232.501C380.237 232.369 372.502 232.29 365.19 232.29C314.981 232.29 271.423 236.091 234.466 243.694C197.508 251.297 169.526 262.543 150.519 277.38C133.255 290.553 124.649 306.498 124.649 325.215C124.649 332.185 126.55 338.679 130.351 344.645C134.152 350.638 139.168 355.785 145.451 360.062C151.787 364.286 159.178 367.559 167.625 369.883C176.073 372.206 184.969 373.367 194.341 373.367C207.777 373.367 220.844 371.467 233.516 367.665C246.24 363.864 257.512 358.478 267.305 351.509C277.073 344.487 284.966 335.986 290.958 326.06C296.924 316.134 299.934 305.02 299.934 292.691C299.934 286.936 299.511 280.521 298.667 273.473L303.418 273.05C304.052 275.954 304.501 279.967 304.791 285.088C305.055 290.157 305.213 293.906 305.213 296.282C305.213 308.531 302.151 320.516 296.027 332.185C289.902 343.879 281.56 354.201 271.001 363.124C260.495 371.995 248.325 379.149 234.466 384.561C220.58 389.92 205.903 392.586 190.434 392.586C180.508 392.586 171.216 391.16 162.557 388.256C153.951 385.3 146.428 381.076 139.96 375.585C133.545 370.041 128.503 363.309 124.86 355.416C121.27 347.549 119.475 338.626 119.475 328.7C119.475 309.138 126.603 291.398 140.91 275.479C155.192 259.508 176.944 245.991 206.167 234.93C220.792 229.386 236.419 224.555 253.05 220.463C269.734 216.398 286.734 213.045 304.052 210.431C321.422 207.765 338.686 205.785 355.792 204.518C372.898 203.198 389.186 202.512 404.682 202.512C415.452 202.512 426.751 202.723 438.577 203.145C450.404 203.568 462.89 204.096 476.063 204.729L536.99 207.792C551.272 208.636 558.426 213.89 558.426 223.525Z" fill="white"/>
<path d="M648.676 244.54C648.676 253.621 646.591 261.91 642.446 269.355C638.354 276.747 632.969 283.162 626.29 288.573C619.585 294.012 611.93 298.183 603.271 301.139C594.665 304.043 585.848 305.469 576.767 305.469C572.676 305.469 568.795 305.205 565.152 304.624C561.483 303.99 558.816 303.41 557.127 302.829L557.549 297.971C559.582 298.895 562.644 299.503 566.736 299.767C570.801 300.057 574.603 300.189 578.14 300.189C585.743 300.189 592.659 298.367 598.942 294.698C605.198 291.055 610.583 286.461 615.098 280.97C619.664 275.427 623.175 269.302 625.657 262.597C628.112 255.838 629.353 249.555 629.353 243.695C629.353 230.258 625.393 220.463 617.526 214.339C609.633 208.214 598.678 205.152 584.687 205.152C571.514 205.152 559.661 208.689 549.102 215.712C538.595 222.681 530.148 234.191 523.76 250.242C521.146 256.947 519.245 263.441 518.058 269.777C516.922 276.06 516.368 284.138 516.368 294.064C516.368 300.479 514.811 307.422 511.722 314.867C508.686 322.338 503.38 328.251 495.777 332.607C491.686 334.93 487.145 337.201 482.156 339.365C477.219 341.557 471.517 344.117 465.05 347.074C455.678 351.456 446.914 356.05 438.757 360.907C430.574 365.712 423.578 371.018 417.744 376.852C409.297 385.3 403.172 394.804 399.371 405.363C395.57 415.87 393.669 426.219 393.669 436.409C393.669 449.582 396.045 460.907 400.849 470.411C405.707 479.915 411.937 487.729 419.539 493.853C427.142 499.978 435.431 504.519 444.459 507.475C453.54 510.379 462.304 511.805 470.752 511.805C482.71 511.805 494.616 510.063 506.442 506.525C518.269 503.014 528.934 497.919 538.437 491.214C547.94 484.535 555.596 476.377 561.456 466.715C567.29 457.079 570.221 446.097 570.221 433.769C570.221 420.675 567.581 410.854 562.301 404.307C557.074 397.708 548.627 394.381 536.959 394.381C526.399 394.381 515.682 397.84 504.858 404.73C494.088 411.567 484.479 420.965 476.032 432.924L472.969 430.707C482.05 418.193 492.636 408.109 504.753 400.506C516.843 392.903 530.782 389.101 546.568 389.101C562.327 389.101 574.154 393.114 582.047 401.14C589.914 409.165 593.873 419.038 593.873 430.707C593.873 441.557 589.861 452.248 581.836 462.808C573.811 473.315 563.568 482.713 551.108 491.002C538.701 499.318 524.921 506.05 509.716 511.171C494.563 516.24 479.991 518.774 466 518.774C450.161 518.774 436.038 517.006 423.657 513.494C411.25 510.063 400.744 505.205 392.085 498.922C383.479 492.586 376.906 484.983 372.339 476.113C367.825 467.19 365.581 457.475 365.581 446.969C365.581 435.3 367.323 425.084 370.861 416.345C374.372 407.555 379.044 399.74 384.905 392.903C390.739 386.013 397.523 380.02 405.284 374.952C413.019 369.83 421.123 364.893 429.571 360.168C440.975 354.043 451.481 349.028 461.143 345.068C470.778 341.134 477.642 337.121 481.734 333.03C483.476 331.287 484.796 329.017 485.64 326.271C486.538 323.473 487.224 320.622 487.647 317.718C488.069 314.841 488.28 312.174 488.28 309.693C488.28 307.158 488.28 305.152 488.28 303.674C488.28 296.361 488.544 289.893 489.125 284.244C489.759 278.542 490.63 273.367 491.765 268.721C492.953 264.022 494.431 259.613 496.2 255.522C497.942 251.456 500.001 247.364 502.324 243.272C510.191 229.835 521.489 219.249 536.22 211.488C551.003 203.753 568.452 199.872 588.594 199.872C606.386 199.872 620.852 203.885 631.992 211.91C643.106 219.935 648.676 230.812 648.676 244.54Z" fill="white"/>
<path d="M168.446 576.72H167.602L169.608 565.316H208.044L210.05 576.72H209.311C208.809 574.054 207.965 571.942 206.777 570.385C205.642 568.774 204.19 567.639 202.447 567.005C200.679 566.372 198.699 566.055 196.534 566.055H192.205V605.443C192.205 606.789 192.522 607.66 193.155 608.083C193.842 608.505 194.95 608.716 196.429 608.716V609.455H181.329V608.716C182.807 608.716 183.863 608.505 184.497 608.083C185.183 607.66 185.552 606.789 185.552 605.443V566.055H181.118C178.926 566.055 176.947 566.372 175.204 567.005C173.515 567.639 172.063 568.774 170.875 570.385C169.74 571.942 168.922 574.054 168.446 576.72Z" fill="white"/>
<path d="M214.376 587.28C214.376 584.112 214.93 581.155 216.065 578.41C217.174 575.664 218.732 573.288 220.712 571.229C222.665 569.197 224.962 567.586 227.575 566.372C230.241 565.184 233.066 564.577 236.022 564.577C239.032 564.577 241.857 565.184 244.47 566.372C247.136 567.586 249.459 569.197 251.439 571.229C253.472 573.288 255.056 575.664 256.191 578.41C257.3 581.155 257.88 584.112 257.88 587.28C257.88 590.448 257.3 593.405 256.191 596.15C255.056 598.896 253.472 601.324 251.439 603.436C249.459 605.548 247.136 607.211 244.47 608.399C241.857 609.587 239.032 610.194 236.022 610.194C233.066 610.194 230.241 609.587 227.575 608.399C224.962 607.211 222.665 605.548 220.712 603.436C218.732 601.324 217.174 598.896 216.065 596.15C214.93 593.405 214.376 590.448 214.376 587.28ZM235.389 565.421C233.119 565.421 231.112 566.002 229.37 567.111C227.681 568.246 226.229 569.83 225.041 571.863C223.906 573.843 223.061 576.087 222.507 578.621C221.926 581.155 221.662 583.848 221.662 586.646C221.662 589.55 221.926 592.349 222.507 595.094C223.061 597.787 223.932 600.216 225.146 602.38C226.414 604.492 227.997 606.182 229.898 607.449C231.799 608.716 234.043 609.35 236.656 609.35C239.032 609.35 241.117 608.795 242.886 607.66C244.628 606.551 246.08 604.994 247.215 603.014C248.403 601.06 249.274 598.79 249.855 596.256C250.41 593.669 250.7 590.87 250.7 587.914C250.7 585.115 250.383 582.37 249.75 579.677C249.169 577.011 248.298 574.608 247.11 572.496C245.895 570.332 244.312 568.589 242.358 567.322C240.457 566.055 238.134 565.421 235.389 565.421Z" fill="white"/>
<path d="M262.773 566.055V565.316H279.985C282.228 565.316 284.446 565.422 286.637 565.633C288.802 565.844 290.781 566.345 292.55 567.111C294.292 567.824 295.718 568.88 296.774 570.279C297.83 571.705 298.358 573.632 298.358 576.087C298.358 578.489 297.856 580.416 296.879 581.895C295.876 583.32 294.583 584.403 292.972 585.168C291.415 585.96 289.699 586.488 287.798 586.752C285.951 586.963 284.155 587.069 282.413 587.069H273.649V605.443C273.649 606.789 273.966 607.66 274.599 608.083C275.286 608.505 276.394 608.716 277.873 608.716V609.455H262.773V608.716C264.172 608.716 265.228 608.505 265.941 608.083C266.627 607.66 266.997 606.789 266.997 605.443V569.329C266.997 567.929 266.627 567.058 265.941 566.689C265.228 566.266 264.172 566.055 262.773 566.055ZM279.985 566.055H273.649V586.33H280.09C282.756 586.33 284.947 586.066 286.637 585.485C288.326 584.931 289.593 583.98 290.438 582.634C291.283 581.235 291.705 579.307 291.705 576.826C291.705 569.645 287.798 566.055 279.985 566.055Z" fill="white"/>
<path d="M319.896 609.455V608.716C321.216 608.716 322.245 608.558 322.958 608.188C323.644 607.845 324.04 607.106 324.119 605.971V569.329C324.119 567.929 323.75 567.058 323.064 566.689C322.43 566.266 321.374 566.055 319.896 566.055V565.316H351.257L354.425 574.82H353.686C352.973 572.576 352.128 570.807 351.151 569.54C350.227 568.22 349.039 567.322 347.561 566.9C346.136 566.425 344.314 566.161 342.07 566.161C339.114 566.161 336.817 566.24 335.207 566.372C333.57 566.53 332.461 566.794 331.828 567.217C331.194 567.639 330.877 568.352 330.877 569.329V585.907H337.847C340.011 585.854 341.595 585.485 342.598 584.851C343.575 584.165 344.182 583.135 344.393 581.789C344.657 580.39 344.816 578.674 344.816 576.615H345.555V596.678H344.816C344.816 594.645 344.71 592.877 344.499 591.398C344.288 589.867 343.681 588.706 342.704 587.914C341.78 587.069 340.17 586.646 337.847 586.646H330.877V605.443C330.877 606.789 331.432 607.66 332.567 608.083C333.755 608.505 335.867 608.716 338.902 608.716C342.413 608.716 345.264 607.977 347.456 606.499C349.62 605.02 351.389 603.014 352.735 600.48C354.134 597.945 355.296 595.147 356.22 592.032H357.064L352.735 609.455H319.896Z" fill="white"/>
<path d="M361.67 609.455V591.293H362.409C362.409 595.305 362.964 598.632 364.099 601.219C365.287 603.753 366.897 605.654 368.956 606.921C370.989 608.135 373.233 608.716 375.714 608.716C377.245 608.716 378.671 608.479 379.938 607.977C381.205 607.502 382.208 606.71 383 605.654C383.766 604.598 384.162 603.199 384.162 601.43C384.162 599.74 383.581 598.209 382.472 596.784C381.416 595.305 379.991 593.933 378.248 592.665C376.559 591.398 374.764 590.131 372.863 588.864C370.962 587.544 369.167 586.198 367.478 584.851C365.788 583.452 364.363 581.974 363.254 580.416C362.198 578.806 361.67 577.011 361.67 575.031C361.67 572.708 362.304 570.78 363.571 569.223C364.838 567.692 366.448 566.53 368.428 565.738C370.382 564.973 372.362 564.577 374.341 564.577C375.82 564.577 377.087 564.761 378.143 565.105C379.251 565.395 380.202 565.738 380.994 566.161C381.759 566.583 382.472 566.979 383.106 567.322C383.739 567.613 384.32 567.745 384.901 567.745C385.745 567.745 386.3 567.586 386.59 567.217C386.854 566.794 387.013 566.161 387.013 565.316H387.752V579.571H387.013C387.013 576.905 386.485 574.556 385.429 572.496C384.373 570.464 382.947 568.88 381.205 567.745C379.436 566.557 377.43 565.949 375.186 565.949C372.705 565.949 370.962 566.557 369.906 567.745C368.851 568.88 368.323 570.332 368.323 572.074C368.323 574.133 368.851 575.928 369.906 577.459C370.962 578.938 372.282 580.311 373.919 581.578C375.609 582.792 377.351 583.98 379.199 585.168C381.099 586.303 382.842 587.544 384.478 588.864C386.168 590.131 387.541 591.583 388.596 593.193C389.652 594.83 390.18 596.731 390.18 598.896C390.18 600.955 389.758 602.855 388.913 604.598C388.121 606.287 386.749 607.66 384.795 608.716C382.815 609.693 380.149 610.194 376.77 610.194C375.081 610.194 373.655 610.036 372.546 609.772C371.411 609.482 370.434 609.191 369.59 608.822C368.745 608.399 367.953 608.056 367.267 607.766C366.633 607.502 365.947 607.343 365.26 607.343C363.36 607.343 362.409 608.056 362.409 609.455H361.67Z" fill="white"/>
<path d="M416.913 610.194C412.69 610.194 408.994 609.297 405.826 607.449C402.658 605.548 400.151 602.961 398.329 599.635C396.56 596.335 395.689 592.56 395.689 588.336C395.689 585.036 396.138 581.974 397.062 579.149C398.039 576.272 399.438 573.737 401.286 571.546C403.186 569.381 405.43 567.692 408.044 566.477C410.71 565.21 413.746 564.577 417.125 564.577C419.025 564.577 420.609 564.841 421.876 565.316C423.196 565.738 424.305 566.161 425.15 566.583C426.047 567.005 426.866 567.217 427.578 567.217C427.922 567.217 428.265 567.111 428.634 566.9C428.977 566.636 429.162 566.108 429.162 565.316H430.007V580.522H429.268C429.268 575.4 428.212 571.704 426.1 569.434C424.041 567.19 421.243 566.055 417.653 566.055C414.96 566.055 412.505 566.794 410.261 568.273C407.991 569.698 406.196 571.836 404.876 574.714C403.609 577.618 402.975 581.155 402.975 585.379C402.975 589.603 403.609 593.352 404.876 596.572C406.196 599.82 408.149 602.354 410.683 604.175C413.218 606.023 416.227 606.921 419.764 606.921C422.642 606.921 424.991 606.287 426.839 605.02C428.74 603.7 430.139 602.011 431.063 599.952C431.96 597.84 432.436 595.596 432.436 593.193H433.175C433.175 595.305 432.858 597.391 432.224 599.424C431.591 601.404 430.588 603.225 429.268 604.915C427.922 606.551 426.232 607.845 424.199 608.822C422.14 609.719 419.712 610.194 416.913 610.194Z" fill="white"/>
<path d="M437.719 609.455V608.716C439.118 608.716 440.174 608.505 440.887 608.083C441.573 607.66 441.943 606.789 441.943 605.443V569.329C441.943 567.929 441.573 567.058 440.887 566.689C440.174 566.266 439.118 566.055 437.719 566.055V565.316H454.931C457.175 565.316 459.392 565.422 461.583 565.633C463.748 565.844 465.728 566.345 467.496 567.111C469.239 567.824 470.664 568.88 471.72 570.279C472.776 571.705 473.304 573.632 473.304 576.087C473.304 578.489 472.802 580.416 471.826 581.895C470.823 583.32 469.529 584.403 467.919 585.168C466.361 585.96 464.645 586.488 462.745 586.752C460.897 586.963 459.102 587.069 457.359 587.069H454.825C455.591 588.336 456.462 589.286 457.465 589.92C458.442 590.501 459.418 590.765 460.422 590.765C461.53 590.765 462.586 590.395 463.589 589.603L474.466 605.443C475.363 606.71 476.313 607.607 477.317 608.083C478.372 608.505 479.455 608.716 480.59 608.716V609.455H474.571C472.934 609.455 471.509 609.112 470.242 608.399C469.027 607.713 467.945 606.815 466.968 605.759C466.044 604.651 465.2 603.542 464.434 602.486L453.875 587.069H448.595V605.443C448.595 606.789 448.912 607.66 449.546 608.083C450.232 608.505 451.341 608.716 452.819 608.716V609.455H437.719ZM448.595 586.33H455.036C457.148 586.33 459.075 586.066 460.844 585.485C462.586 584.931 464.012 583.901 465.068 582.423C466.124 580.944 466.652 578.832 466.652 576.087C466.652 572.866 465.728 570.385 463.906 568.695C462.058 566.953 459.498 566.055 456.198 566.055H448.595V586.33Z" fill="white"/>
<path d="M481.859 587.28C481.859 584.112 482.413 581.155 483.548 578.41C484.657 575.664 486.214 573.288 488.194 571.229C490.148 569.197 492.444 567.586 495.058 566.372C497.724 565.184 500.549 564.577 503.505 564.577C506.515 564.577 509.339 565.184 511.953 566.372C514.619 567.586 516.942 569.197 518.922 571.229C520.954 573.288 522.538 575.664 523.674 578.41C524.782 581.155 525.363 584.112 525.363 587.28C525.363 590.448 524.782 593.405 523.674 596.15C522.538 598.896 520.954 601.324 518.922 603.436C516.942 605.548 514.619 607.211 511.953 608.399C509.339 609.587 506.515 610.194 503.505 610.194C500.549 610.194 497.724 609.587 495.058 608.399C492.444 607.211 490.148 605.548 488.194 603.436C486.214 601.324 484.657 598.896 483.548 596.15C482.413 593.405 481.859 590.448 481.859 587.28ZM502.872 565.421C500.601 565.421 498.595 566.002 496.853 567.111C495.163 568.246 493.711 569.83 492.524 571.863C491.388 573.843 490.544 576.087 489.989 578.621C489.409 581.155 489.145 583.848 489.145 586.646C489.145 589.55 489.409 592.349 489.989 595.094C490.544 597.787 491.415 600.216 492.629 602.38C493.896 604.492 495.48 606.182 497.381 607.449C499.282 608.716 501.525 609.35 504.139 609.35C506.515 609.35 508.6 608.795 510.369 607.66C512.111 606.551 513.563 604.994 514.698 603.014C515.886 601.06 516.757 598.79 517.338 596.256C517.892 593.669 518.183 590.87 518.183 587.914C518.183 585.115 517.866 582.37 517.232 579.677C516.652 577.011 515.78 574.608 514.592 572.496C513.378 570.332 511.794 568.589 509.841 567.322C507.94 566.055 505.617 565.421 502.872 565.421Z" fill="white"/>
<path d="M526.035 565.316H542.824V565.949C540.765 565.949 539.392 566.161 538.706 566.583C537.993 566.953 537.967 567.797 538.601 569.117L554.123 601.113L559.402 586.013L551.483 569.645C550.77 568.246 550.057 567.296 549.371 566.794C548.737 566.319 547.602 566.055 545.992 566.055V565.316H571.546V566.055C569.777 566.055 568.51 566.319 567.744 566.794C567.031 567.296 566.424 568.246 565.949 569.645L562.993 578.093L574.08 601.113L585.062 569.645C585.484 568.378 585.484 567.481 585.062 566.9C584.639 566.345 583.478 566.055 581.577 566.055V565.316H591.503V566.055C589.734 566.055 588.467 566.319 587.701 566.794C586.989 567.296 586.381 568.246 585.906 569.645L571.968 609.455H570.701L559.825 587.069L552.011 609.455H550.744L531.526 569.645C531.024 568.669 530.575 567.929 530.153 567.428C529.731 566.953 529.203 566.583 528.569 566.372C527.936 566.161 527.091 566.055 526.035 566.055V565.316ZM562.465 577.143L565.104 569.645C565.58 568.378 565.58 567.481 565.104 566.9C564.682 566.345 563.521 566.055 561.62 566.055C560.062 566.134 559.006 566.372 558.452 566.794C557.95 567.164 558.03 567.929 558.663 569.117L562.465 577.143Z" fill="white"/>
</svg>
